%
M48
M72
T01C0.01181
T02C0.03937
T03C0.05000
T04C0.07000
T05C0.12598
%
T01
X50439Y9268
X50439Y25016
X50439Y40764
X50439Y56512
X83510Y65567
X92171Y65567
X100833Y65567
X109494Y65567
X117762Y65567
X126817Y65567
X135872Y65567
X144927Y65567
X153982Y65567
X162250Y65961
X170518Y66748
X179573Y68717
X188234Y70685
X196502Y73441
X204770Y76984
X212644Y80528
X220518Y85252
X227998Y90370
X234691Y95094
X241384Y101394
X247683Y107693
X253982Y114386
X259101Y121472
X264219Y129740
X268943Y138402
X272880Y146669
X276423Y156512
X278786Y167142
X281148Y177378
X281935Y186039
X282723Y193126
X282723Y197063
X284297Y202575
X284297Y207299
X284297Y212417
X284691Y218717
X284691Y225016
X284691Y229346
X294534Y229740
X294534Y213992
X294534Y198244
X294534Y182496
X294534Y166748
X294534Y151000
X294534Y135252
X294534Y119504
X294534Y103756
X294534Y88008
X294534Y72260
X294534Y56512
X294534Y40764
X294534Y25016
X294534Y9268
X286660Y9268
X270912Y9268
X255164Y9268
X239416Y9268
X223667Y9268
X207919Y9268
X192171Y9268
X176423Y9268
X160675Y9268
X144927Y9268
X129179Y9268
X113431Y9268
X97683Y9268
X81935Y9268
X66187Y9268
X85872Y32890
X125242Y32890
X164612Y32890
X203982Y32890
X243353Y32890
X243353Y72260
X215793Y102575
X207526Y97457
X199258Y93520
X190597Y89583
X181541Y86827
X171699Y84465
X162644Y82890
X153982Y82496
X144927Y82496
X135872Y82496
X126817Y82496
X117762Y82496
X109101Y82496
X100439Y82496
X91778Y82496
X83510Y82496
X85872Y111630
X50439Y119504
X50439Y135252
X50439Y151000
X50439Y166748
X50439Y182496
X50439Y198244
X50439Y213992
X50439Y229740
X66187Y229740
X81935Y229740
X97683Y229740
X113431Y229740
X129179Y229740
X144927Y229740
X160675Y229740
X176423Y229740
X192171Y229740
X207919Y229740
X223667Y229740
X239416Y229740
X255164Y229740
X265793Y227378
X265793Y221866
X266187Y212417
X266581Y206906
X266581Y200606
X265400Y191551
X264612Y183283
X263038Y174622
X261463Y166748
X258707Y158480
X255557Y150213
X251227Y141551
X246896Y134071
X241778Y126984
X236266Y120685
X230360Y114386
X223667Y108480
X203982Y111630
X203982Y151000
X164612Y151000
X164612Y111630
X125242Y111630
X125242Y151000
X85872Y151000
X85872Y190370
X125242Y190370
X164612Y190370
X203982Y190370
X243353Y190370
X243353Y151000
X50439Y103756
T02
X161541Y252850
X161541Y307969
X274927Y307969
X275321Y252457
T03
X65321Y74031
T04
X55282Y63993
X55282Y84070
X75360Y84070
X75360Y63993
T05
X66975Y36433
X275242Y36827
X66975Y297063
M30
