G75*
%MOIN*%
%OFA0B0*%
%FSLAX25Y25*%
%IPPOS*%
%LPD*%
%AMOC8*
5,1,8,0,0,1.08239X$1,22.5*
%
%ADD10C,0.13398*%
%ADD11R,0.09068X0.09068*%
%ADD12R,0.08674X0.08674*%
%ADD13R,0.08595X0.04816*%
%ADD14C,0.08300*%
%ADD15C,0.11300*%
%ADD16R,0.05131X0.04737*%
%ADD17C,0.03581*%
D10*
X0066975Y0036433D03*
X0275242Y0036827D03*
X0066975Y0297063D03*
D11*
X0161541Y0307969D03*
X0161541Y0252850D03*
D12*
X0275321Y0252457D03*
X0274927Y0307969D03*
D13*
X0275242Y0230543D03*
X0275242Y0222043D03*
X0275242Y0212000D03*
X0275242Y0203500D03*
D14*
X0065321Y0074031D03*
D15*
X0055282Y0063993D03*
X0055282Y0084070D03*
X0075360Y0084070D03*
X0075360Y0063993D03*
D16*
X0267250Y0196157D03*
X0273943Y0196157D03*
X0273786Y0216945D03*
X0267093Y0216945D03*
D17*
X0050439Y0009268D03*
X0050439Y0025016D03*
X0050439Y0040764D03*
X0050439Y0056512D03*
X0083510Y0065567D03*
X0092171Y0065567D03*
X0100833Y0065567D03*
X0109494Y0065567D03*
X0117762Y0065567D03*
X0126817Y0065567D03*
X0135872Y0065567D03*
X0144927Y0065567D03*
X0153982Y0065567D03*
X0162250Y0065961D03*
X0170518Y0066748D03*
X0179573Y0068717D03*
X0188234Y0070685D03*
X0196502Y0073441D03*
X0204770Y0076984D03*
X0212644Y0080528D03*
X0220518Y0085252D03*
X0227998Y0090370D03*
X0234691Y0095094D03*
X0241384Y0101394D03*
X0247683Y0107693D03*
X0253982Y0114386D03*
X0259101Y0121472D03*
X0264219Y0129740D03*
X0268943Y0138402D03*
X0272880Y0146669D03*
X0276423Y0156512D03*
X0278786Y0167142D03*
X0281148Y0177378D03*
X0281935Y0186039D03*
X0282723Y0193126D03*
X0282723Y0197063D03*
X0284297Y0202575D03*
X0284297Y0207299D03*
X0284297Y0212417D03*
X0284691Y0218717D03*
X0284691Y0225016D03*
X0284691Y0229346D03*
X0294534Y0229740D03*
X0294534Y0213992D03*
X0294534Y0198244D03*
X0294534Y0182496D03*
X0294534Y0166748D03*
X0294534Y0151000D03*
X0294534Y0135252D03*
X0294534Y0119504D03*
X0294534Y0103756D03*
X0294534Y0088008D03*
X0294534Y0072260D03*
X0294534Y0056512D03*
X0294534Y0040764D03*
X0294534Y0025016D03*
X0294534Y0009268D03*
X0286660Y0009268D03*
X0270912Y0009268D03*
X0255164Y0009268D03*
X0239416Y0009268D03*
X0223667Y0009268D03*
X0207919Y0009268D03*
X0192171Y0009268D03*
X0176423Y0009268D03*
X0160675Y0009268D03*
X0144927Y0009268D03*
X0129179Y0009268D03*
X0113431Y0009268D03*
X0097683Y0009268D03*
X0081935Y0009268D03*
X0066187Y0009268D03*
X0085872Y0032890D03*
X0125242Y0032890D03*
X0164612Y0032890D03*
X0203982Y0032890D03*
X0243353Y0032890D03*
X0243353Y0072260D03*
X0215793Y0102575D03*
X0207526Y0097457D03*
X0199258Y0093520D03*
X0190597Y0089583D03*
X0181541Y0086827D03*
X0171699Y0084465D03*
X0162644Y0082890D03*
X0153982Y0082496D03*
X0144927Y0082496D03*
X0135872Y0082496D03*
X0126817Y0082496D03*
X0117762Y0082496D03*
X0109101Y0082496D03*
X0100439Y0082496D03*
X0091778Y0082496D03*
X0083510Y0082496D03*
X0085872Y0111630D03*
X0050439Y0119504D03*
X0050439Y0135252D03*
X0050439Y0151000D03*
X0050439Y0166748D03*
X0050439Y0182496D03*
X0050439Y0198244D03*
X0050439Y0213992D03*
X0050439Y0229740D03*
X0066187Y0229740D03*
X0081935Y0229740D03*
X0097683Y0229740D03*
X0113431Y0229740D03*
X0129179Y0229740D03*
X0144927Y0229740D03*
X0160675Y0229740D03*
X0176423Y0229740D03*
X0192171Y0229740D03*
X0207919Y0229740D03*
X0223667Y0229740D03*
X0239416Y0229740D03*
X0255164Y0229740D03*
X0265793Y0227378D03*
X0265793Y0221866D03*
X0266187Y0212417D03*
X0266581Y0206906D03*
X0266581Y0200606D03*
X0265400Y0191551D03*
X0264612Y0183283D03*
X0263038Y0174622D03*
X0261463Y0166748D03*
X0258707Y0158480D03*
X0255557Y0150213D03*
X0251227Y0141551D03*
X0246896Y0134071D03*
X0241778Y0126984D03*
X0236266Y0120685D03*
X0230360Y0114386D03*
X0223667Y0108480D03*
X0203982Y0111630D03*
X0203982Y0151000D03*
X0164612Y0151000D03*
X0164612Y0111630D03*
X0125242Y0111630D03*
X0125242Y0151000D03*
X0085872Y0151000D03*
X0085872Y0190370D03*
X0125242Y0190370D03*
X0164612Y0190370D03*
X0203982Y0190370D03*
X0243353Y0190370D03*
X0243353Y0151000D03*
X0050439Y0103756D03*
M02*
