G75*
%MOIN*%
%OFA0B0*%
%FSLAX25Y25*%
%IPPOS*%
%LPD*%
%AMOC8*
5,1,8,0,0,1.08239X$1,22.5*
%
%ADD10R,0.06299X0.07087*%
%ADD11R,0.07087X0.06299*%
%ADD12R,0.03937X0.04331*%
%ADD13R,0.04331X0.03937*%
%ADD14C,0.07500*%
%ADD15C,0.10500*%
%ADD16C,0.05600*%
%ADD17R,0.06299X0.05118*%
%ADD18R,0.05118X0.06299*%
%ADD19R,0.05118X0.05906*%
%ADD20R,0.05906X0.05118*%
%ADD21C,0.06000*%
%ADD22OC8,0.06300*%
%ADD23C,0.02781*%
%ADD24C,0.01200*%
%ADD25C,0.02400*%
%ADD26C,0.01600*%
%ADD27R,0.03962X0.03962*%
D10*
X0024291Y0040344D03*
X0035315Y0040344D03*
X0052244Y0041132D03*
X0063268Y0041132D03*
X0135709Y0159636D03*
X0146732Y0159636D03*
X0304577Y0266142D03*
X0315600Y0266142D03*
D11*
X0294341Y0281555D03*
X0294341Y0292579D03*
X0156181Y0178533D03*
X0156181Y0167510D03*
X0111693Y0197431D03*
X0111693Y0208455D03*
X0072323Y0147037D03*
X0072323Y0136014D03*
X0108937Y0106093D03*
X0108937Y0095069D03*
X0374685Y0130108D03*
X0374685Y0141132D03*
D12*
X0303917Y0280423D03*
X0303917Y0287116D03*
X0285974Y0287116D03*
X0285974Y0280423D03*
X0146732Y0175581D03*
X0146732Y0168888D03*
X0110118Y0167707D03*
X0110118Y0174400D03*
X0122717Y0202746D03*
X0122717Y0209439D03*
X0063268Y0142510D03*
X0063268Y0135817D03*
X0099488Y0101959D03*
X0099488Y0095266D03*
D13*
X0121732Y0159636D03*
X0128425Y0159636D03*
X0297510Y0257077D03*
X0304203Y0257077D03*
X0313524Y0243199D03*
X0320217Y0243199D03*
X0317106Y0274341D03*
X0323799Y0274341D03*
D14*
X0318730Y0080768D03*
D15*
X0308691Y0090807D03*
X0328769Y0090807D03*
X0328769Y0070729D03*
X0308691Y0070729D03*
D16*
X0383302Y0160935D02*
X0388902Y0160935D01*
X0388902Y0170935D02*
X0383302Y0170935D01*
X0242008Y0230379D02*
X0242008Y0235979D01*
X0232008Y0235979D02*
X0232008Y0230379D01*
X0222008Y0230379D02*
X0222008Y0235979D01*
X0212008Y0235979D02*
X0212008Y0230379D01*
X0202008Y0230379D02*
X0202008Y0235979D01*
X0192008Y0235979D02*
X0192008Y0230379D01*
X0182008Y0230379D02*
X0182008Y0235979D01*
X0172008Y0235979D02*
X0172008Y0230379D01*
X0162008Y0230379D02*
X0162008Y0235979D01*
X0152008Y0235979D02*
X0152008Y0230379D01*
X0142008Y0230379D02*
X0142008Y0235979D01*
X0132008Y0235979D02*
X0132008Y0230379D01*
X0122008Y0230379D02*
X0122008Y0235979D01*
X0112008Y0235979D02*
X0112008Y0230379D01*
X0102008Y0230379D02*
X0102008Y0235979D01*
X0092008Y0235979D02*
X0092008Y0230379D01*
X0082008Y0230379D02*
X0082008Y0235979D01*
X0072008Y0235979D02*
X0072008Y0230379D01*
X0062008Y0230379D02*
X0062008Y0235979D01*
X0052008Y0235979D02*
X0052008Y0230379D01*
X0042008Y0230379D02*
X0042008Y0235979D01*
X0032008Y0235979D02*
X0032008Y0230379D01*
X0022008Y0230379D02*
X0022008Y0235979D01*
X0012008Y0235979D02*
X0012008Y0230379D01*
X0012830Y0175266D02*
X0018430Y0175266D01*
X0018430Y0165266D02*
X0012830Y0165266D01*
X0012830Y0155187D02*
X0018430Y0155187D01*
X0018430Y0145187D02*
X0012830Y0145187D01*
X0012712Y0123258D02*
X0018312Y0123258D01*
X0018312Y0103258D02*
X0012712Y0103258D01*
X0062712Y0113258D02*
X0068312Y0113258D01*
X0119917Y0118533D02*
X0125517Y0118533D01*
X0138420Y0118415D02*
X0144020Y0118415D01*
X0144020Y0128415D02*
X0138420Y0128415D01*
X0125517Y0128533D02*
X0119917Y0128533D01*
X0119917Y0138533D02*
X0125517Y0138533D01*
X0063976Y0059050D02*
X0063976Y0053450D01*
X0043976Y0029050D02*
X0043976Y0023450D01*
X0023976Y0053450D02*
X0023976Y0059050D01*
X0022008Y0290379D02*
X0022008Y0295979D01*
X0032008Y0295979D02*
X0032008Y0290379D01*
X0042008Y0290379D02*
X0042008Y0295979D01*
X0052008Y0295979D02*
X0052008Y0290379D01*
X0062008Y0290379D02*
X0062008Y0295979D01*
X0072008Y0295979D02*
X0072008Y0290379D01*
X0082008Y0290379D02*
X0082008Y0295979D01*
X0092008Y0295979D02*
X0092008Y0290379D01*
X0102008Y0290379D02*
X0102008Y0295979D01*
X0112008Y0295979D02*
X0112008Y0290379D01*
X0122008Y0290379D02*
X0122008Y0295979D01*
X0132008Y0295979D02*
X0132008Y0290379D01*
X0142008Y0290379D02*
X0142008Y0295979D01*
X0152008Y0295979D02*
X0152008Y0290379D01*
X0162008Y0290379D02*
X0162008Y0295979D01*
X0172008Y0295979D02*
X0172008Y0290379D01*
X0182008Y0290379D02*
X0182008Y0295979D01*
X0192008Y0295979D02*
X0192008Y0290379D01*
X0202008Y0290379D02*
X0202008Y0295979D01*
X0212008Y0295979D02*
X0212008Y0290379D01*
X0222008Y0290379D02*
X0222008Y0295979D01*
X0232008Y0295979D02*
X0232008Y0290379D01*
X0242008Y0290379D02*
X0242008Y0295979D01*
X0221969Y0306836D02*
X0221969Y0312436D01*
X0211969Y0312436D02*
X0211969Y0306836D01*
X0201969Y0306836D02*
X0201969Y0312436D01*
X0191969Y0312436D02*
X0191969Y0306836D01*
X0182047Y0306836D02*
X0182047Y0312436D01*
X0172047Y0312436D02*
X0172047Y0306836D01*
X0162126Y0306836D02*
X0162126Y0312436D01*
X0152126Y0312436D02*
X0152126Y0306836D01*
X0142126Y0306836D02*
X0142126Y0312436D01*
X0132126Y0312436D02*
X0132126Y0306836D01*
X0121969Y0306836D02*
X0121969Y0312436D01*
X0111969Y0312436D02*
X0111969Y0306836D01*
X0101969Y0306836D02*
X0101969Y0312436D01*
X0091969Y0312436D02*
X0091969Y0306836D01*
X0081929Y0306836D02*
X0081929Y0312436D01*
X0071929Y0312436D02*
X0071929Y0306836D01*
X0061929Y0306836D02*
X0061929Y0312436D01*
X0051890Y0312436D02*
X0051890Y0306836D01*
X0041890Y0306836D02*
X0041890Y0312436D01*
X0031890Y0312436D02*
X0031890Y0306836D01*
X0021890Y0306836D02*
X0021890Y0312436D01*
X0012008Y0295979D02*
X0012008Y0290379D01*
X0289213Y0307623D02*
X0289213Y0313223D01*
X0299213Y0313223D02*
X0299213Y0307623D01*
X0309213Y0307623D02*
X0309213Y0313223D01*
X0319213Y0313223D02*
X0319213Y0307623D01*
X0329134Y0307623D02*
X0329134Y0313223D01*
X0339134Y0313223D02*
X0339134Y0307623D01*
X0349055Y0307623D02*
X0349055Y0313223D01*
X0359055Y0313223D02*
X0359055Y0307623D01*
X0369055Y0307623D02*
X0369055Y0313223D01*
X0379055Y0313223D02*
X0379055Y0307623D01*
D17*
X0339252Y0298415D03*
X0339252Y0290935D03*
X0329016Y0290935D03*
X0329016Y0298415D03*
X0242402Y0211801D03*
X0242402Y0204321D03*
X0233346Y0204321D03*
X0233346Y0211801D03*
D18*
X0304409Y0222628D03*
X0311890Y0222628D03*
X0196142Y0136014D03*
X0188661Y0136014D03*
X0188661Y0126959D03*
X0196142Y0126959D03*
X0301260Y0320266D03*
X0308740Y0320266D03*
D19*
X0141024Y0183258D03*
X0133543Y0183258D03*
X0110315Y0182077D03*
X0102835Y0182077D03*
X0113465Y0222234D03*
X0120945Y0222234D03*
X0035906Y0163967D03*
X0028425Y0163967D03*
X0028425Y0154911D03*
X0035906Y0154911D03*
X0035906Y0145463D03*
X0028425Y0145463D03*
X0036299Y0071053D03*
X0043780Y0071053D03*
X0044567Y0060423D03*
X0052047Y0060423D03*
D20*
X0118780Y0095266D03*
X0118780Y0102746D03*
X0081772Y0135423D03*
X0081772Y0142904D03*
X0294370Y0222825D03*
X0294370Y0230305D03*
X0358937Y0290935D03*
X0358937Y0298415D03*
D21*
X0383339Y0140896D02*
X0389339Y0140896D01*
X0389339Y0130896D02*
X0383339Y0130896D01*
X0383339Y0120896D02*
X0389339Y0120896D01*
X0018000Y0191762D02*
X0012000Y0191762D01*
X0012000Y0201762D02*
X0018000Y0201762D01*
X0018000Y0211762D02*
X0012000Y0211762D01*
D22*
X0095551Y0110030D03*
X0141220Y0095069D03*
X0176260Y0170266D03*
X0273504Y0230502D03*
D23*
X0257362Y0241919D03*
X0289252Y0243494D03*
X0294370Y0236407D03*
X0294370Y0217510D03*
X0290433Y0213179D03*
X0290433Y0206880D03*
X0290433Y0199006D03*
X0281772Y0190738D03*
X0288858Y0185620D03*
X0294370Y0178533D03*
X0296732Y0170266D03*
X0296732Y0161998D03*
X0296732Y0154124D03*
X0297520Y0140344D03*
X0306575Y0139951D03*
X0306181Y0135620D03*
X0297520Y0130108D03*
X0306181Y0123415D03*
X0295945Y0121447D03*
X0292795Y0113573D03*
X0289252Y0109242D03*
X0289252Y0100581D03*
X0289646Y0091526D03*
X0289646Y0084045D03*
X0289646Y0076565D03*
X0289646Y0068691D03*
X0289646Y0060817D03*
X0292008Y0053337D03*
X0296339Y0047431D03*
X0303031Y0043100D03*
X0310906Y0041919D03*
X0319567Y0041919D03*
X0327441Y0041919D03*
X0334921Y0041919D03*
X0342402Y0041919D03*
X0349094Y0041919D03*
X0355787Y0041919D03*
X0361299Y0043888D03*
X0365236Y0047431D03*
X0368386Y0052549D03*
X0384528Y0046250D03*
X0386102Y0053337D03*
X0386496Y0060817D03*
X0386496Y0067904D03*
X0393583Y0065935D03*
X0393189Y0078533D03*
X0384528Y0075384D03*
X0384134Y0084439D03*
X0380197Y0088376D03*
X0374685Y0091526D03*
X0371535Y0096250D03*
X0367598Y0101762D03*
X0363268Y0108455D03*
X0358937Y0114360D03*
X0355787Y0119085D03*
X0362874Y0123415D03*
X0366811Y0127352D03*
X0366811Y0136014D03*
X0358937Y0135620D03*
X0351457Y0136407D03*
X0352244Y0128140D03*
X0338071Y0127352D03*
X0338465Y0133652D03*
X0336496Y0137982D03*
X0327835Y0123415D03*
X0336496Y0119085D03*
X0338465Y0112785D03*
X0342795Y0108061D03*
X0346339Y0102549D03*
X0350276Y0097037D03*
X0353031Y0091132D03*
X0344764Y0089163D03*
X0337283Y0089163D03*
X0327441Y0106486D03*
X0306181Y0106486D03*
X0279803Y0130108D03*
X0271535Y0135620D03*
X0280197Y0140344D03*
X0280197Y0149006D03*
X0280197Y0156880D03*
X0280197Y0164754D03*
X0277441Y0172628D03*
X0269567Y0176565D03*
X0260118Y0176565D03*
X0250669Y0176565D03*
X0241614Y0176565D03*
X0232953Y0176565D03*
X0231772Y0168691D03*
X0223898Y0169872D03*
X0223504Y0158455D03*
X0231772Y0157667D03*
X0223898Y0149793D03*
X0231772Y0144281D03*
X0223898Y0137195D03*
X0231772Y0132470D03*
X0223898Y0125384D03*
X0231772Y0121841D03*
X0223898Y0113573D03*
X0231772Y0111211D03*
X0232165Y0102549D03*
X0227047Y0096644D03*
X0223898Y0101762D03*
X0234921Y0094281D03*
X0243189Y0094281D03*
X0252244Y0094281D03*
X0246339Y0102156D03*
X0250276Y0106880D03*
X0258150Y0102549D03*
X0268386Y0102549D03*
X0268386Y0094281D03*
X0272717Y0092707D03*
X0262480Y0094281D03*
X0272717Y0083652D03*
X0272323Y0074596D03*
X0272323Y0066722D03*
X0272323Y0058848D03*
X0273898Y0051368D03*
X0277047Y0044281D03*
X0280984Y0038376D03*
X0286102Y0033258D03*
X0292402Y0028927D03*
X0300276Y0025778D03*
X0308937Y0024596D03*
X0317205Y0024596D03*
X0324685Y0024596D03*
X0331772Y0024596D03*
X0340039Y0024596D03*
X0347913Y0024596D03*
X0356181Y0024596D03*
X0364055Y0026171D03*
X0370748Y0029321D03*
X0377047Y0034045D03*
X0381378Y0039557D03*
X0393583Y0038967D03*
X0393189Y0028337D03*
X0393189Y0016526D03*
X0379409Y0016526D03*
X0366024Y0016132D03*
X0351063Y0016329D03*
X0332559Y0015935D03*
X0316811Y0015935D03*
X0299094Y0015935D03*
X0283346Y0015935D03*
X0263661Y0015935D03*
X0247913Y0015935D03*
X0230197Y0015935D03*
X0214449Y0015935D03*
X0198701Y0015935D03*
X0198701Y0029715D03*
X0198701Y0043888D03*
X0198701Y0057667D03*
X0198701Y0070266D03*
X0198701Y0084439D03*
X0212087Y0086407D03*
X0198701Y0097037D03*
X0198701Y0107667D03*
X0212087Y0111998D03*
X0198701Y0121447D03*
X0198701Y0131683D03*
X0198701Y0141526D03*
X0198701Y0149793D03*
X0202638Y0158455D03*
X0203819Y0167116D03*
X0199094Y0191132D03*
X0199094Y0195463D03*
X0205394Y0201762D03*
X0212874Y0201762D03*
X0223110Y0201762D03*
X0225079Y0192707D03*
X0217205Y0192707D03*
X0208543Y0192313D03*
X0235512Y0193494D03*
X0238071Y0199990D03*
X0244567Y0193494D03*
X0254606Y0193494D03*
X0263661Y0193494D03*
X0262480Y0202549D03*
X0269961Y0202156D03*
X0273110Y0193100D03*
X0266811Y0211998D03*
X0252441Y0201762D03*
X0299488Y0213967D03*
X0308543Y0213967D03*
X0315630Y0211604D03*
X0319567Y0215541D03*
X0323898Y0220659D03*
X0329016Y0226171D03*
X0334528Y0231683D03*
X0334528Y0239557D03*
X0343189Y0236407D03*
X0343189Y0227746D03*
X0342402Y0218691D03*
X0335709Y0217510D03*
X0333346Y0206093D03*
X0333346Y0196250D03*
X0341220Y0192313D03*
X0341220Y0184439D03*
X0337283Y0178533D03*
X0342008Y0171447D03*
X0342402Y0165541D03*
X0342402Y0158848D03*
X0333740Y0155699D03*
X0322323Y0154911D03*
X0318386Y0149793D03*
X0317598Y0139951D03*
X0314449Y0169085D03*
X0314843Y0202943D03*
X0360906Y0200581D03*
X0360906Y0192313D03*
X0360906Y0183652D03*
X0360512Y0176171D03*
X0368780Y0171841D03*
X0377047Y0165935D03*
X0368780Y0162785D03*
X0368780Y0154911D03*
X0376654Y0155305D03*
X0376654Y0147825D03*
X0368780Y0147825D03*
X0359331Y0154911D03*
X0359724Y0161211D03*
X0359331Y0167510D03*
X0376260Y0180108D03*
X0382559Y0187982D03*
X0392008Y0187785D03*
X0392008Y0199203D03*
X0382559Y0199006D03*
X0382165Y0210030D03*
X0392008Y0210226D03*
X0392008Y0221644D03*
X0382165Y0221447D03*
X0382165Y0234045D03*
X0392008Y0234242D03*
X0392008Y0246053D03*
X0382165Y0245856D03*
X0380984Y0257667D03*
X0371732Y0261014D03*
X0358543Y0256486D03*
X0355394Y0262982D03*
X0351457Y0266526D03*
X0357756Y0268888D03*
X0361102Y0272825D03*
X0370354Y0281880D03*
X0381772Y0281880D03*
X0380984Y0272234D03*
X0392402Y0272037D03*
X0393583Y0282077D03*
X0392795Y0257864D03*
X0360118Y0248415D03*
X0360118Y0239951D03*
X0360118Y0231683D03*
X0360118Y0224203D03*
X0360906Y0216329D03*
X0360906Y0208455D03*
X0343189Y0244281D03*
X0339843Y0251171D03*
X0334528Y0247431D03*
X0306181Y0251368D03*
X0289252Y0253730D03*
X0289252Y0258848D03*
X0289252Y0266722D03*
X0311693Y0278533D03*
X0313661Y0283258D03*
X0318780Y0291132D03*
X0303819Y0292313D03*
X0282165Y0301368D03*
X0273110Y0310030D03*
X0349094Y0291132D03*
X0353031Y0283258D03*
X0255394Y0156486D03*
X0260512Y0139951D03*
X0250669Y0137195D03*
X0258543Y0129321D03*
X0247913Y0127352D03*
X0247913Y0117510D03*
X0258543Y0113573D03*
X0268386Y0113573D03*
X0274291Y0119478D03*
X0251063Y0068691D03*
X0252244Y0044281D03*
X0223504Y0044281D03*
X0223504Y0068691D03*
X0212087Y0137982D03*
X0149488Y0183258D03*
X0141614Y0172628D03*
X0134134Y0172628D03*
X0128228Y0172628D03*
X0116417Y0167510D03*
X0116024Y0177746D03*
X0128228Y0205305D03*
X0121929Y0215935D03*
X0092008Y0208848D03*
X0087283Y0254518D03*
X0057756Y0262392D03*
X0048701Y0267510D03*
X0023898Y0260817D03*
X0018386Y0277746D03*
X0029803Y0241526D03*
X0048307Y0154911D03*
X0053031Y0142707D03*
X0067205Y0154911D03*
X0080591Y0128927D03*
X0108937Y0124203D03*
X0125866Y0108455D03*
X0132165Y0095856D03*
X0099488Y0088770D03*
X0099488Y0084045D03*
X0092795Y0103337D03*
X0058937Y0078927D03*
X0043976Y0080108D03*
X0053031Y0103337D03*
X0053031Y0119478D03*
X0106969Y0058455D03*
X0171929Y0211998D03*
X0338465Y0071841D03*
X0347913Y0071841D03*
X0357756Y0069478D03*
X0367598Y0069478D03*
X0344370Y0054911D03*
X0316417Y0054518D03*
X0379409Y0108455D03*
X0393189Y0111801D03*
X0393583Y0102156D03*
X0393583Y0091132D03*
X0393583Y0051565D03*
X0355394Y0148219D03*
D24*
X0307550Y0220659D02*
X0288858Y0220659D01*
X0288858Y0255592D01*
X0289562Y0254889D01*
X0290510Y0254496D01*
X0293563Y0254496D01*
X0293563Y0254371D01*
X0294607Y0253327D01*
X0300413Y0253327D01*
X0301456Y0254371D01*
X0301456Y0259783D01*
X0300413Y0260826D01*
X0299777Y0260826D01*
X0299777Y0261730D01*
X0300689Y0260817D01*
X0306251Y0260817D01*
X0317773Y0249295D01*
X0317773Y0246948D01*
X0317313Y0246948D01*
X0316870Y0246505D01*
X0316427Y0246948D01*
X0316043Y0246948D01*
X0316043Y0248417D01*
X0314648Y0249812D01*
X0310711Y0253749D01*
X0308285Y0253749D01*
X0307978Y0254057D01*
X0306812Y0254540D01*
X0305550Y0254540D01*
X0304384Y0254057D01*
X0303492Y0253165D01*
X0303009Y0251999D01*
X0303009Y0250737D01*
X0303492Y0249572D01*
X0304384Y0248679D01*
X0305550Y0248196D01*
X0306812Y0248196D01*
X0307978Y0248679D01*
X0308285Y0248987D01*
X0308738Y0248987D01*
X0310777Y0246948D01*
X0310621Y0246948D01*
X0309577Y0245905D01*
X0309577Y0240493D01*
X0310621Y0239449D01*
X0316427Y0239449D01*
X0316870Y0239893D01*
X0317313Y0239449D01*
X0323120Y0239449D01*
X0324163Y0240493D01*
X0324163Y0245905D01*
X0323120Y0246948D01*
X0322935Y0246948D01*
X0322935Y0250878D01*
X0322542Y0251826D01*
X0309507Y0264861D01*
X0309507Y0266399D01*
X0313852Y0270743D01*
X0313910Y0270884D01*
X0314203Y0270591D01*
X0320009Y0270591D01*
X0321053Y0271634D01*
X0321053Y0277047D01*
X0320009Y0278090D01*
X0314865Y0278090D01*
X0314865Y0279164D01*
X0314466Y0280126D01*
X0314522Y0280181D01*
X0315458Y0280569D01*
X0316350Y0281461D01*
X0316738Y0282397D01*
X0322323Y0287982D01*
X0324085Y0287982D01*
X0324085Y0287638D01*
X0325128Y0286595D01*
X0332903Y0286595D01*
X0333946Y0287638D01*
X0333946Y0287982D01*
X0348410Y0287982D01*
X0348464Y0287960D01*
X0349725Y0287960D01*
X0349779Y0287982D01*
X0352244Y0287982D01*
X0352244Y0286365D01*
X0351235Y0285947D01*
X0350343Y0285054D01*
X0349860Y0283889D01*
X0349860Y0282627D01*
X0350343Y0281461D01*
X0351235Y0280569D01*
X0352244Y0280151D01*
X0352244Y0273022D01*
X0350669Y0271447D01*
X0332165Y0271447D01*
X0332165Y0271053D01*
X0327047Y0265935D01*
X0327047Y0232864D01*
X0316230Y0222047D01*
X0316230Y0226515D01*
X0315187Y0227559D01*
X0308593Y0227559D01*
X0307550Y0226515D01*
X0307550Y0220659D01*
X0307550Y0221361D02*
X0288858Y0221361D01*
X0288858Y0222560D02*
X0307550Y0222560D01*
X0307550Y0223758D02*
X0288858Y0223758D01*
X0288858Y0224957D02*
X0307550Y0224957D01*
X0307550Y0226155D02*
X0298251Y0226155D01*
X0298061Y0225965D02*
X0299104Y0227008D01*
X0299104Y0233602D01*
X0298061Y0234645D01*
X0297073Y0234645D01*
X0297542Y0235777D01*
X0297542Y0237038D01*
X0297059Y0238204D01*
X0296167Y0239096D01*
X0295001Y0239579D01*
X0293739Y0239579D01*
X0292573Y0239096D01*
X0291681Y0238204D01*
X0291198Y0237038D01*
X0291198Y0235777D01*
X0291667Y0234645D01*
X0290680Y0234645D01*
X0289636Y0233602D01*
X0289636Y0227008D01*
X0290680Y0225965D01*
X0298061Y0225965D01*
X0299104Y0227354D02*
X0308388Y0227354D01*
X0315391Y0227354D02*
X0321537Y0227354D01*
X0322735Y0228552D02*
X0299104Y0228552D01*
X0299104Y0229751D02*
X0323934Y0229751D01*
X0325132Y0230949D02*
X0299104Y0230949D01*
X0299104Y0232148D02*
X0326331Y0232148D01*
X0327047Y0233346D02*
X0299104Y0233346D01*
X0298161Y0234545D02*
X0327047Y0234545D01*
X0327047Y0235743D02*
X0297528Y0235743D01*
X0297542Y0236942D02*
X0327047Y0236942D01*
X0327047Y0238140D02*
X0297085Y0238140D01*
X0295581Y0239339D02*
X0327047Y0239339D01*
X0327047Y0240537D02*
X0324163Y0240537D01*
X0324163Y0241736D02*
X0327047Y0241736D01*
X0327047Y0242934D02*
X0324163Y0242934D01*
X0324163Y0244133D02*
X0327047Y0244133D01*
X0327047Y0245331D02*
X0324163Y0245331D01*
X0323538Y0246530D02*
X0327047Y0246530D01*
X0327047Y0247728D02*
X0322935Y0247728D01*
X0322935Y0248927D02*
X0327047Y0248927D01*
X0327047Y0250125D02*
X0322935Y0250125D01*
X0322751Y0251324D02*
X0327047Y0251324D01*
X0327047Y0252523D02*
X0321846Y0252523D01*
X0320648Y0253721D02*
X0327047Y0253721D01*
X0327047Y0254920D02*
X0319449Y0254920D01*
X0318251Y0256118D02*
X0327047Y0256118D01*
X0327047Y0257317D02*
X0317052Y0257317D01*
X0315854Y0258515D02*
X0327047Y0258515D01*
X0327047Y0259714D02*
X0314655Y0259714D01*
X0313457Y0260912D02*
X0327047Y0260912D01*
X0327047Y0262111D02*
X0312258Y0262111D01*
X0311060Y0263309D02*
X0327047Y0263309D01*
X0327047Y0264508D02*
X0309861Y0264508D01*
X0309507Y0265706D02*
X0327047Y0265706D01*
X0328017Y0266905D02*
X0310014Y0266905D01*
X0311212Y0268103D02*
X0329215Y0268103D01*
X0330414Y0269302D02*
X0312411Y0269302D01*
X0313609Y0270500D02*
X0331612Y0270500D01*
X0321053Y0271699D02*
X0350921Y0271699D01*
X0352120Y0272897D02*
X0321053Y0272897D01*
X0321053Y0274096D02*
X0352244Y0274096D01*
X0352244Y0275294D02*
X0321053Y0275294D01*
X0321053Y0276493D02*
X0352244Y0276493D01*
X0352244Y0277691D02*
X0320408Y0277691D01*
X0316176Y0281287D02*
X0350517Y0281287D01*
X0349919Y0282485D02*
X0316826Y0282485D01*
X0318024Y0283684D02*
X0349860Y0283684D01*
X0350271Y0284882D02*
X0319223Y0284882D01*
X0320421Y0286081D02*
X0351559Y0286081D01*
X0352244Y0287279D02*
X0333588Y0287279D01*
X0324444Y0287279D02*
X0321620Y0287279D01*
X0314482Y0280088D02*
X0352244Y0280088D01*
X0352244Y0278890D02*
X0314865Y0278890D01*
X0300595Y0260912D02*
X0299777Y0260912D01*
X0301456Y0259714D02*
X0307355Y0259714D01*
X0308553Y0258515D02*
X0301456Y0258515D01*
X0301456Y0257317D02*
X0309752Y0257317D01*
X0310950Y0256118D02*
X0301456Y0256118D01*
X0301456Y0254920D02*
X0312149Y0254920D01*
X0313347Y0253721D02*
X0310739Y0253721D01*
X0311937Y0252523D02*
X0314546Y0252523D01*
X0315744Y0251324D02*
X0313136Y0251324D01*
X0314334Y0250125D02*
X0316943Y0250125D01*
X0317773Y0248927D02*
X0315533Y0248927D01*
X0316043Y0247728D02*
X0317773Y0247728D01*
X0316895Y0246530D02*
X0316845Y0246530D01*
X0313661Y0247431D02*
X0313661Y0243337D01*
X0313524Y0243199D01*
X0309577Y0242934D02*
X0288858Y0242934D01*
X0289252Y0243494D02*
X0289252Y0253730D01*
X0288858Y0253721D02*
X0294213Y0253721D01*
X0289531Y0254920D02*
X0288858Y0254920D01*
X0288858Y0252523D02*
X0303226Y0252523D01*
X0303009Y0251324D02*
X0288858Y0251324D01*
X0288858Y0250125D02*
X0303263Y0250125D01*
X0304137Y0248927D02*
X0288858Y0248927D01*
X0288858Y0247728D02*
X0309997Y0247728D01*
X0310202Y0246530D02*
X0288858Y0246530D01*
X0288858Y0245331D02*
X0309577Y0245331D01*
X0309577Y0244133D02*
X0288858Y0244133D01*
X0288858Y0241736D02*
X0309577Y0241736D01*
X0309577Y0240537D02*
X0288858Y0240537D01*
X0288858Y0239339D02*
X0293159Y0239339D01*
X0291655Y0238140D02*
X0288858Y0238140D01*
X0288858Y0236942D02*
X0291198Y0236942D01*
X0291212Y0235743D02*
X0288858Y0235743D01*
X0288858Y0234545D02*
X0290579Y0234545D01*
X0289636Y0233346D02*
X0288858Y0233346D01*
X0288858Y0232148D02*
X0289636Y0232148D01*
X0289636Y0230949D02*
X0288858Y0230949D01*
X0288858Y0229751D02*
X0289636Y0229751D01*
X0289636Y0228552D02*
X0288858Y0228552D01*
X0288858Y0227354D02*
X0289636Y0227354D01*
X0288858Y0226155D02*
X0290489Y0226155D01*
X0294370Y0230305D02*
X0294370Y0236407D01*
X0283346Y0228533D02*
X0266811Y0211998D01*
X0283346Y0228533D02*
X0283346Y0264754D01*
X0285315Y0266722D01*
X0289252Y0266722D01*
X0289252Y0280423D01*
X0289252Y0258848D02*
X0289843Y0258258D01*
X0300807Y0253721D02*
X0304049Y0253721D01*
X0306181Y0251368D02*
X0309724Y0251368D01*
X0313661Y0247431D01*
X0320354Y0245256D02*
X0320354Y0243337D01*
X0308798Y0248927D02*
X0308225Y0248927D01*
X0316230Y0226155D02*
X0320338Y0226155D01*
X0319140Y0224957D02*
X0316230Y0224957D01*
X0316230Y0223758D02*
X0317941Y0223758D01*
X0316743Y0222560D02*
X0316230Y0222560D01*
X0233346Y0211801D02*
X0171732Y0211801D01*
X0156181Y0183258D02*
X0149488Y0183258D01*
X0146732Y0183258D01*
X0146732Y0175581D01*
X0146732Y0168888D02*
X0146732Y0167510D01*
X0146732Y0168691D02*
X0146732Y0168888D01*
X0156181Y0178533D02*
X0156181Y0183258D01*
X0146732Y0183258D02*
X0141024Y0183258D01*
X0125472Y0202549D02*
X0122913Y0202549D01*
X0122717Y0202746D01*
X0122520Y0202549D01*
X0119173Y0202549D01*
X0118386Y0201762D01*
X0118386Y0198219D01*
X0117598Y0197431D01*
X0111693Y0197431D01*
X0111693Y0208455D02*
X0112677Y0209439D01*
X0122717Y0209439D01*
X0121929Y0210226D01*
X0121929Y0215935D01*
X0120945Y0216919D01*
X0120945Y0222234D01*
X0128228Y0205305D02*
X0125472Y0202549D01*
X0110315Y0182077D02*
X0110315Y0177746D01*
X0116024Y0177746D01*
X0110315Y0177746D02*
X0110315Y0174596D01*
X0110118Y0174400D01*
X0102638Y0181880D02*
X0102835Y0182077D01*
X0097913Y0222234D02*
X0097126Y0223022D01*
X0057756Y0257667D02*
X0042008Y0241919D01*
X0042008Y0233179D01*
X0029803Y0241526D02*
X0036496Y0248219D01*
X0036496Y0254518D01*
X0047126Y0254518D01*
X0048701Y0256093D01*
X0048701Y0267510D01*
X0057756Y0262392D02*
X0057756Y0257667D01*
X0036496Y0254518D02*
X0024685Y0254518D01*
X0023898Y0255305D01*
X0023898Y0260817D01*
X0018386Y0277746D02*
X0018386Y0236801D01*
X0022008Y0233179D01*
X0203425Y0167510D02*
X0203819Y0167116D01*
D25*
X0008150Y0099379D02*
X0008150Y0015541D01*
X0190039Y0015541D01*
X0190039Y0121609D01*
X0188741Y0121609D01*
X0188741Y0126879D01*
X0188582Y0126879D01*
X0188582Y0121609D01*
X0185813Y0121609D01*
X0185253Y0121759D01*
X0184752Y0122049D01*
X0184342Y0122458D01*
X0184052Y0122960D01*
X0183902Y0123519D01*
X0183902Y0126879D01*
X0188582Y0126879D01*
X0188582Y0127038D01*
X0183902Y0127038D01*
X0183902Y0130398D01*
X0184052Y0130957D01*
X0184342Y0131459D01*
X0184369Y0131486D01*
X0184342Y0131513D01*
X0184052Y0132015D01*
X0183902Y0132575D01*
X0183902Y0135934D01*
X0188582Y0135934D01*
X0188741Y0135934D01*
X0188741Y0130664D01*
X0188741Y0127038D01*
X0188582Y0127038D01*
X0188582Y0135934D01*
X0188582Y0136093D01*
X0183902Y0136093D01*
X0183902Y0139453D01*
X0184052Y0140013D01*
X0184342Y0140514D01*
X0184752Y0140924D01*
X0185253Y0141213D01*
X0185813Y0141363D01*
X0188582Y0141363D01*
X0188582Y0136093D01*
X0188741Y0136093D01*
X0188741Y0141363D01*
X0190039Y0141363D01*
X0190039Y0152911D01*
X0158148Y0152911D01*
X0156689Y0153516D01*
X0155573Y0154632D01*
X0152817Y0157388D01*
X0152213Y0158846D01*
X0152213Y0161192D01*
X0152082Y0161192D01*
X0152082Y0160011D01*
X0147107Y0160011D01*
X0147107Y0159261D01*
X0147107Y0153893D01*
X0150172Y0153893D01*
X0150731Y0154042D01*
X0151233Y0154332D01*
X0151642Y0154742D01*
X0151932Y0155243D01*
X0152082Y0155803D01*
X0152082Y0159261D01*
X0147107Y0159261D01*
X0146357Y0159261D01*
X0146357Y0153893D01*
X0143293Y0153893D01*
X0142734Y0154042D01*
X0142232Y0154332D01*
X0141822Y0154742D01*
X0141768Y0154836D01*
X0141544Y0154298D01*
X0140653Y0153406D01*
X0139489Y0152924D01*
X0131929Y0152924D01*
X0130764Y0153406D01*
X0130763Y0153408D01*
X0130018Y0152663D01*
X0128902Y0151547D01*
X0127443Y0150943D01*
X0077941Y0150943D01*
X0078066Y0150477D01*
X0078066Y0147538D01*
X0078529Y0147663D01*
X0081692Y0147663D01*
X0081692Y0142983D01*
X0081851Y0142983D01*
X0081851Y0147663D01*
X0085014Y0147663D01*
X0085574Y0147513D01*
X0086075Y0147223D01*
X0086485Y0146813D01*
X0086774Y0146312D01*
X0086924Y0145752D01*
X0086924Y0142983D01*
X0081851Y0142983D01*
X0081851Y0142824D01*
X0086924Y0142824D01*
X0086924Y0140263D01*
X0087411Y0139777D01*
X0087652Y0139195D01*
X0097522Y0139195D01*
X0098980Y0138591D01*
X0100097Y0137474D01*
X0105069Y0132502D01*
X0115444Y0132502D01*
X0116476Y0133533D01*
X0114857Y0135153D01*
X0113948Y0137346D01*
X0113948Y0139721D01*
X0114857Y0141914D01*
X0116536Y0143593D01*
X0118729Y0144502D01*
X0126704Y0144502D01*
X0128897Y0143593D01*
X0130576Y0141914D01*
X0131485Y0139721D01*
X0131485Y0137346D01*
X0130576Y0135153D01*
X0128957Y0133533D01*
X0130576Y0131914D01*
X0131485Y0129721D01*
X0131485Y0127346D01*
X0130576Y0125153D01*
X0128957Y0123533D01*
X0130107Y0122384D01*
X0133948Y0122384D01*
X0135040Y0123475D01*
X0136178Y0123947D01*
X0135800Y0124139D01*
X0135163Y0124602D01*
X0134607Y0125158D01*
X0134144Y0125795D01*
X0133787Y0126496D01*
X0133544Y0127245D01*
X0133420Y0128022D01*
X0133420Y0128415D01*
X0141220Y0128415D01*
X0141220Y0128415D01*
X0133420Y0128415D01*
X0133420Y0128809D01*
X0133544Y0129586D01*
X0133787Y0130335D01*
X0134144Y0131036D01*
X0134607Y0131673D01*
X0135163Y0132229D01*
X0135800Y0132692D01*
X0136501Y0133049D01*
X0137250Y0133292D01*
X0138027Y0133415D01*
X0141220Y0133415D01*
X0141220Y0128415D01*
X0141221Y0128415D01*
X0141221Y0128415D01*
X0149020Y0128415D01*
X0149020Y0128022D01*
X0148897Y0127245D01*
X0148654Y0126496D01*
X0148297Y0125795D01*
X0147834Y0125158D01*
X0147278Y0124602D01*
X0146641Y0124139D01*
X0146263Y0123947D01*
X0147401Y0123475D01*
X0149080Y0121796D01*
X0149989Y0119603D01*
X0149989Y0117228D01*
X0149080Y0115034D01*
X0147401Y0113355D01*
X0145208Y0112447D01*
X0137233Y0112447D01*
X0135040Y0113355D01*
X0133948Y0114447D01*
X0129871Y0114447D01*
X0128897Y0113474D01*
X0126704Y0112565D01*
X0118729Y0112565D01*
X0116536Y0113474D01*
X0114857Y0115153D01*
X0113948Y0117346D01*
X0113948Y0119721D01*
X0114857Y0121914D01*
X0116476Y0123533D01*
X0115444Y0124565D01*
X0102636Y0124565D01*
X0101177Y0125169D01*
X0095088Y0131258D01*
X0087489Y0131258D01*
X0087411Y0131069D01*
X0086519Y0130178D01*
X0085355Y0129696D01*
X0085150Y0129696D01*
X0085150Y0128020D01*
X0084456Y0126345D01*
X0083173Y0125062D01*
X0081497Y0124368D01*
X0079684Y0124368D01*
X0078008Y0125062D01*
X0076726Y0126345D01*
X0076031Y0128020D01*
X0076031Y0129696D01*
X0068149Y0129696D01*
X0066985Y0130178D01*
X0066441Y0130721D01*
X0065866Y0130483D01*
X0060669Y0130483D01*
X0059504Y0130965D01*
X0058613Y0131857D01*
X0058131Y0133021D01*
X0058131Y0138613D01*
X0058613Y0139777D01*
X0059099Y0140263D01*
X0059099Y0142510D01*
X0063268Y0142510D01*
X0063268Y0142510D01*
X0063268Y0146875D01*
X0065526Y0146875D01*
X0066085Y0146725D01*
X0066580Y0146440D01*
X0066580Y0146663D01*
X0071948Y0146663D01*
X0071948Y0147412D01*
X0066580Y0147412D01*
X0066580Y0150352D01*
X0066298Y0150352D01*
X0064622Y0151046D01*
X0063340Y0152329D01*
X0062646Y0154005D01*
X0062646Y0155818D01*
X0063340Y0157494D01*
X0064622Y0158776D01*
X0066298Y0159470D01*
X0068112Y0159470D01*
X0069537Y0158880D01*
X0117367Y0158880D01*
X0117367Y0159636D01*
X0121732Y0159636D01*
X0121732Y0159636D01*
X0121732Y0163804D01*
X0119277Y0163804D01*
X0118718Y0163654D01*
X0118216Y0163365D01*
X0117806Y0162955D01*
X0117517Y0162453D01*
X0117367Y0161894D01*
X0117367Y0159636D01*
X0121732Y0159636D01*
X0121732Y0159636D01*
X0121732Y0163804D01*
X0123979Y0163804D01*
X0124260Y0164085D01*
X0124260Y0170295D01*
X0123669Y0171721D01*
X0123669Y0173535D01*
X0124363Y0175210D01*
X0125646Y0176493D01*
X0127321Y0177187D01*
X0129135Y0177187D01*
X0130165Y0176760D01*
X0130165Y0177215D01*
X0129189Y0177619D01*
X0128298Y0178510D01*
X0127816Y0179675D01*
X0127816Y0186841D01*
X0128298Y0188005D01*
X0129189Y0188897D01*
X0130354Y0189379D01*
X0136733Y0189379D01*
X0137283Y0189151D01*
X0137834Y0189379D01*
X0144213Y0189379D01*
X0145377Y0188897D01*
X0146269Y0188005D01*
X0146674Y0187026D01*
X0146809Y0187026D01*
X0146906Y0187123D01*
X0148581Y0187817D01*
X0150395Y0187817D01*
X0152071Y0187123D01*
X0152167Y0187026D01*
X0156931Y0187026D01*
X0158316Y0186453D01*
X0159376Y0185393D01*
X0159600Y0184852D01*
X0160355Y0184852D01*
X0161519Y0184369D01*
X0162411Y0183478D01*
X0162893Y0182313D01*
X0162893Y0174754D01*
X0162411Y0173589D01*
X0161843Y0173022D01*
X0162411Y0172454D01*
X0162893Y0171290D01*
X0162893Y0163730D01*
X0162411Y0162565D01*
X0161519Y0161674D01*
X0160355Y0161192D01*
X0160237Y0161192D01*
X0160581Y0160848D01*
X0190039Y0160848D01*
X0190039Y0202156D01*
X0198307Y0210423D01*
X0227997Y0210423D01*
X0227997Y0211722D01*
X0233267Y0211722D01*
X0233267Y0211881D01*
X0233267Y0216560D01*
X0229907Y0216560D01*
X0229348Y0216410D01*
X0228846Y0216121D01*
X0228436Y0215711D01*
X0228147Y0215209D01*
X0227997Y0214650D01*
X0227997Y0211881D01*
X0233267Y0211881D01*
X0233426Y0211881D01*
X0233426Y0216560D01*
X0236786Y0216560D01*
X0237345Y0216410D01*
X0237847Y0216121D01*
X0237874Y0216094D01*
X0237901Y0216121D01*
X0238403Y0216410D01*
X0238962Y0216560D01*
X0242322Y0216560D01*
X0242322Y0211881D01*
X0242481Y0211881D01*
X0242481Y0216560D01*
X0245841Y0216560D01*
X0246400Y0216410D01*
X0246902Y0216121D01*
X0247312Y0215711D01*
X0247601Y0215209D01*
X0247751Y0214650D01*
X0247751Y0211881D01*
X0242481Y0211881D01*
X0242481Y0211722D01*
X0247751Y0211722D01*
X0247751Y0210423D01*
X0262529Y0210423D01*
X0262252Y0211091D01*
X0262252Y0212905D01*
X0262946Y0214581D01*
X0264229Y0215863D01*
X0265904Y0216557D01*
X0266041Y0216557D01*
X0273667Y0224183D01*
X0270887Y0224183D01*
X0267185Y0227885D01*
X0267185Y0233119D01*
X0270887Y0236820D01*
X0276121Y0236820D01*
X0279578Y0233364D01*
X0279578Y0265504D01*
X0280152Y0266889D01*
X0281212Y0267949D01*
X0281378Y0268115D01*
X0281378Y0276405D01*
X0281320Y0276463D01*
X0280837Y0277628D01*
X0280837Y0283219D01*
X0281320Y0284383D01*
X0281378Y0284442D01*
X0281378Y0320659D01*
X0008150Y0320659D01*
X0008150Y0300562D01*
X0008627Y0301039D01*
X0010821Y0301948D01*
X0013195Y0301948D01*
X0015389Y0301039D01*
X0017008Y0299420D01*
X0018039Y0300451D01*
X0018039Y0302245D01*
X0016830Y0303455D01*
X0015921Y0305649D01*
X0015921Y0313623D01*
X0016830Y0315817D01*
X0018509Y0317496D01*
X0020703Y0318404D01*
X0023077Y0318404D01*
X0025271Y0317496D01*
X0026890Y0315877D01*
X0028509Y0317496D01*
X0030703Y0318404D01*
X0033077Y0318404D01*
X0035271Y0317496D01*
X0036890Y0315877D01*
X0038509Y0317496D01*
X0040703Y0318404D01*
X0043077Y0318404D01*
X0045271Y0317496D01*
X0046890Y0315877D01*
X0048509Y0317496D01*
X0050703Y0318404D01*
X0053077Y0318404D01*
X0055271Y0317496D01*
X0056909Y0315857D01*
X0058548Y0317496D01*
X0060742Y0318404D01*
X0063116Y0318404D01*
X0065310Y0317496D01*
X0066929Y0315877D01*
X0068548Y0317496D01*
X0070742Y0318404D01*
X0073116Y0318404D01*
X0075310Y0317496D01*
X0076929Y0315877D01*
X0078548Y0317496D01*
X0080742Y0318404D01*
X0083116Y0318404D01*
X0085310Y0317496D01*
X0086949Y0315857D01*
X0088588Y0317496D01*
X0090781Y0318404D01*
X0093156Y0318404D01*
X0095349Y0317496D01*
X0096968Y0315877D01*
X0098588Y0317496D01*
X0100781Y0318404D01*
X0103156Y0318404D01*
X0105349Y0317496D01*
X0106968Y0315877D01*
X0108588Y0317496D01*
X0110781Y0318404D01*
X0113156Y0318404D01*
X0115349Y0317496D01*
X0116968Y0315877D01*
X0118588Y0317496D01*
X0120781Y0318404D01*
X0123156Y0318404D01*
X0125349Y0317496D01*
X0127028Y0315817D01*
X0127047Y0315771D01*
X0127066Y0315817D01*
X0128745Y0317496D01*
X0130939Y0318404D01*
X0133313Y0318404D01*
X0135507Y0317496D01*
X0137126Y0315877D01*
X0138745Y0317496D01*
X0140939Y0318404D01*
X0143313Y0318404D01*
X0145507Y0317496D01*
X0147126Y0315877D01*
X0148745Y0317496D01*
X0150939Y0318404D01*
X0153313Y0318404D01*
X0155507Y0317496D01*
X0157126Y0315877D01*
X0158745Y0317496D01*
X0160939Y0318404D01*
X0163313Y0318404D01*
X0165507Y0317496D01*
X0167087Y0315916D01*
X0168666Y0317496D01*
X0170860Y0318404D01*
X0173234Y0318404D01*
X0175428Y0317496D01*
X0177047Y0315877D01*
X0178666Y0317496D01*
X0180860Y0318404D01*
X0183234Y0318404D01*
X0185428Y0317496D01*
X0187107Y0315817D01*
X0187543Y0314764D01*
X0187692Y0315056D01*
X0188155Y0315693D01*
X0188711Y0316250D01*
X0189348Y0316712D01*
X0190049Y0317070D01*
X0190798Y0317313D01*
X0191575Y0317436D01*
X0191968Y0317436D01*
X0191968Y0309636D01*
X0191969Y0309636D01*
X0196968Y0309636D01*
X0196968Y0312829D01*
X0196845Y0313607D01*
X0196602Y0314355D01*
X0196245Y0315056D01*
X0195782Y0315693D01*
X0195226Y0316250D01*
X0194589Y0316712D01*
X0193888Y0317070D01*
X0193139Y0317313D01*
X0192362Y0317436D01*
X0191969Y0317436D01*
X0191969Y0309636D01*
X0191969Y0309636D01*
X0196968Y0309636D01*
X0196969Y0309636D02*
X0201968Y0309636D01*
X0201968Y0309636D01*
X0201968Y0317436D01*
X0201575Y0317436D01*
X0200798Y0317313D01*
X0200049Y0317070D01*
X0199348Y0316712D01*
X0198711Y0316250D01*
X0198155Y0315693D01*
X0197692Y0315056D01*
X0197335Y0314355D01*
X0197092Y0313607D01*
X0196969Y0312829D01*
X0196969Y0309636D01*
X0196969Y0306442D01*
X0197092Y0305665D01*
X0197335Y0304916D01*
X0197692Y0304215D01*
X0198155Y0303579D01*
X0198711Y0303022D01*
X0199348Y0302559D01*
X0200049Y0302202D01*
X0200798Y0301959D01*
X0200869Y0301948D01*
X0200821Y0301948D01*
X0198627Y0301039D01*
X0197008Y0299420D01*
X0195389Y0301039D01*
X0193195Y0301948D01*
X0193068Y0301948D01*
X0193139Y0301959D01*
X0193888Y0302202D01*
X0194589Y0302559D01*
X0195226Y0303022D01*
X0195782Y0303579D01*
X0196245Y0304215D01*
X0196602Y0304916D01*
X0196845Y0305665D01*
X0196968Y0306442D01*
X0196968Y0309636D01*
X0196969Y0309636D02*
X0201968Y0309636D01*
X0201969Y0309636D01*
X0201969Y0317436D01*
X0202362Y0317436D01*
X0203139Y0317313D01*
X0203888Y0317070D01*
X0204589Y0316712D01*
X0205226Y0316250D01*
X0205782Y0315693D01*
X0206245Y0315056D01*
X0206437Y0314679D01*
X0206909Y0315817D01*
X0208588Y0317496D01*
X0210781Y0318404D01*
X0213156Y0318404D01*
X0215349Y0317496D01*
X0216968Y0315877D01*
X0218588Y0317496D01*
X0220781Y0318404D01*
X0223156Y0318404D01*
X0225349Y0317496D01*
X0227028Y0315817D01*
X0227937Y0313623D01*
X0227937Y0305649D01*
X0227028Y0303455D01*
X0225349Y0301776D01*
X0224479Y0301416D01*
X0225389Y0301039D01*
X0227008Y0299420D01*
X0228627Y0301039D01*
X0230821Y0301948D01*
X0233195Y0301948D01*
X0235389Y0301039D01*
X0237008Y0299420D01*
X0238627Y0301039D01*
X0240821Y0301948D01*
X0243195Y0301948D01*
X0245389Y0301039D01*
X0247068Y0299360D01*
X0247976Y0297166D01*
X0247976Y0289192D01*
X0247068Y0286998D01*
X0245389Y0285319D01*
X0243195Y0284411D01*
X0240821Y0284411D01*
X0238627Y0285319D01*
X0237008Y0286938D01*
X0235389Y0285319D01*
X0233195Y0284411D01*
X0230821Y0284411D01*
X0228627Y0285319D01*
X0227008Y0286938D01*
X0225389Y0285319D01*
X0223195Y0284411D01*
X0220821Y0284411D01*
X0218627Y0285319D01*
X0217008Y0286938D01*
X0215389Y0285319D01*
X0213195Y0284411D01*
X0210821Y0284411D01*
X0208627Y0285319D01*
X0207008Y0286938D01*
X0205389Y0285319D01*
X0203195Y0284411D01*
X0200821Y0284411D01*
X0198627Y0285319D01*
X0197008Y0286938D01*
X0195389Y0285319D01*
X0193195Y0284411D01*
X0190821Y0284411D01*
X0188627Y0285319D01*
X0187008Y0286938D01*
X0185389Y0285319D01*
X0183195Y0284411D01*
X0180821Y0284411D01*
X0178627Y0285319D01*
X0177008Y0286938D01*
X0175389Y0285319D01*
X0173195Y0284411D01*
X0170821Y0284411D01*
X0168627Y0285319D01*
X0167008Y0286938D01*
X0165389Y0285319D01*
X0163195Y0284411D01*
X0160821Y0284411D01*
X0158627Y0285319D01*
X0157008Y0286938D01*
X0155389Y0285319D01*
X0153195Y0284411D01*
X0150821Y0284411D01*
X0148627Y0285319D01*
X0147008Y0286938D01*
X0145389Y0285319D01*
X0143195Y0284411D01*
X0140821Y0284411D01*
X0138627Y0285319D01*
X0137008Y0286938D01*
X0135389Y0285319D01*
X0133195Y0284411D01*
X0130821Y0284411D01*
X0128627Y0285319D01*
X0127008Y0286938D01*
X0125389Y0285319D01*
X0123195Y0284411D01*
X0120821Y0284411D01*
X0118627Y0285319D01*
X0117008Y0286938D01*
X0115389Y0285319D01*
X0113195Y0284411D01*
X0110821Y0284411D01*
X0108627Y0285319D01*
X0107008Y0286938D01*
X0105389Y0285319D01*
X0103195Y0284411D01*
X0100821Y0284411D01*
X0098627Y0285319D01*
X0097008Y0286938D01*
X0095389Y0285319D01*
X0093195Y0284411D01*
X0090821Y0284411D01*
X0088627Y0285319D01*
X0087008Y0286938D01*
X0085740Y0285671D01*
X0085740Y0258813D01*
X0086377Y0259077D01*
X0088190Y0259077D01*
X0089616Y0258486D01*
X0093585Y0258486D01*
X0095043Y0257882D01*
X0099374Y0253551D01*
X0100490Y0252435D01*
X0101094Y0250976D01*
X0101094Y0241948D01*
X0103195Y0241948D01*
X0105389Y0241039D01*
X0107008Y0239420D01*
X0108627Y0241039D01*
X0110821Y0241948D01*
X0113195Y0241948D01*
X0115389Y0241039D01*
X0117008Y0239420D01*
X0118627Y0241039D01*
X0120821Y0241948D01*
X0123195Y0241948D01*
X0125389Y0241039D01*
X0127008Y0239420D01*
X0128627Y0241039D01*
X0130821Y0241948D01*
X0133195Y0241948D01*
X0135389Y0241039D01*
X0137008Y0239420D01*
X0138627Y0241039D01*
X0140821Y0241948D01*
X0143195Y0241948D01*
X0145389Y0241039D01*
X0147008Y0239420D01*
X0148627Y0241039D01*
X0150821Y0241948D01*
X0153195Y0241948D01*
X0155389Y0241039D01*
X0157008Y0239420D01*
X0158627Y0241039D01*
X0160821Y0241948D01*
X0163195Y0241948D01*
X0165389Y0241039D01*
X0167008Y0239420D01*
X0168627Y0241039D01*
X0170821Y0241948D01*
X0173195Y0241948D01*
X0175389Y0241039D01*
X0177008Y0239420D01*
X0178627Y0241039D01*
X0180821Y0241948D01*
X0183195Y0241948D01*
X0185389Y0241039D01*
X0187008Y0239420D01*
X0188627Y0241039D01*
X0190821Y0241948D01*
X0193195Y0241948D01*
X0195389Y0241039D01*
X0197008Y0239420D01*
X0198627Y0241039D01*
X0200821Y0241948D01*
X0203195Y0241948D01*
X0205389Y0241039D01*
X0207008Y0239420D01*
X0208627Y0241039D01*
X0210821Y0241948D01*
X0213195Y0241948D01*
X0215389Y0241039D01*
X0217008Y0239420D01*
X0218627Y0241039D01*
X0220821Y0241948D01*
X0223195Y0241948D01*
X0225389Y0241039D01*
X0227008Y0239420D01*
X0228627Y0241039D01*
X0230821Y0241948D01*
X0233195Y0241948D01*
X0235389Y0241039D01*
X0237008Y0239420D01*
X0238627Y0241039D01*
X0240821Y0241948D01*
X0243195Y0241948D01*
X0245389Y0241039D01*
X0247068Y0239360D01*
X0247976Y0237166D01*
X0247976Y0229192D01*
X0247068Y0226998D01*
X0245389Y0225319D01*
X0243195Y0224411D01*
X0240821Y0224411D01*
X0238627Y0225319D01*
X0237008Y0226938D01*
X0235389Y0225319D01*
X0233195Y0224411D01*
X0230821Y0224411D01*
X0228627Y0225319D01*
X0227008Y0226938D01*
X0225389Y0225319D01*
X0223195Y0224411D01*
X0220821Y0224411D01*
X0218627Y0225319D01*
X0217008Y0226938D01*
X0215389Y0225319D01*
X0213195Y0224411D01*
X0210821Y0224411D01*
X0208627Y0225319D01*
X0207008Y0226938D01*
X0205389Y0225319D01*
X0203195Y0224411D01*
X0200821Y0224411D01*
X0198627Y0225319D01*
X0197008Y0226938D01*
X0195389Y0225319D01*
X0193195Y0224411D01*
X0190821Y0224411D01*
X0188627Y0225319D01*
X0187008Y0226938D01*
X0185389Y0225319D01*
X0183195Y0224411D01*
X0180821Y0224411D01*
X0178627Y0225319D01*
X0177008Y0226938D01*
X0175389Y0225319D01*
X0173195Y0224411D01*
X0170821Y0224411D01*
X0168627Y0225319D01*
X0167008Y0226938D01*
X0165389Y0225319D01*
X0163195Y0224411D01*
X0160821Y0224411D01*
X0158627Y0225319D01*
X0157008Y0226938D01*
X0155389Y0225319D01*
X0153195Y0224411D01*
X0150821Y0224411D01*
X0148627Y0225319D01*
X0147008Y0226938D01*
X0145389Y0225319D01*
X0143195Y0224411D01*
X0140821Y0224411D01*
X0138627Y0225319D01*
X0137008Y0226938D01*
X0135389Y0225319D01*
X0133195Y0224411D01*
X0130821Y0224411D01*
X0128627Y0225319D01*
X0127008Y0226938D01*
X0126442Y0226373D01*
X0126672Y0225817D01*
X0126672Y0218651D01*
X0126206Y0217524D01*
X0126488Y0216842D01*
X0126488Y0215028D01*
X0126226Y0214396D01*
X0126480Y0214290D01*
X0127371Y0213399D01*
X0127854Y0212235D01*
X0127854Y0206643D01*
X0127371Y0205479D01*
X0126885Y0204993D01*
X0126885Y0202746D01*
X0122717Y0202746D01*
X0122717Y0202746D01*
X0126885Y0202746D01*
X0126885Y0200291D01*
X0126735Y0199732D01*
X0126445Y0199230D01*
X0126036Y0198820D01*
X0125534Y0198531D01*
X0124975Y0198381D01*
X0122717Y0198381D01*
X0122717Y0202746D01*
X0122716Y0202746D01*
X0118548Y0202746D01*
X0118548Y0200291D01*
X0118698Y0199732D01*
X0118988Y0199230D01*
X0119397Y0198820D01*
X0119899Y0198531D01*
X0120458Y0198381D01*
X0122716Y0198381D01*
X0122716Y0202746D01*
X0122716Y0202746D01*
X0118548Y0202746D01*
X0118548Y0204993D01*
X0118405Y0205136D01*
X0118405Y0204675D01*
X0117922Y0203510D01*
X0117031Y0202619D01*
X0116492Y0202396D01*
X0116587Y0202341D01*
X0116997Y0201932D01*
X0117286Y0201430D01*
X0117436Y0200870D01*
X0117436Y0197806D01*
X0112068Y0197806D01*
X0112068Y0197056D01*
X0117436Y0197056D01*
X0117436Y0193992D01*
X0117286Y0193432D01*
X0116997Y0192931D01*
X0116587Y0192521D01*
X0116085Y0192231D01*
X0115526Y0192081D01*
X0112068Y0192081D01*
X0112068Y0197056D01*
X0111318Y0197056D01*
X0111318Y0192081D01*
X0107860Y0192081D01*
X0107300Y0192231D01*
X0106799Y0192521D01*
X0106389Y0192931D01*
X0106100Y0193432D01*
X0105950Y0193992D01*
X0105950Y0197056D01*
X0111318Y0197056D01*
X0111318Y0197806D01*
X0105950Y0197806D01*
X0105950Y0200870D01*
X0106100Y0201430D01*
X0106389Y0201932D01*
X0106799Y0202341D01*
X0106894Y0202396D01*
X0106355Y0202619D01*
X0105463Y0203510D01*
X0104981Y0204675D01*
X0104981Y0212235D01*
X0105463Y0213399D01*
X0106355Y0214290D01*
X0107519Y0214773D01*
X0115866Y0214773D01*
X0117031Y0214290D01*
X0117922Y0213399D01*
X0117992Y0213231D01*
X0118053Y0213379D01*
X0117370Y0215028D01*
X0117370Y0215702D01*
X0117176Y0216170D01*
X0117176Y0216329D01*
X0116654Y0216113D01*
X0110275Y0216113D01*
X0109111Y0216595D01*
X0108219Y0217487D01*
X0107897Y0218266D01*
X0096408Y0218266D01*
X0095976Y0217835D01*
X0095976Y0211181D01*
X0096567Y0209755D01*
X0096567Y0207942D01*
X0095873Y0206266D01*
X0094590Y0204983D01*
X0092915Y0204289D01*
X0091101Y0204289D01*
X0089425Y0204983D01*
X0088143Y0206266D01*
X0087449Y0207942D01*
X0087449Y0209755D01*
X0088039Y0211181D01*
X0088039Y0220268D01*
X0088644Y0221726D01*
X0089760Y0222843D01*
X0091328Y0224411D01*
X0090821Y0224411D01*
X0088627Y0225319D01*
X0087008Y0226938D01*
X0085389Y0225319D01*
X0083195Y0224411D01*
X0080821Y0224411D01*
X0078627Y0225319D01*
X0077008Y0226938D01*
X0075389Y0225319D01*
X0073195Y0224411D01*
X0070821Y0224411D01*
X0068627Y0225319D01*
X0067008Y0226938D01*
X0065389Y0225319D01*
X0063195Y0224411D01*
X0060821Y0224411D01*
X0058627Y0225319D01*
X0057008Y0226938D01*
X0055389Y0225319D01*
X0053195Y0224411D01*
X0050821Y0224411D01*
X0048627Y0225319D01*
X0047008Y0226938D01*
X0045389Y0225319D01*
X0043195Y0224411D01*
X0040821Y0224411D01*
X0038627Y0225319D01*
X0037008Y0226938D01*
X0035389Y0225319D01*
X0033195Y0224411D01*
X0030821Y0224411D01*
X0028627Y0225319D01*
X0027008Y0226938D01*
X0025389Y0225319D01*
X0023195Y0224411D01*
X0020821Y0224411D01*
X0018627Y0225319D01*
X0016948Y0226998D01*
X0016477Y0228136D01*
X0016284Y0227759D01*
X0015822Y0227122D01*
X0015265Y0226565D01*
X0014628Y0226103D01*
X0013927Y0225745D01*
X0013179Y0225502D01*
X0012401Y0225379D01*
X0012008Y0225379D01*
X0012008Y0233179D01*
X0012008Y0233179D01*
X0012087Y0233100D01*
X0012087Y0224203D01*
X0013661Y0222628D01*
X0023898Y0222628D01*
X0026260Y0220266D01*
X0026260Y0203730D01*
X0024291Y0201762D01*
X0015000Y0201762D01*
X0023200Y0201762D01*
X0023200Y0202171D01*
X0023072Y0202979D01*
X0022819Y0203758D01*
X0022447Y0204487D01*
X0021966Y0205149D01*
X0021388Y0205728D01*
X0020725Y0206209D01*
X0020720Y0206212D01*
X0021494Y0206532D01*
X0023229Y0208268D01*
X0024168Y0210535D01*
X0024168Y0212989D01*
X0023229Y0215256D01*
X0021494Y0216991D01*
X0019227Y0217930D01*
X0010773Y0217930D01*
X0008506Y0216991D01*
X0008150Y0216635D01*
X0008150Y0227183D01*
X0008194Y0227122D01*
X0008751Y0226565D01*
X0009387Y0226103D01*
X0010089Y0225745D01*
X0010837Y0225502D01*
X0011614Y0225379D01*
X0012008Y0225379D01*
X0012008Y0233179D01*
X0012008Y0231086D02*
X0012008Y0231086D01*
X0012008Y0228688D02*
X0012008Y0228688D01*
X0012008Y0226289D02*
X0012008Y0226289D01*
X0014885Y0226289D02*
X0017657Y0226289D01*
X0009131Y0226289D02*
X0008150Y0226289D01*
X0008150Y0223891D02*
X0090808Y0223891D01*
X0088547Y0221492D02*
X0008150Y0221492D01*
X0008150Y0219094D02*
X0088039Y0219094D01*
X0088039Y0216695D02*
X0021790Y0216695D01*
X0023627Y0214297D02*
X0088039Y0214297D01*
X0088039Y0211898D02*
X0024168Y0211898D01*
X0023740Y0209500D02*
X0087449Y0209500D01*
X0087797Y0207101D02*
X0022063Y0207101D01*
X0022291Y0204703D02*
X0090103Y0204703D01*
X0093912Y0204703D02*
X0104981Y0204703D01*
X0104981Y0207101D02*
X0096219Y0207101D01*
X0096567Y0209500D02*
X0104981Y0209500D01*
X0104981Y0211898D02*
X0095976Y0211898D01*
X0095976Y0214297D02*
X0106370Y0214297D01*
X0109011Y0216695D02*
X0095976Y0216695D01*
X0087657Y0226289D02*
X0086359Y0226289D01*
X0077657Y0226289D02*
X0076359Y0226289D01*
X0067657Y0226289D02*
X0066359Y0226289D01*
X0057657Y0226289D02*
X0056359Y0226289D01*
X0047657Y0226289D02*
X0046359Y0226289D01*
X0037657Y0226289D02*
X0036359Y0226289D01*
X0027657Y0226289D02*
X0026359Y0226289D01*
X0008210Y0216695D02*
X0008150Y0216695D01*
X0015000Y0201762D02*
X0015000Y0201762D01*
X0023200Y0201762D01*
X0023200Y0201353D01*
X0023072Y0200544D01*
X0022819Y0199766D01*
X0022447Y0199036D01*
X0021966Y0198374D01*
X0021388Y0197795D01*
X0020725Y0197314D01*
X0020720Y0197312D01*
X0021494Y0196991D01*
X0023229Y0195256D01*
X0024168Y0192989D01*
X0024168Y0190535D01*
X0023229Y0188268D01*
X0021494Y0186532D01*
X0019227Y0185593D01*
X0010773Y0185593D01*
X0008506Y0186532D01*
X0008150Y0186889D01*
X0008150Y0179026D01*
X0009449Y0180326D01*
X0011643Y0181234D01*
X0019617Y0181234D01*
X0021811Y0180326D01*
X0023490Y0178647D01*
X0024398Y0176453D01*
X0024398Y0174079D01*
X0023490Y0171885D01*
X0021811Y0170206D01*
X0020673Y0169735D01*
X0021050Y0169542D01*
X0021687Y0169080D01*
X0022244Y0168523D01*
X0022706Y0167886D01*
X0022778Y0167745D01*
X0023180Y0168714D01*
X0024071Y0169605D01*
X0025236Y0170088D01*
X0031615Y0170088D01*
X0032779Y0169605D01*
X0033265Y0169119D01*
X0035826Y0169119D01*
X0035826Y0164046D01*
X0035985Y0164046D01*
X0040665Y0164046D01*
X0040665Y0167209D01*
X0040515Y0167768D01*
X0040225Y0168270D01*
X0039815Y0168680D01*
X0039314Y0168969D01*
X0038754Y0169119D01*
X0035985Y0169119D01*
X0035985Y0164046D01*
X0035985Y0163887D01*
X0040665Y0163887D01*
X0040665Y0160724D01*
X0040542Y0160267D01*
X0041151Y0159659D01*
X0041308Y0159280D01*
X0046940Y0159280D01*
X0047400Y0159470D01*
X0049214Y0159470D01*
X0050890Y0158776D01*
X0052172Y0157494D01*
X0052866Y0155818D01*
X0052866Y0154005D01*
X0052172Y0152329D01*
X0050890Y0151046D01*
X0049214Y0150352D01*
X0047400Y0150352D01*
X0046940Y0150543D01*
X0041308Y0150543D01*
X0041160Y0150187D01*
X0041633Y0149046D01*
X0041633Y0141880D01*
X0041151Y0140715D01*
X0040259Y0139824D01*
X0039095Y0139341D01*
X0032716Y0139341D01*
X0032165Y0139570D01*
X0031615Y0139341D01*
X0025236Y0139341D01*
X0024071Y0139824D01*
X0023180Y0140715D01*
X0022951Y0141268D01*
X0021811Y0140127D01*
X0019617Y0139219D01*
X0011643Y0139219D01*
X0009449Y0140127D01*
X0008150Y0141427D01*
X0008150Y0127136D01*
X0009331Y0128318D01*
X0011525Y0129226D01*
X0019499Y0129226D01*
X0021693Y0128318D01*
X0023372Y0126639D01*
X0024280Y0124445D01*
X0024280Y0122071D01*
X0023372Y0119877D01*
X0021693Y0118198D01*
X0019499Y0117289D01*
X0011525Y0117289D01*
X0009331Y0118198D01*
X0008150Y0119379D01*
X0008150Y0107136D01*
X0009331Y0108318D01*
X0011525Y0109226D01*
X0019499Y0109226D01*
X0021693Y0108318D01*
X0023372Y0106639D01*
X0024280Y0104445D01*
X0024280Y0102071D01*
X0023372Y0099877D01*
X0021693Y0098198D01*
X0019499Y0097289D01*
X0011525Y0097289D01*
X0009331Y0098198D01*
X0008150Y0099379D01*
X0008150Y0099168D02*
X0008361Y0099168D01*
X0008150Y0096770D02*
X0094351Y0096770D01*
X0094351Y0098061D02*
X0094351Y0092470D01*
X0094834Y0091306D01*
X0095378Y0090761D01*
X0094929Y0089677D01*
X0094929Y0087863D01*
X0095532Y0086407D01*
X0094929Y0084952D01*
X0094929Y0083138D01*
X0095623Y0081463D01*
X0096906Y0080180D01*
X0098581Y0079486D01*
X0100395Y0079486D01*
X0101821Y0080077D01*
X0102962Y0080077D01*
X0103000Y0080039D01*
X0103000Y0060787D01*
X0102409Y0059362D01*
X0102409Y0057548D01*
X0103104Y0055872D01*
X0104386Y0054590D01*
X0106062Y0053896D01*
X0107875Y0053896D01*
X0109551Y0054590D01*
X0110833Y0055872D01*
X0111528Y0057548D01*
X0111528Y0059362D01*
X0110937Y0060787D01*
X0110937Y0082472D01*
X0110333Y0083931D01*
X0109216Y0085047D01*
X0106854Y0087410D01*
X0105396Y0088014D01*
X0104047Y0088014D01*
X0104047Y0089047D01*
X0104763Y0088751D01*
X0113111Y0088751D01*
X0114275Y0089233D01*
X0114761Y0089719D01*
X0115197Y0089538D01*
X0122363Y0089538D01*
X0123527Y0090021D01*
X0124418Y0090912D01*
X0124578Y0091297D01*
X0133072Y0091297D01*
X0134748Y0091991D01*
X0135055Y0092299D01*
X0138603Y0088750D01*
X0143838Y0088750D01*
X0147539Y0092452D01*
X0147539Y0097686D01*
X0143838Y0101387D01*
X0138603Y0101387D01*
X0135842Y0098627D01*
X0134748Y0099721D01*
X0133072Y0100415D01*
X0131258Y0100415D01*
X0129583Y0099721D01*
X0129096Y0099234D01*
X0124578Y0099234D01*
X0124418Y0099620D01*
X0123932Y0100106D01*
X0123932Y0102667D01*
X0118859Y0102667D01*
X0118859Y0102826D01*
X0118700Y0102826D01*
X0118700Y0107505D01*
X0115537Y0107505D01*
X0114978Y0107355D01*
X0114680Y0107184D01*
X0114680Y0109532D01*
X0114530Y0110091D01*
X0114241Y0110593D01*
X0113831Y0111003D01*
X0113329Y0111292D01*
X0112770Y0111442D01*
X0109312Y0111442D01*
X0109312Y0106467D01*
X0108562Y0106467D01*
X0108562Y0105718D01*
X0103194Y0105718D01*
X0103194Y0105498D01*
X0102808Y0105884D01*
X0102306Y0106174D01*
X0101746Y0106324D01*
X0100781Y0106324D01*
X0101870Y0107412D01*
X0101870Y0112647D01*
X0098168Y0116348D01*
X0092934Y0116348D01*
X0089233Y0112647D01*
X0089233Y0107412D01*
X0092934Y0103711D01*
X0095320Y0103711D01*
X0095320Y0101959D01*
X0099488Y0101959D01*
X0099488Y0101959D01*
X0095320Y0101959D01*
X0095320Y0099712D01*
X0094834Y0099226D01*
X0094351Y0098061D01*
X0094810Y0099168D02*
X0022663Y0099168D01*
X0024072Y0101567D02*
X0095320Y0101567D01*
X0092680Y0103965D02*
X0024280Y0103965D01*
X0023486Y0106364D02*
X0090281Y0106364D01*
X0089233Y0108762D02*
X0072257Y0108762D01*
X0071693Y0108198D02*
X0073372Y0109877D01*
X0074280Y0112071D01*
X0074280Y0114445D01*
X0073372Y0116639D01*
X0071693Y0118318D01*
X0069499Y0119226D01*
X0061525Y0119226D01*
X0059331Y0118318D01*
X0057652Y0116639D01*
X0056743Y0114445D01*
X0056743Y0112071D01*
X0057652Y0109877D01*
X0059331Y0108198D01*
X0061525Y0107289D01*
X0069499Y0107289D01*
X0071693Y0108198D01*
X0073903Y0111161D02*
X0089233Y0111161D01*
X0090145Y0113559D02*
X0074280Y0113559D01*
X0073654Y0115958D02*
X0092544Y0115958D01*
X0098559Y0115958D02*
X0114523Y0115958D01*
X0113948Y0118356D02*
X0071600Y0118356D01*
X0077518Y0125552D02*
X0023822Y0125552D01*
X0024280Y0123153D02*
X0116096Y0123153D01*
X0114376Y0120755D02*
X0023735Y0120755D01*
X0021851Y0118356D02*
X0059424Y0118356D01*
X0057370Y0115958D02*
X0008150Y0115958D01*
X0008150Y0118356D02*
X0009173Y0118356D01*
X0008150Y0113559D02*
X0056743Y0113559D01*
X0057120Y0111161D02*
X0008150Y0111161D01*
X0008150Y0108762D02*
X0010404Y0108762D01*
X0020620Y0108762D02*
X0058767Y0108762D01*
X0076060Y0127950D02*
X0022060Y0127950D01*
X0008963Y0127950D02*
X0008150Y0127950D01*
X0008150Y0130349D02*
X0066814Y0130349D01*
X0058244Y0132747D02*
X0008150Y0132747D01*
X0008150Y0135146D02*
X0058131Y0135146D01*
X0058131Y0137544D02*
X0008150Y0137544D01*
X0008150Y0139943D02*
X0009894Y0139943D01*
X0021366Y0139943D02*
X0023952Y0139943D01*
X0028425Y0154911D02*
X0015906Y0154911D01*
X0022042Y0168725D02*
X0023191Y0168725D01*
X0022728Y0171123D02*
X0105180Y0171123D01*
X0104981Y0171604D02*
X0105463Y0170439D01*
X0105950Y0169953D01*
X0105950Y0167707D01*
X0110118Y0167707D01*
X0110118Y0167707D01*
X0114287Y0167707D01*
X0114287Y0169953D01*
X0114773Y0170439D01*
X0115255Y0171604D01*
X0115255Y0173187D01*
X0116930Y0173187D01*
X0118606Y0173881D01*
X0119889Y0175164D01*
X0120583Y0176839D01*
X0120583Y0178653D01*
X0119889Y0180329D01*
X0118606Y0181611D01*
X0116930Y0182305D01*
X0116043Y0182305D01*
X0116043Y0185660D01*
X0115560Y0186824D01*
X0114669Y0187716D01*
X0113504Y0188198D01*
X0107126Y0188198D01*
X0105961Y0187716D01*
X0105475Y0187230D01*
X0102914Y0187230D01*
X0102914Y0182156D01*
X0102755Y0182156D01*
X0102755Y0181997D01*
X0102914Y0181997D01*
X0102914Y0176924D01*
X0104981Y0176924D01*
X0104981Y0171604D01*
X0104981Y0173522D02*
X0024168Y0173522D01*
X0024398Y0175921D02*
X0104981Y0175921D01*
X0102755Y0176924D02*
X0099986Y0176924D01*
X0099426Y0177074D01*
X0098925Y0177364D01*
X0098515Y0177773D01*
X0098226Y0178275D01*
X0098076Y0178834D01*
X0098076Y0181997D01*
X0102755Y0181997D01*
X0102755Y0176924D01*
X0102755Y0178319D02*
X0102914Y0178319D01*
X0102914Y0180718D02*
X0102755Y0180718D01*
X0102755Y0182156D02*
X0098076Y0182156D01*
X0098076Y0185319D01*
X0098226Y0185879D01*
X0098515Y0186380D01*
X0098925Y0186790D01*
X0099426Y0187080D01*
X0099986Y0187230D01*
X0102755Y0187230D01*
X0102755Y0182156D01*
X0102755Y0183116D02*
X0102914Y0183116D01*
X0102914Y0185515D02*
X0102755Y0185515D01*
X0106438Y0187913D02*
X0022875Y0187913D01*
X0024076Y0190312D02*
X0190039Y0190312D01*
X0190039Y0192710D02*
X0116776Y0192710D01*
X0117436Y0195109D02*
X0190039Y0195109D01*
X0190039Y0197507D02*
X0112068Y0197507D01*
X0111318Y0197507D02*
X0020991Y0197507D01*
X0022864Y0199906D02*
X0105950Y0199906D01*
X0106762Y0202304D02*
X0023179Y0202304D01*
X0023290Y0195109D02*
X0105950Y0195109D01*
X0106610Y0192710D02*
X0024168Y0192710D01*
X0020865Y0180718D02*
X0098076Y0180718D01*
X0098076Y0183116D02*
X0008150Y0183116D01*
X0008150Y0180718D02*
X0010395Y0180718D01*
X0008150Y0185515D02*
X0098128Y0185515D01*
X0098214Y0178319D02*
X0023625Y0178319D01*
X0035826Y0168725D02*
X0035985Y0168725D01*
X0035985Y0166326D02*
X0035826Y0166326D01*
X0035985Y0163928D02*
X0106652Y0163928D01*
X0106799Y0163781D02*
X0107300Y0163491D01*
X0107860Y0163341D01*
X0110118Y0163341D01*
X0110118Y0167707D01*
X0110118Y0167707D01*
X0105950Y0167707D01*
X0105950Y0165252D01*
X0106100Y0164692D01*
X0106389Y0164191D01*
X0106799Y0163781D01*
X0105950Y0166326D02*
X0040665Y0166326D01*
X0039737Y0168725D02*
X0105950Y0168725D01*
X0110118Y0167707D02*
X0110118Y0167707D01*
X0114287Y0167707D01*
X0114287Y0165252D01*
X0114137Y0164692D01*
X0113847Y0164191D01*
X0113437Y0163781D01*
X0112936Y0163491D01*
X0112376Y0163341D01*
X0110118Y0163341D01*
X0110118Y0167707D01*
X0110118Y0166326D02*
X0110118Y0166326D01*
X0110118Y0163928D02*
X0110118Y0163928D01*
X0113584Y0163928D02*
X0124103Y0163928D01*
X0124260Y0166326D02*
X0114287Y0166326D01*
X0114287Y0168725D02*
X0124260Y0168725D01*
X0123917Y0171123D02*
X0115056Y0171123D01*
X0117739Y0173522D02*
X0123669Y0173522D01*
X0125073Y0175921D02*
X0120202Y0175921D01*
X0120583Y0178319D02*
X0128489Y0178319D01*
X0127816Y0180718D02*
X0119500Y0180718D01*
X0116043Y0183116D02*
X0127816Y0183116D01*
X0127816Y0185515D02*
X0116043Y0185515D01*
X0114192Y0187913D02*
X0128260Y0187913D01*
X0126782Y0199906D02*
X0190039Y0199906D01*
X0190188Y0202304D02*
X0126885Y0202304D01*
X0126885Y0204703D02*
X0192587Y0204703D01*
X0194985Y0207101D02*
X0127854Y0207101D01*
X0127854Y0209500D02*
X0197384Y0209500D01*
X0197657Y0226289D02*
X0196359Y0226289D01*
X0187657Y0226289D02*
X0186359Y0226289D01*
X0177657Y0226289D02*
X0176359Y0226289D01*
X0167657Y0226289D02*
X0166359Y0226289D01*
X0157657Y0226289D02*
X0156359Y0226289D01*
X0147657Y0226289D02*
X0146359Y0226289D01*
X0137657Y0226289D02*
X0136359Y0226289D01*
X0127657Y0226289D02*
X0126477Y0226289D01*
X0126672Y0223891D02*
X0273374Y0223891D01*
X0270976Y0221492D02*
X0126672Y0221492D01*
X0126672Y0219094D02*
X0268577Y0219094D01*
X0266179Y0216695D02*
X0126488Y0216695D01*
X0126465Y0214297D02*
X0227997Y0214297D01*
X0227997Y0211898D02*
X0127854Y0211898D01*
X0117673Y0214297D02*
X0117016Y0214297D01*
X0118405Y0204703D02*
X0118548Y0204703D01*
X0118548Y0202304D02*
X0116624Y0202304D01*
X0117436Y0199906D02*
X0118651Y0199906D01*
X0122716Y0199906D02*
X0122717Y0199906D01*
X0122716Y0202304D02*
X0122717Y0202304D01*
X0112068Y0195109D02*
X0111318Y0195109D01*
X0111318Y0192710D02*
X0112068Y0192710D01*
X0117367Y0161529D02*
X0040665Y0161529D01*
X0035906Y0154911D02*
X0048307Y0154911D01*
X0050034Y0159131D02*
X0065478Y0159131D01*
X0063024Y0156732D02*
X0052487Y0156732D01*
X0052866Y0154334D02*
X0062646Y0154334D01*
X0063733Y0151935D02*
X0051779Y0151935D01*
X0059539Y0146026D02*
X0059249Y0145524D01*
X0059099Y0144965D01*
X0059099Y0142510D01*
X0063268Y0142510D01*
X0063268Y0146875D01*
X0061010Y0146875D01*
X0060450Y0146725D01*
X0059948Y0146436D01*
X0059539Y0146026D01*
X0059099Y0144740D02*
X0041633Y0144740D01*
X0041633Y0147138D02*
X0071948Y0147138D01*
X0066580Y0149537D02*
X0041430Y0149537D01*
X0041633Y0142341D02*
X0059099Y0142341D01*
X0058779Y0139943D02*
X0040379Y0139943D01*
X0063268Y0142510D02*
X0063268Y0142510D01*
X0063268Y0144740D02*
X0063268Y0144740D01*
X0078066Y0149537D02*
X0190039Y0149537D01*
X0190039Y0151935D02*
X0129290Y0151935D01*
X0130149Y0142341D02*
X0190039Y0142341D01*
X0190039Y0144740D02*
X0086924Y0144740D01*
X0086924Y0142341D02*
X0115284Y0142341D01*
X0114040Y0139943D02*
X0087245Y0139943D01*
X0081851Y0144740D02*
X0081692Y0144740D01*
X0081692Y0147138D02*
X0081851Y0147138D01*
X0086160Y0147138D02*
X0190039Y0147138D01*
X0188741Y0139943D02*
X0188582Y0139943D01*
X0188582Y0137544D02*
X0188741Y0137544D01*
X0188741Y0135146D02*
X0188582Y0135146D01*
X0188582Y0132747D02*
X0188741Y0132747D01*
X0188741Y0130349D02*
X0188582Y0130349D01*
X0188582Y0127950D02*
X0188741Y0127950D01*
X0188741Y0125552D02*
X0188582Y0125552D01*
X0188582Y0123153D02*
X0188741Y0123153D01*
X0190039Y0120755D02*
X0149512Y0120755D01*
X0149989Y0118356D02*
X0190039Y0118356D01*
X0190039Y0115958D02*
X0149463Y0115958D01*
X0147605Y0113559D02*
X0190039Y0113559D01*
X0190039Y0111161D02*
X0113557Y0111161D01*
X0114680Y0108762D02*
X0190039Y0108762D01*
X0190039Y0106364D02*
X0123661Y0106364D01*
X0123782Y0106154D02*
X0123493Y0106656D01*
X0123083Y0107066D01*
X0122581Y0107355D01*
X0122022Y0107505D01*
X0118859Y0107505D01*
X0118859Y0102826D01*
X0123932Y0102826D01*
X0123932Y0105595D01*
X0123782Y0106154D01*
X0123932Y0103965D02*
X0190039Y0103965D01*
X0190039Y0101567D02*
X0123932Y0101567D01*
X0118859Y0103965D02*
X0118700Y0103965D01*
X0118700Y0106364D02*
X0118859Y0106364D01*
X0116450Y0113559D02*
X0100957Y0113559D01*
X0101870Y0111161D02*
X0104317Y0111161D01*
X0104545Y0111292D02*
X0104043Y0111003D01*
X0103633Y0110593D01*
X0103344Y0110091D01*
X0103194Y0109532D01*
X0103194Y0106467D01*
X0108562Y0106467D01*
X0108562Y0111442D01*
X0105104Y0111442D01*
X0104545Y0111292D01*
X0103194Y0108762D02*
X0101870Y0108762D01*
X0100821Y0106364D02*
X0108562Y0106364D01*
X0108562Y0108762D02*
X0109312Y0108762D01*
X0109312Y0111161D02*
X0108562Y0111161D01*
X0100795Y0125552D02*
X0083663Y0125552D01*
X0085121Y0127950D02*
X0098396Y0127950D01*
X0095998Y0130349D02*
X0086690Y0130349D01*
X0100027Y0137544D02*
X0113948Y0137544D01*
X0114863Y0135146D02*
X0102425Y0135146D01*
X0104824Y0132747D02*
X0115690Y0132747D01*
X0129743Y0132747D02*
X0135909Y0132747D01*
X0133794Y0130349D02*
X0131225Y0130349D01*
X0131485Y0127950D02*
X0133432Y0127950D01*
X0134321Y0125552D02*
X0130742Y0125552D01*
X0129337Y0123153D02*
X0134718Y0123153D01*
X0141221Y0128415D02*
X0141221Y0133415D01*
X0144414Y0133415D01*
X0145191Y0133292D01*
X0145940Y0133049D01*
X0146641Y0132692D01*
X0147278Y0132229D01*
X0147834Y0131673D01*
X0148297Y0131036D01*
X0148654Y0130335D01*
X0148897Y0129586D01*
X0149020Y0128809D01*
X0149020Y0128415D01*
X0141221Y0128415D01*
X0141220Y0130349D02*
X0141221Y0130349D01*
X0141220Y0132747D02*
X0141221Y0132747D01*
X0146532Y0132747D02*
X0183902Y0132747D01*
X0183902Y0130349D02*
X0148647Y0130349D01*
X0149009Y0127950D02*
X0183902Y0127950D01*
X0183902Y0125552D02*
X0148120Y0125552D01*
X0147723Y0123153D02*
X0184000Y0123153D01*
X0196142Y0126959D02*
X0196142Y0136014D01*
X0183902Y0135146D02*
X0130570Y0135146D01*
X0131485Y0137544D02*
X0183902Y0137544D01*
X0184034Y0139943D02*
X0131393Y0139943D01*
X0141559Y0154334D02*
X0142230Y0154334D01*
X0146357Y0154334D02*
X0147107Y0154334D01*
X0147107Y0156732D02*
X0146357Y0156732D01*
X0146357Y0159131D02*
X0147107Y0159131D01*
X0152082Y0159131D02*
X0152213Y0159131D01*
X0152082Y0156732D02*
X0153472Y0156732D01*
X0151235Y0154334D02*
X0155871Y0154334D01*
X0161170Y0161529D02*
X0190039Y0161529D01*
X0190039Y0163928D02*
X0162893Y0163928D01*
X0162893Y0166326D02*
X0171263Y0166326D01*
X0169941Y0167649D02*
X0173643Y0163947D01*
X0178877Y0163947D01*
X0182578Y0167649D01*
X0182578Y0172883D01*
X0178877Y0176584D01*
X0173643Y0176584D01*
X0169941Y0172883D01*
X0169941Y0167649D01*
X0169941Y0168725D02*
X0162893Y0168725D01*
X0162893Y0171123D02*
X0169941Y0171123D01*
X0170580Y0173522D02*
X0162343Y0173522D01*
X0162893Y0175921D02*
X0172979Y0175921D01*
X0179541Y0175921D02*
X0190039Y0175921D01*
X0190039Y0178319D02*
X0162893Y0178319D01*
X0162893Y0180718D02*
X0190039Y0180718D01*
X0190039Y0183116D02*
X0162560Y0183116D01*
X0159254Y0185515D02*
X0190039Y0185515D01*
X0190039Y0187913D02*
X0146307Y0187913D01*
X0121732Y0161529D02*
X0121732Y0161529D01*
X0117367Y0159131D02*
X0068931Y0159131D01*
X0128983Y0113559D02*
X0134836Y0113559D01*
X0135301Y0099168D02*
X0136384Y0099168D01*
X0135381Y0091973D02*
X0134703Y0091973D01*
X0137780Y0089574D02*
X0122449Y0089574D01*
X0115110Y0089574D02*
X0114616Y0089574D01*
X0109487Y0084777D02*
X0190039Y0084777D01*
X0190039Y0082379D02*
X0110937Y0082379D01*
X0110937Y0079980D02*
X0190039Y0079980D01*
X0190039Y0077582D02*
X0110937Y0077582D01*
X0110937Y0075183D02*
X0190039Y0075183D01*
X0190039Y0072785D02*
X0110937Y0072785D01*
X0110937Y0070386D02*
X0190039Y0070386D01*
X0190039Y0067988D02*
X0110937Y0067988D01*
X0110937Y0065589D02*
X0190039Y0065589D01*
X0190039Y0063190D02*
X0110937Y0063190D01*
X0110937Y0060792D02*
X0190039Y0060792D01*
X0190039Y0058393D02*
X0111528Y0058393D01*
X0110884Y0055995D02*
X0190039Y0055995D01*
X0190039Y0053596D02*
X0128759Y0053596D01*
X0128473Y0053883D02*
X0124993Y0055324D01*
X0121227Y0055324D01*
X0117747Y0053883D01*
X0115084Y0051219D01*
X0113643Y0047740D01*
X0113643Y0043973D01*
X0115084Y0040493D01*
X0117747Y0037830D01*
X0121227Y0036389D01*
X0124993Y0036389D01*
X0128473Y0037830D01*
X0131137Y0040493D01*
X0132578Y0043973D01*
X0132578Y0047740D01*
X0131137Y0051219D01*
X0128473Y0053883D01*
X0131145Y0051198D02*
X0190039Y0051198D01*
X0190039Y0048799D02*
X0132139Y0048799D01*
X0132578Y0046401D02*
X0190039Y0046401D01*
X0190039Y0044002D02*
X0132578Y0044002D01*
X0131597Y0041604D02*
X0190039Y0041604D01*
X0190039Y0039205D02*
X0129849Y0039205D01*
X0126003Y0036807D02*
X0190039Y0036807D01*
X0190039Y0034408D02*
X0046637Y0034408D01*
X0047357Y0034110D02*
X0045164Y0035018D01*
X0042789Y0035018D01*
X0040595Y0034110D01*
X0038917Y0032431D01*
X0038008Y0030237D01*
X0038008Y0022263D01*
X0038917Y0020069D01*
X0040595Y0018390D01*
X0042789Y0017481D01*
X0045164Y0017481D01*
X0047357Y0018390D01*
X0049036Y0020069D01*
X0049945Y0022263D01*
X0049945Y0030237D01*
X0049036Y0032431D01*
X0047357Y0034110D01*
X0047300Y0034902D02*
X0048464Y0034420D01*
X0056024Y0034420D01*
X0057189Y0034902D01*
X0057756Y0035470D01*
X0058323Y0034902D01*
X0059488Y0034420D01*
X0067048Y0034420D01*
X0068212Y0034902D01*
X0069103Y0035794D01*
X0069586Y0036958D01*
X0069586Y0045305D01*
X0069103Y0046470D01*
X0068212Y0047361D01*
X0067945Y0047472D01*
X0067945Y0048978D01*
X0069036Y0050069D01*
X0069945Y0052263D01*
X0069945Y0060237D01*
X0069036Y0062431D01*
X0067357Y0064110D01*
X0065164Y0065018D01*
X0062789Y0065018D01*
X0060595Y0064110D01*
X0058917Y0062431D01*
X0058008Y0060237D01*
X0058008Y0052263D01*
X0058917Y0050069D01*
X0060008Y0048978D01*
X0060008Y0047844D01*
X0059488Y0047844D01*
X0058323Y0047361D01*
X0057756Y0046794D01*
X0057189Y0047361D01*
X0056213Y0047766D01*
X0056213Y0054706D01*
X0056401Y0054784D01*
X0057292Y0055676D01*
X0057775Y0056840D01*
X0057775Y0064006D01*
X0057292Y0065171D01*
X0056401Y0066062D01*
X0055237Y0066544D01*
X0049124Y0066544D01*
X0049507Y0067470D01*
X0049507Y0074636D01*
X0049025Y0075801D01*
X0048133Y0076692D01*
X0047945Y0076770D01*
X0047945Y0077776D01*
X0048535Y0079201D01*
X0048535Y0081015D01*
X0047841Y0082691D01*
X0046559Y0083973D01*
X0044883Y0084667D01*
X0043070Y0084667D01*
X0041394Y0083973D01*
X0040111Y0082691D01*
X0039417Y0081015D01*
X0039417Y0079201D01*
X0040008Y0077776D01*
X0040008Y0076959D01*
X0039489Y0077174D01*
X0033110Y0077174D01*
X0031945Y0076692D01*
X0031054Y0075801D01*
X0030572Y0074636D01*
X0030572Y0067470D01*
X0031054Y0066306D01*
X0031346Y0066013D01*
X0031346Y0046978D01*
X0030371Y0046574D01*
X0029803Y0046007D01*
X0029236Y0046574D01*
X0028260Y0046978D01*
X0028260Y0049293D01*
X0029036Y0050069D01*
X0029945Y0052263D01*
X0029945Y0060237D01*
X0029036Y0062431D01*
X0027357Y0064110D01*
X0025164Y0065018D01*
X0022789Y0065018D01*
X0020595Y0064110D01*
X0018917Y0062431D01*
X0018008Y0060237D01*
X0018008Y0052263D01*
X0018917Y0050069D01*
X0020323Y0048663D01*
X0020323Y0046978D01*
X0019347Y0046574D01*
X0018456Y0045683D01*
X0017973Y0044518D01*
X0017973Y0036171D01*
X0018456Y0035006D01*
X0019347Y0034115D01*
X0020511Y0033633D01*
X0028071Y0033633D01*
X0029236Y0034115D01*
X0029803Y0034682D01*
X0030371Y0034115D01*
X0031535Y0033633D01*
X0039095Y0033633D01*
X0040259Y0034115D01*
X0041151Y0035006D01*
X0041633Y0036171D01*
X0041633Y0044518D01*
X0041151Y0045683D01*
X0040259Y0046574D01*
X0039283Y0046978D01*
X0039283Y0055768D01*
X0039322Y0055676D01*
X0040213Y0054784D01*
X0041378Y0054302D01*
X0047756Y0054302D01*
X0048276Y0054517D01*
X0048276Y0047766D01*
X0047300Y0047361D01*
X0046408Y0046470D01*
X0045926Y0045305D01*
X0045926Y0036958D01*
X0046408Y0035794D01*
X0047300Y0034902D01*
X0045989Y0036807D02*
X0041633Y0036807D01*
X0041633Y0039205D02*
X0045926Y0039205D01*
X0045926Y0041604D02*
X0041633Y0041604D01*
X0041633Y0044002D02*
X0045926Y0044002D01*
X0046380Y0046401D02*
X0040432Y0046401D01*
X0039283Y0048799D02*
X0048276Y0048799D01*
X0048276Y0051198D02*
X0039283Y0051198D01*
X0039283Y0053596D02*
X0048276Y0053596D01*
X0056213Y0053596D02*
X0058008Y0053596D01*
X0058008Y0055995D02*
X0057425Y0055995D01*
X0057775Y0058393D02*
X0058008Y0058393D01*
X0057775Y0060792D02*
X0058238Y0060792D01*
X0057775Y0063190D02*
X0059676Y0063190D01*
X0056874Y0065589D02*
X0103000Y0065589D01*
X0103000Y0067988D02*
X0049507Y0067988D01*
X0049507Y0070386D02*
X0103000Y0070386D01*
X0103000Y0072785D02*
X0049507Y0072785D01*
X0049281Y0075183D02*
X0103000Y0075183D01*
X0103000Y0077582D02*
X0047945Y0077582D01*
X0048535Y0079980D02*
X0097389Y0079980D01*
X0095244Y0082379D02*
X0047971Y0082379D01*
X0039982Y0082379D02*
X0008150Y0082379D01*
X0008150Y0084777D02*
X0094929Y0084777D01*
X0095214Y0087176D02*
X0008150Y0087176D01*
X0008150Y0089574D02*
X0094929Y0089574D01*
X0094557Y0091973D02*
X0008150Y0091973D01*
X0008150Y0094371D02*
X0094351Y0094371D01*
X0107088Y0087176D02*
X0190039Y0087176D01*
X0190039Y0089574D02*
X0144661Y0089574D01*
X0147060Y0091973D02*
X0190039Y0091973D01*
X0190039Y0094371D02*
X0147539Y0094371D01*
X0147539Y0096770D02*
X0190039Y0096770D01*
X0190039Y0099168D02*
X0146057Y0099168D01*
X0109216Y0085047D02*
X0109216Y0085047D01*
X0103000Y0079980D02*
X0101587Y0079980D01*
X0103000Y0063190D02*
X0068277Y0063190D01*
X0069715Y0060792D02*
X0103000Y0060792D01*
X0102409Y0058393D02*
X0069945Y0058393D01*
X0069945Y0055995D02*
X0103053Y0055995D01*
X0115075Y0051198D02*
X0069504Y0051198D01*
X0069945Y0053596D02*
X0117461Y0053596D01*
X0114082Y0048799D02*
X0067945Y0048799D01*
X0069132Y0046401D02*
X0113643Y0046401D01*
X0113643Y0044002D02*
X0069586Y0044002D01*
X0069586Y0041604D02*
X0114624Y0041604D01*
X0116372Y0039205D02*
X0069586Y0039205D01*
X0069523Y0036807D02*
X0120217Y0036807D01*
X0060008Y0048799D02*
X0056213Y0048799D01*
X0056213Y0051198D02*
X0058449Y0051198D01*
X0041316Y0034408D02*
X0040553Y0034408D01*
X0038742Y0032010D02*
X0008150Y0032010D01*
X0008150Y0034408D02*
X0019054Y0034408D01*
X0017973Y0036807D02*
X0008150Y0036807D01*
X0008150Y0039205D02*
X0017973Y0039205D01*
X0017973Y0041604D02*
X0008150Y0041604D01*
X0008150Y0044002D02*
X0017973Y0044002D01*
X0019174Y0046401D02*
X0008150Y0046401D01*
X0008150Y0048799D02*
X0020186Y0048799D01*
X0018449Y0051198D02*
X0008150Y0051198D01*
X0008150Y0053596D02*
X0018008Y0053596D01*
X0018008Y0055995D02*
X0008150Y0055995D01*
X0008150Y0058393D02*
X0018008Y0058393D01*
X0018238Y0060792D02*
X0008150Y0060792D01*
X0008150Y0063190D02*
X0019676Y0063190D01*
X0008150Y0065589D02*
X0031346Y0065589D01*
X0031346Y0063190D02*
X0028277Y0063190D01*
X0029715Y0060792D02*
X0031346Y0060792D01*
X0031346Y0058393D02*
X0029945Y0058393D01*
X0029945Y0055995D02*
X0031346Y0055995D01*
X0031346Y0053596D02*
X0029945Y0053596D01*
X0029504Y0051198D02*
X0031346Y0051198D01*
X0031346Y0048799D02*
X0028260Y0048799D01*
X0029409Y0046401D02*
X0030198Y0046401D01*
X0030077Y0034408D02*
X0029529Y0034408D01*
X0038008Y0029611D02*
X0008150Y0029611D01*
X0008150Y0027213D02*
X0038008Y0027213D01*
X0038008Y0024814D02*
X0008150Y0024814D01*
X0008150Y0022416D02*
X0038008Y0022416D01*
X0038968Y0020017D02*
X0008150Y0020017D01*
X0008150Y0017619D02*
X0042458Y0017619D01*
X0045495Y0017619D02*
X0190039Y0017619D01*
X0190039Y0020017D02*
X0048984Y0020017D01*
X0049945Y0022416D02*
X0190039Y0022416D01*
X0190039Y0024814D02*
X0049945Y0024814D01*
X0049945Y0027213D02*
X0190039Y0027213D01*
X0190039Y0029611D02*
X0049945Y0029611D01*
X0049211Y0032010D02*
X0190039Y0032010D01*
X0271535Y0135620D02*
X0306181Y0135620D01*
X0327835Y0123415D02*
X0362874Y0123415D01*
X0374685Y0141132D02*
X0386339Y0141132D01*
X0386339Y0140896D01*
X0311890Y0215344D02*
X0311890Y0222628D01*
X0304409Y0222628D02*
X0294370Y0222628D01*
X0294370Y0222825D01*
X0294370Y0217510D01*
X0279578Y0233485D02*
X0279457Y0233485D01*
X0279578Y0235883D02*
X0277058Y0235883D01*
X0279578Y0238282D02*
X0247514Y0238282D01*
X0247976Y0235883D02*
X0269950Y0235883D01*
X0267551Y0233485D02*
X0247976Y0233485D01*
X0247976Y0231086D02*
X0267185Y0231086D01*
X0267185Y0228688D02*
X0247768Y0228688D01*
X0246359Y0226289D02*
X0268781Y0226289D01*
X0262828Y0214297D02*
X0247751Y0214297D01*
X0247751Y0211898D02*
X0262252Y0211898D01*
X0242481Y0211898D02*
X0242322Y0211898D01*
X0242322Y0211881D02*
X0242322Y0211722D01*
X0233426Y0211722D01*
X0233426Y0211881D01*
X0238696Y0211881D01*
X0242322Y0211881D01*
X0242402Y0211801D02*
X0233346Y0211801D01*
X0233267Y0211898D02*
X0233426Y0211898D01*
X0233426Y0214297D02*
X0233267Y0214297D01*
X0242322Y0214297D02*
X0242481Y0214297D01*
X0237657Y0226289D02*
X0236359Y0226289D01*
X0227657Y0226289D02*
X0226359Y0226289D01*
X0217657Y0226289D02*
X0216359Y0226289D01*
X0207657Y0226289D02*
X0206359Y0226289D01*
X0205747Y0240680D02*
X0208268Y0240680D01*
X0215747Y0240680D02*
X0218268Y0240680D01*
X0225747Y0240680D02*
X0228268Y0240680D01*
X0235747Y0240680D02*
X0238268Y0240680D01*
X0245747Y0240680D02*
X0279578Y0240680D01*
X0279578Y0243079D02*
X0101094Y0243079D01*
X0101094Y0245477D02*
X0279578Y0245477D01*
X0279578Y0247876D02*
X0101094Y0247876D01*
X0101094Y0250274D02*
X0279578Y0250274D01*
X0279578Y0252673D02*
X0100252Y0252673D01*
X0097854Y0255071D02*
X0117041Y0255071D01*
X0117747Y0254365D02*
X0121227Y0252924D01*
X0124993Y0252924D01*
X0128473Y0254365D01*
X0131137Y0257029D01*
X0132578Y0260508D01*
X0132578Y0264275D01*
X0131137Y0267755D01*
X0128473Y0270418D01*
X0124993Y0271859D01*
X0121227Y0271859D01*
X0117747Y0270418D01*
X0115084Y0267755D01*
X0113643Y0264275D01*
X0113643Y0260508D01*
X0115084Y0257029D01*
X0117747Y0254365D01*
X0114901Y0257470D02*
X0095455Y0257470D01*
X0085740Y0259868D02*
X0113908Y0259868D01*
X0113643Y0262267D02*
X0085740Y0262267D01*
X0085740Y0264665D02*
X0113804Y0264665D01*
X0114798Y0267064D02*
X0085740Y0267064D01*
X0085740Y0269462D02*
X0116792Y0269462D01*
X0129429Y0269462D02*
X0281378Y0269462D01*
X0281378Y0271861D02*
X0085740Y0271861D01*
X0085740Y0274259D02*
X0281378Y0274259D01*
X0281239Y0276658D02*
X0085740Y0276658D01*
X0085740Y0279056D02*
X0280837Y0279056D01*
X0280837Y0281455D02*
X0085740Y0281455D01*
X0085740Y0283854D02*
X0281100Y0283854D01*
X0281378Y0286252D02*
X0246322Y0286252D01*
X0247752Y0288651D02*
X0281378Y0288651D01*
X0281378Y0291049D02*
X0247976Y0291049D01*
X0247976Y0293448D02*
X0281378Y0293448D01*
X0281378Y0295846D02*
X0247976Y0295846D01*
X0247530Y0298245D02*
X0281378Y0298245D01*
X0281378Y0300643D02*
X0245785Y0300643D01*
X0238231Y0300643D02*
X0235785Y0300643D01*
X0228231Y0300643D02*
X0225785Y0300643D01*
X0226615Y0303042D02*
X0281378Y0303042D01*
X0282165Y0301368D02*
X0285709Y0297825D01*
X0285709Y0292313D01*
X0285974Y0292579D01*
X0294341Y0292579D01*
X0294606Y0292313D01*
X0303819Y0292313D01*
X0303917Y0292215D01*
X0303917Y0287116D01*
X0303819Y0292313D02*
X0306181Y0292313D01*
X0309213Y0295344D01*
X0309213Y0310423D01*
X0309213Y0319793D01*
X0308740Y0320266D01*
X0366811Y0320266D01*
X0369055Y0318022D01*
X0369055Y0310423D01*
X0379055Y0310423D01*
X0359055Y0310423D02*
X0359055Y0298533D01*
X0358937Y0298415D01*
X0358740Y0298612D01*
X0359055Y0310423D02*
X0349055Y0310423D01*
X0339134Y0310423D02*
X0339134Y0298533D01*
X0339252Y0298415D01*
X0339252Y0290935D02*
X0339252Y0282864D01*
X0338209Y0281821D01*
X0334528Y0281821D01*
X0334528Y0274341D01*
X0323799Y0274341D01*
X0323799Y0266142D01*
X0315600Y0266142D01*
X0303917Y0280423D02*
X0295472Y0280423D01*
X0294341Y0281555D01*
X0293209Y0280423D01*
X0289252Y0280423D01*
X0285974Y0280423D01*
X0285974Y0287116D02*
X0285709Y0287382D01*
X0285709Y0292313D01*
X0281378Y0305440D02*
X0227851Y0305440D01*
X0227937Y0307839D02*
X0281378Y0307839D01*
X0281378Y0310237D02*
X0227937Y0310237D01*
X0227937Y0312636D02*
X0281378Y0312636D01*
X0281378Y0315034D02*
X0227352Y0315034D01*
X0225412Y0317433D02*
X0281378Y0317433D01*
X0281378Y0319831D02*
X0008150Y0319831D01*
X0008150Y0317433D02*
X0018446Y0317433D01*
X0016506Y0315034D02*
X0008150Y0315034D01*
X0008150Y0312636D02*
X0015921Y0312636D01*
X0015921Y0310237D02*
X0008150Y0310237D01*
X0008150Y0307839D02*
X0015921Y0307839D01*
X0016008Y0305440D02*
X0008150Y0305440D01*
X0008150Y0303042D02*
X0017243Y0303042D01*
X0018039Y0300643D02*
X0015785Y0300643D01*
X0008231Y0300643D02*
X0008150Y0300643D01*
X0025334Y0317433D02*
X0028446Y0317433D01*
X0035334Y0317433D02*
X0038446Y0317433D01*
X0045334Y0317433D02*
X0048446Y0317433D01*
X0055334Y0317433D02*
X0058485Y0317433D01*
X0065373Y0317433D02*
X0068485Y0317433D01*
X0075373Y0317433D02*
X0078485Y0317433D01*
X0085373Y0317433D02*
X0088525Y0317433D01*
X0095412Y0317433D02*
X0098525Y0317433D01*
X0105412Y0317433D02*
X0108525Y0317433D01*
X0115412Y0317433D02*
X0118525Y0317433D01*
X0125412Y0317433D02*
X0128682Y0317433D01*
X0135570Y0317433D02*
X0138682Y0317433D01*
X0145570Y0317433D02*
X0148682Y0317433D01*
X0155570Y0317433D02*
X0158682Y0317433D01*
X0165570Y0317433D02*
X0168603Y0317433D01*
X0175491Y0317433D02*
X0178603Y0317433D01*
X0185491Y0317433D02*
X0191555Y0317433D01*
X0191968Y0317433D02*
X0191969Y0317433D01*
X0192382Y0317433D02*
X0201555Y0317433D01*
X0201968Y0317433D02*
X0201969Y0317433D01*
X0202382Y0317433D02*
X0208525Y0317433D01*
X0206585Y0315034D02*
X0206256Y0315034D01*
X0201969Y0315034D02*
X0201968Y0315034D01*
X0201968Y0312636D02*
X0201969Y0312636D01*
X0201968Y0310237D02*
X0201969Y0310237D01*
X0196969Y0310237D02*
X0196968Y0310237D01*
X0196968Y0307839D02*
X0196969Y0307839D01*
X0197165Y0305440D02*
X0196772Y0305440D01*
X0195245Y0303042D02*
X0198692Y0303042D01*
X0198231Y0300643D02*
X0195785Y0300643D01*
X0191969Y0309636D02*
X0192008Y0309675D01*
X0192008Y0318297D01*
X0195157Y0321447D01*
X0254606Y0321447D01*
X0257362Y0318691D01*
X0257362Y0310423D01*
X0257362Y0241919D01*
X0279578Y0255071D02*
X0129179Y0255071D01*
X0131319Y0257470D02*
X0279578Y0257470D01*
X0279578Y0259868D02*
X0132313Y0259868D01*
X0132578Y0262267D02*
X0279578Y0262267D01*
X0279578Y0264665D02*
X0132416Y0264665D01*
X0131423Y0267064D02*
X0280327Y0267064D01*
X0318780Y0291132D02*
X0328819Y0291132D01*
X0329016Y0290935D01*
X0329213Y0291132D01*
X0329016Y0298415D02*
X0329134Y0298533D01*
X0329134Y0310423D01*
X0301260Y0312470D02*
X0301260Y0320266D01*
X0301260Y0312470D02*
X0299213Y0310423D01*
X0273110Y0310030D02*
X0272717Y0310423D01*
X0257362Y0310423D01*
X0237694Y0286252D02*
X0236322Y0286252D01*
X0227694Y0286252D02*
X0226322Y0286252D01*
X0217694Y0286252D02*
X0216322Y0286252D01*
X0207694Y0286252D02*
X0206322Y0286252D01*
X0197694Y0286252D02*
X0196322Y0286252D01*
X0187694Y0286252D02*
X0186322Y0286252D01*
X0177694Y0286252D02*
X0176322Y0286252D01*
X0167694Y0286252D02*
X0166322Y0286252D01*
X0157694Y0286252D02*
X0156322Y0286252D01*
X0147694Y0286252D02*
X0146322Y0286252D01*
X0137694Y0286252D02*
X0136322Y0286252D01*
X0127694Y0286252D02*
X0126322Y0286252D01*
X0117694Y0286252D02*
X0116322Y0286252D01*
X0107694Y0286252D02*
X0106322Y0286252D01*
X0097694Y0286252D02*
X0096322Y0286252D01*
X0087694Y0286252D02*
X0086322Y0286252D01*
X0105747Y0240680D02*
X0108268Y0240680D01*
X0115747Y0240680D02*
X0118268Y0240680D01*
X0125747Y0240680D02*
X0128268Y0240680D01*
X0135747Y0240680D02*
X0138268Y0240680D01*
X0145747Y0240680D02*
X0148268Y0240680D01*
X0155747Y0240680D02*
X0158268Y0240680D01*
X0165747Y0240680D02*
X0168268Y0240680D01*
X0175747Y0240680D02*
X0178268Y0240680D01*
X0185747Y0240680D02*
X0188268Y0240680D01*
X0195747Y0240680D02*
X0198268Y0240680D01*
X0190039Y0173522D02*
X0181939Y0173522D01*
X0182578Y0171123D02*
X0190039Y0171123D01*
X0190039Y0168725D02*
X0182578Y0168725D01*
X0181256Y0166326D02*
X0190039Y0166326D01*
X0320217Y0243199D02*
X0320354Y0243337D01*
X0218525Y0317433D02*
X0215412Y0317433D01*
X0197681Y0315034D02*
X0196256Y0315034D01*
X0196968Y0312636D02*
X0196969Y0312636D01*
X0191969Y0312636D02*
X0191968Y0312636D01*
X0191968Y0315034D02*
X0191969Y0315034D01*
X0187681Y0315034D02*
X0187431Y0315034D01*
X0191968Y0310237D02*
X0191969Y0310237D01*
X0039417Y0079980D02*
X0008150Y0079980D01*
X0008150Y0077582D02*
X0040008Y0077582D01*
X0030798Y0075183D02*
X0008150Y0075183D01*
X0008150Y0072785D02*
X0030572Y0072785D01*
X0030572Y0070386D02*
X0008150Y0070386D01*
X0008150Y0067988D02*
X0030572Y0067988D01*
D26*
X0035315Y0071053D02*
X0035315Y0040344D01*
X0024291Y0040344D02*
X0024291Y0056250D01*
X0023976Y0056250D01*
X0035315Y0071053D02*
X0036299Y0071053D01*
X0043780Y0071053D02*
X0044567Y0071053D01*
X0044567Y0060423D01*
X0052047Y0060423D02*
X0052244Y0060423D01*
X0052244Y0041132D01*
X0063268Y0041132D02*
X0063976Y0041132D01*
X0063976Y0056250D01*
X0043976Y0071250D02*
X0043780Y0071053D01*
X0043976Y0071250D02*
X0043976Y0080108D01*
X0053031Y0080502D02*
X0054606Y0078927D01*
X0058937Y0078927D01*
X0053031Y0080502D02*
X0053031Y0103337D01*
X0092795Y0103337D01*
X0098110Y0103337D01*
X0099094Y0102352D01*
X0099094Y0104124D01*
X0101063Y0106093D01*
X0108937Y0106093D01*
X0118780Y0106093D01*
X0118780Y0108455D01*
X0125866Y0108455D01*
X0148701Y0108455D01*
X0152244Y0111998D01*
X0152244Y0126565D01*
X0151850Y0126959D01*
X0142677Y0126959D01*
X0141220Y0128415D01*
X0151850Y0126959D02*
X0188661Y0126959D01*
X0188661Y0136014D01*
X0198110Y0136493D02*
X0200501Y0136493D01*
X0200501Y0139400D01*
X0200378Y0139858D01*
X0200141Y0140269D01*
X0199806Y0140604D01*
X0199396Y0140841D01*
X0198938Y0140963D01*
X0198110Y0140963D01*
X0198110Y0195463D01*
X0205197Y0202549D01*
X0228397Y0202549D01*
X0228397Y0201525D01*
X0228520Y0201067D01*
X0228756Y0200657D01*
X0229092Y0200321D01*
X0229502Y0200084D01*
X0229960Y0199962D01*
X0232867Y0199962D01*
X0232867Y0202549D01*
X0233826Y0202549D01*
X0233826Y0199962D01*
X0236733Y0199962D01*
X0237191Y0200084D01*
X0237601Y0200321D01*
X0237874Y0200594D01*
X0238147Y0200321D01*
X0238557Y0200084D01*
X0239015Y0199962D01*
X0241922Y0199962D01*
X0241922Y0202549D01*
X0242881Y0202549D01*
X0242881Y0199962D01*
X0245788Y0199962D01*
X0246246Y0200084D01*
X0246656Y0200321D01*
X0246992Y0200657D01*
X0247229Y0201067D01*
X0247351Y0201525D01*
X0247351Y0202549D01*
X0261299Y0202549D01*
X0265205Y0206455D01*
X0277837Y0206455D01*
X0279295Y0207059D01*
X0280412Y0208175D01*
X0284742Y0212506D01*
X0285346Y0213965D01*
X0285346Y0217313D01*
X0290998Y0217313D01*
X0290998Y0216839D01*
X0291512Y0215600D01*
X0292460Y0214651D01*
X0293699Y0214138D01*
X0295041Y0214138D01*
X0296280Y0214651D01*
X0297228Y0215600D01*
X0297742Y0216839D01*
X0297742Y0217313D01*
X0319764Y0217313D01*
X0333937Y0231486D01*
X0333937Y0257470D01*
X0330394Y0261014D01*
X0330394Y0263967D01*
X0333346Y0266919D01*
X0354606Y0266919D01*
X0370551Y0282864D01*
X0394357Y0282864D01*
X0394357Y0015148D01*
X0198110Y0015148D01*
X0198110Y0122009D01*
X0198938Y0122009D01*
X0199396Y0122132D01*
X0199806Y0122369D01*
X0200141Y0122704D01*
X0200378Y0123114D01*
X0200501Y0123572D01*
X0200501Y0126479D01*
X0198110Y0126479D01*
X0198110Y0127438D01*
X0200501Y0127438D01*
X0200501Y0130345D01*
X0200378Y0130803D01*
X0200141Y0131213D01*
X0199868Y0131486D01*
X0200141Y0131759D01*
X0200378Y0132169D01*
X0200501Y0132627D01*
X0200501Y0135534D01*
X0198110Y0135534D01*
X0198110Y0136493D01*
X0200501Y0136706D02*
X0268336Y0136706D01*
X0268164Y0136291D02*
X0268164Y0134949D01*
X0268677Y0133710D01*
X0269626Y0132762D01*
X0270865Y0132248D01*
X0272206Y0132248D01*
X0272666Y0132439D01*
X0305050Y0132439D01*
X0305510Y0132248D01*
X0306852Y0132248D01*
X0308091Y0132762D01*
X0309039Y0133710D01*
X0309553Y0134949D01*
X0309553Y0136291D01*
X0309039Y0137530D01*
X0308091Y0138478D01*
X0306852Y0138992D01*
X0305510Y0138992D01*
X0305050Y0138801D01*
X0272666Y0138801D01*
X0272206Y0138992D01*
X0270865Y0138992D01*
X0269626Y0138478D01*
X0268677Y0137530D01*
X0268164Y0136291D01*
X0268164Y0135107D02*
X0200501Y0135107D01*
X0200501Y0133509D02*
X0268879Y0133509D01*
X0269451Y0138304D02*
X0200501Y0138304D01*
X0200352Y0139903D02*
X0369161Y0139903D01*
X0369161Y0141501D02*
X0198110Y0141501D01*
X0198110Y0143100D02*
X0369161Y0143100D01*
X0369161Y0144698D02*
X0198110Y0144698D01*
X0198110Y0146297D02*
X0394357Y0146297D01*
X0394357Y0147895D02*
X0198110Y0147895D01*
X0198110Y0149494D02*
X0394357Y0149494D01*
X0394357Y0151092D02*
X0198110Y0151092D01*
X0198110Y0152691D02*
X0394357Y0152691D01*
X0394357Y0154289D02*
X0198110Y0154289D01*
X0198110Y0155888D02*
X0394357Y0155888D01*
X0394357Y0157486D02*
X0392215Y0157486D01*
X0391611Y0156882D02*
X0392956Y0158227D01*
X0393683Y0159984D01*
X0393683Y0161886D01*
X0392956Y0163643D01*
X0391611Y0164988D01*
X0389853Y0165716D01*
X0382351Y0165716D01*
X0380594Y0164988D01*
X0379249Y0163643D01*
X0378521Y0161886D01*
X0378521Y0159984D01*
X0379249Y0158227D01*
X0380594Y0156882D01*
X0382351Y0156154D01*
X0389853Y0156154D01*
X0391611Y0156882D01*
X0393311Y0159085D02*
X0394357Y0159085D01*
X0394357Y0160683D02*
X0393683Y0160683D01*
X0393520Y0162282D02*
X0394357Y0162282D01*
X0394357Y0163880D02*
X0392719Y0163880D01*
X0394357Y0165479D02*
X0390426Y0165479D01*
X0389980Y0166448D02*
X0390668Y0166672D01*
X0391313Y0167001D01*
X0391899Y0167426D01*
X0392411Y0167938D01*
X0392837Y0168524D01*
X0393165Y0169169D01*
X0393389Y0169858D01*
X0393502Y0170573D01*
X0393502Y0170835D01*
X0386202Y0170835D01*
X0386202Y0166335D01*
X0389264Y0166335D01*
X0389980Y0166448D01*
X0391419Y0167077D02*
X0394357Y0167077D01*
X0394357Y0168676D02*
X0392914Y0168676D01*
X0393455Y0170274D02*
X0394357Y0170274D01*
X0393502Y0171035D02*
X0393502Y0171297D01*
X0393389Y0172012D01*
X0393165Y0172701D01*
X0392837Y0173346D01*
X0392411Y0173932D01*
X0391899Y0174444D01*
X0391313Y0174869D01*
X0390668Y0175198D01*
X0389980Y0175422D01*
X0389264Y0175535D01*
X0386202Y0175535D01*
X0386202Y0171035D01*
X0386002Y0171035D01*
X0386002Y0170835D01*
X0378702Y0170835D01*
X0378702Y0170573D01*
X0378816Y0169858D01*
X0379039Y0169169D01*
X0379368Y0168524D01*
X0379794Y0167938D01*
X0380306Y0167426D01*
X0380891Y0167001D01*
X0381537Y0166672D01*
X0382225Y0166448D01*
X0382940Y0166335D01*
X0386002Y0166335D01*
X0386002Y0170835D01*
X0386202Y0170835D01*
X0386202Y0171035D01*
X0393502Y0171035D01*
X0393411Y0171873D02*
X0394357Y0171873D01*
X0394357Y0173471D02*
X0392745Y0173471D01*
X0394357Y0175070D02*
X0390920Y0175070D01*
X0394357Y0176668D02*
X0198110Y0176668D01*
X0198110Y0175070D02*
X0381285Y0175070D01*
X0381537Y0175198D02*
X0380891Y0174869D01*
X0380306Y0174444D01*
X0379794Y0173932D01*
X0379368Y0173346D01*
X0379039Y0172701D01*
X0378816Y0172012D01*
X0378702Y0171297D01*
X0378702Y0171035D01*
X0386002Y0171035D01*
X0386002Y0175535D01*
X0382940Y0175535D01*
X0382225Y0175422D01*
X0381537Y0175198D01*
X0379459Y0173471D02*
X0198110Y0173471D01*
X0198110Y0171873D02*
X0378794Y0171873D01*
X0378750Y0170274D02*
X0198110Y0170274D01*
X0198110Y0168676D02*
X0379291Y0168676D01*
X0380786Y0167077D02*
X0198110Y0167077D01*
X0198110Y0165479D02*
X0381778Y0165479D01*
X0379486Y0163880D02*
X0198110Y0163880D01*
X0198110Y0162282D02*
X0378685Y0162282D01*
X0378521Y0160683D02*
X0198110Y0160683D01*
X0198110Y0159085D02*
X0378894Y0159085D01*
X0379990Y0157486D02*
X0198110Y0157486D01*
X0201063Y0156880D02*
X0202638Y0158455D01*
X0201063Y0156880D02*
X0158937Y0156880D01*
X0156181Y0159636D01*
X0156181Y0167510D01*
X0146732Y0167510D01*
X0146535Y0168691D02*
X0143583Y0168691D01*
X0141614Y0170659D01*
X0141614Y0172628D01*
X0146535Y0168691D02*
X0146732Y0168888D01*
X0134134Y0172628D02*
X0134134Y0183258D01*
X0133543Y0183258D01*
X0128228Y0172628D02*
X0128228Y0159636D01*
X0128425Y0159636D01*
X0128425Y0156683D01*
X0126654Y0154911D01*
X0067205Y0154911D01*
X0063268Y0163573D02*
X0062874Y0163967D01*
X0035906Y0163967D01*
X0028425Y0163967D02*
X0028425Y0154911D01*
X0035906Y0154911D02*
X0035906Y0145463D01*
X0028425Y0145463D02*
X0015906Y0145463D01*
X0015630Y0145187D01*
X0015906Y0154911D02*
X0015630Y0155187D01*
X0053031Y0142707D02*
X0063071Y0142707D01*
X0063268Y0142510D01*
X0063268Y0163573D01*
X0063268Y0190344D01*
X0070354Y0197431D01*
X0111693Y0197431D01*
X0102835Y0197431D01*
X0102835Y0182077D01*
X0102638Y0181880D02*
X0102638Y0169085D01*
X0104213Y0167510D01*
X0109921Y0167510D01*
X0110118Y0167707D01*
X0110315Y0167510D01*
X0116417Y0167510D01*
X0116417Y0161211D01*
X0117992Y0159636D01*
X0121732Y0159636D01*
X0128425Y0159636D02*
X0135709Y0159636D01*
X0122717Y0128533D02*
X0103425Y0128533D01*
X0096732Y0135226D01*
X0081969Y0135226D01*
X0081772Y0135423D01*
X0080591Y0135423D01*
X0080591Y0128927D01*
X0081772Y0135423D02*
X0070354Y0135423D01*
X0070354Y0135817D01*
X0072323Y0135817D01*
X0072323Y0136014D01*
X0070354Y0135817D02*
X0063268Y0135817D01*
X0063268Y0142510D02*
X0068189Y0147431D01*
X0071929Y0147431D01*
X0072323Y0147037D01*
X0072717Y0147431D01*
X0077244Y0147431D01*
X0081772Y0142904D01*
X0108937Y0124203D02*
X0108937Y0106093D01*
X0108937Y0106486D01*
X0118780Y0106093D02*
X0118780Y0102746D01*
X0118780Y0095266D02*
X0109134Y0095266D01*
X0108937Y0095069D01*
X0099685Y0095069D01*
X0099488Y0095266D01*
X0099488Y0088770D01*
X0099488Y0084045D02*
X0104606Y0084045D01*
X0106969Y0081683D01*
X0106969Y0058455D01*
X0118780Y0095266D02*
X0131575Y0095266D01*
X0132165Y0095856D01*
X0141220Y0118415D02*
X0122717Y0118415D01*
X0122717Y0118533D01*
X0099488Y0101959D02*
X0099094Y0102352D01*
X0024291Y0040344D02*
X0023976Y0040344D01*
X0198110Y0040795D02*
X0394357Y0040795D01*
X0394357Y0042393D02*
X0198110Y0042393D01*
X0198110Y0043992D02*
X0394357Y0043992D01*
X0394357Y0045590D02*
X0198110Y0045590D01*
X0198110Y0047189D02*
X0394357Y0047189D01*
X0394357Y0048787D02*
X0198110Y0048787D01*
X0198110Y0050386D02*
X0394357Y0050386D01*
X0394357Y0051985D02*
X0198110Y0051985D01*
X0198110Y0053583D02*
X0394357Y0053583D01*
X0394357Y0055182D02*
X0198110Y0055182D01*
X0198110Y0056780D02*
X0394357Y0056780D01*
X0394357Y0058379D02*
X0198110Y0058379D01*
X0198110Y0059977D02*
X0394357Y0059977D01*
X0394357Y0061576D02*
X0198110Y0061576D01*
X0198110Y0063174D02*
X0394357Y0063174D01*
X0394357Y0064773D02*
X0332553Y0064773D01*
X0332694Y0064854D02*
X0333428Y0065417D01*
X0334081Y0066070D01*
X0334644Y0066804D01*
X0335106Y0067604D01*
X0335459Y0068458D01*
X0335699Y0069350D01*
X0335775Y0069929D01*
X0329569Y0069929D01*
X0329569Y0063723D01*
X0330148Y0063799D01*
X0331040Y0064039D01*
X0331894Y0064392D01*
X0332694Y0064854D01*
X0334312Y0066371D02*
X0394357Y0066371D01*
X0394357Y0067970D02*
X0335257Y0067970D01*
X0335727Y0069568D02*
X0394357Y0069568D01*
X0394357Y0071167D02*
X0329569Y0071167D01*
X0329569Y0071529D02*
X0335775Y0071529D01*
X0335699Y0072107D01*
X0335459Y0073000D01*
X0335106Y0073854D01*
X0334644Y0074654D01*
X0334081Y0075387D01*
X0333428Y0076041D01*
X0332694Y0076603D01*
X0331894Y0077065D01*
X0331040Y0077419D01*
X0330148Y0077658D01*
X0329569Y0077734D01*
X0329569Y0071529D01*
X0327969Y0071529D01*
X0327969Y0069929D01*
X0321764Y0069929D01*
X0321840Y0069350D01*
X0322079Y0068458D01*
X0322433Y0067604D01*
X0322895Y0066804D01*
X0323457Y0066070D01*
X0324111Y0065417D01*
X0324844Y0064854D01*
X0325644Y0064392D01*
X0326498Y0064039D01*
X0327391Y0063799D01*
X0327969Y0063723D01*
X0327969Y0069929D01*
X0329569Y0069929D01*
X0329569Y0071529D01*
X0329569Y0072765D02*
X0327969Y0072765D01*
X0327969Y0071529D02*
X0327969Y0077734D01*
X0327391Y0077658D01*
X0326610Y0077449D01*
X0327280Y0079067D01*
X0327280Y0082468D01*
X0326610Y0084087D01*
X0327391Y0083877D01*
X0327969Y0083801D01*
X0327969Y0090007D01*
X0321764Y0090007D01*
X0321840Y0089428D01*
X0322049Y0088647D01*
X0320431Y0089318D01*
X0317030Y0089318D01*
X0315411Y0088647D01*
X0315621Y0089428D01*
X0315697Y0090007D01*
X0309491Y0090007D01*
X0309491Y0083801D01*
X0310070Y0083877D01*
X0310851Y0084087D01*
X0310180Y0082468D01*
X0310180Y0079067D01*
X0310851Y0077449D01*
X0310070Y0077658D01*
X0309491Y0077734D01*
X0309491Y0071529D01*
X0307891Y0071529D01*
X0307891Y0069929D01*
X0301686Y0069929D01*
X0301762Y0069350D01*
X0302001Y0068458D01*
X0302355Y0067604D01*
X0302817Y0066804D01*
X0303379Y0066070D01*
X0304033Y0065417D01*
X0304766Y0064854D01*
X0305567Y0064392D01*
X0306420Y0064039D01*
X0307313Y0063799D01*
X0307891Y0063723D01*
X0307891Y0069929D01*
X0309491Y0069929D01*
X0309491Y0063723D01*
X0310070Y0063799D01*
X0310962Y0064039D01*
X0311816Y0064392D01*
X0312617Y0064854D01*
X0313350Y0065417D01*
X0314003Y0066070D01*
X0314566Y0066804D01*
X0315028Y0067604D01*
X0315382Y0068458D01*
X0315621Y0069350D01*
X0315697Y0069929D01*
X0309491Y0069929D01*
X0309491Y0071529D01*
X0315697Y0071529D01*
X0315621Y0072107D01*
X0315411Y0072888D01*
X0317030Y0072218D01*
X0320431Y0072218D01*
X0322049Y0072888D01*
X0321840Y0072107D01*
X0321764Y0071529D01*
X0327969Y0071529D01*
X0327969Y0071167D02*
X0309491Y0071167D01*
X0309491Y0072765D02*
X0307891Y0072765D01*
X0307891Y0071529D02*
X0307891Y0077734D01*
X0307313Y0077658D01*
X0306420Y0077419D01*
X0305567Y0077065D01*
X0304766Y0076603D01*
X0304033Y0076041D01*
X0303379Y0075387D01*
X0302817Y0074654D01*
X0302355Y0073854D01*
X0302001Y0073000D01*
X0301762Y0072107D01*
X0301686Y0071529D01*
X0307891Y0071529D01*
X0307891Y0071167D02*
X0198110Y0071167D01*
X0198110Y0072765D02*
X0301938Y0072765D01*
X0302649Y0074364D02*
X0198110Y0074364D01*
X0198110Y0075962D02*
X0303955Y0075962D01*
X0306950Y0077561D02*
X0198110Y0077561D01*
X0198110Y0079159D02*
X0310180Y0079159D01*
X0310180Y0080758D02*
X0198110Y0080758D01*
X0198110Y0082356D02*
X0310180Y0082356D01*
X0310359Y0083955D02*
X0310796Y0083955D01*
X0309491Y0083955D02*
X0307891Y0083955D01*
X0307891Y0083801D02*
X0307891Y0090007D01*
X0301686Y0090007D01*
X0301762Y0089428D01*
X0302001Y0088536D01*
X0302355Y0087682D01*
X0302817Y0086882D01*
X0303379Y0086148D01*
X0304033Y0085495D01*
X0304766Y0084932D01*
X0305567Y0084470D01*
X0306420Y0084117D01*
X0307313Y0083877D01*
X0307891Y0083801D01*
X0307024Y0083955D02*
X0198110Y0083955D01*
X0198110Y0085553D02*
X0303975Y0085553D01*
X0302661Y0087152D02*
X0198110Y0087152D01*
X0198110Y0088750D02*
X0301944Y0088750D01*
X0301686Y0091607D02*
X0307891Y0091607D01*
X0307891Y0090007D01*
X0309491Y0090007D01*
X0309491Y0091607D01*
X0307891Y0091607D01*
X0307891Y0097812D01*
X0307313Y0097736D01*
X0306420Y0097497D01*
X0305567Y0097143D01*
X0304766Y0096681D01*
X0304033Y0096119D01*
X0303379Y0095465D01*
X0302817Y0094732D01*
X0302355Y0093932D01*
X0302001Y0093078D01*
X0301762Y0092185D01*
X0301686Y0091607D01*
X0301731Y0091947D02*
X0198110Y0091947D01*
X0198110Y0090349D02*
X0307891Y0090349D01*
X0307891Y0091947D02*
X0309491Y0091947D01*
X0309491Y0091607D02*
X0309491Y0097812D01*
X0310070Y0097736D01*
X0310962Y0097497D01*
X0311816Y0097143D01*
X0312617Y0096681D01*
X0313350Y0096119D01*
X0314003Y0095465D01*
X0314566Y0094732D01*
X0315028Y0093932D01*
X0315382Y0093078D01*
X0315621Y0092185D01*
X0315697Y0091607D01*
X0309491Y0091607D01*
X0309491Y0090349D02*
X0327969Y0090349D01*
X0327969Y0090007D02*
X0327969Y0091607D01*
X0327969Y0097812D01*
X0327391Y0097736D01*
X0326498Y0097497D01*
X0325644Y0097143D01*
X0324844Y0096681D01*
X0324111Y0096119D01*
X0323457Y0095465D01*
X0322895Y0094732D01*
X0322433Y0093932D01*
X0322079Y0093078D01*
X0321840Y0092185D01*
X0321764Y0091607D01*
X0327969Y0091607D01*
X0329569Y0091607D01*
X0329569Y0097812D01*
X0330148Y0097736D01*
X0331040Y0097497D01*
X0331894Y0097143D01*
X0332694Y0096681D01*
X0333428Y0096119D01*
X0334081Y0095465D01*
X0334644Y0094732D01*
X0335106Y0093932D01*
X0335459Y0093078D01*
X0335699Y0092185D01*
X0335775Y0091607D01*
X0329569Y0091607D01*
X0329569Y0090007D01*
X0335775Y0090007D01*
X0335699Y0089428D01*
X0335459Y0088536D01*
X0335106Y0087682D01*
X0334644Y0086882D01*
X0334081Y0086148D01*
X0333428Y0085495D01*
X0332694Y0084932D01*
X0331894Y0084470D01*
X0331040Y0084117D01*
X0330148Y0083877D01*
X0329569Y0083801D01*
X0329569Y0090007D01*
X0327969Y0090007D01*
X0327969Y0088750D02*
X0329569Y0088750D01*
X0329569Y0087152D02*
X0327969Y0087152D01*
X0327969Y0085553D02*
X0329569Y0085553D01*
X0329569Y0083955D02*
X0327969Y0083955D01*
X0327102Y0083955D02*
X0326665Y0083955D01*
X0327280Y0082356D02*
X0394357Y0082356D01*
X0394357Y0080758D02*
X0327280Y0080758D01*
X0327280Y0079159D02*
X0394357Y0079159D01*
X0394357Y0077561D02*
X0330511Y0077561D01*
X0329569Y0077561D02*
X0327969Y0077561D01*
X0327027Y0077561D02*
X0326656Y0077561D01*
X0327969Y0075962D02*
X0329569Y0075962D01*
X0329569Y0074364D02*
X0327969Y0074364D01*
X0327969Y0069568D02*
X0329569Y0069568D01*
X0329569Y0067970D02*
X0327969Y0067970D01*
X0327969Y0066371D02*
X0329569Y0066371D01*
X0329569Y0064773D02*
X0327969Y0064773D01*
X0324986Y0064773D02*
X0312475Y0064773D01*
X0314234Y0066371D02*
X0323227Y0066371D01*
X0322281Y0067970D02*
X0315179Y0067970D01*
X0315649Y0069568D02*
X0321811Y0069568D01*
X0321753Y0072765D02*
X0322016Y0072765D01*
X0315708Y0072765D02*
X0315444Y0072765D01*
X0309491Y0074364D02*
X0307891Y0074364D01*
X0307891Y0075962D02*
X0309491Y0075962D01*
X0309491Y0077561D02*
X0307891Y0077561D01*
X0310433Y0077561D02*
X0310804Y0077561D01*
X0309491Y0085553D02*
X0307891Y0085553D01*
X0307891Y0087152D02*
X0309491Y0087152D01*
X0309491Y0088750D02*
X0307891Y0088750D01*
X0307891Y0093546D02*
X0309491Y0093546D01*
X0309491Y0095144D02*
X0307891Y0095144D01*
X0307891Y0096743D02*
X0309491Y0096743D01*
X0312510Y0096743D02*
X0324951Y0096743D01*
X0323211Y0095144D02*
X0314249Y0095144D01*
X0315188Y0093546D02*
X0322273Y0093546D01*
X0321809Y0091947D02*
X0315652Y0091947D01*
X0315660Y0088750D02*
X0315439Y0088750D01*
X0321801Y0088750D02*
X0322022Y0088750D01*
X0327969Y0091947D02*
X0329569Y0091947D01*
X0329569Y0090349D02*
X0394357Y0090349D01*
X0394357Y0091947D02*
X0335730Y0091947D01*
X0335266Y0093546D02*
X0394357Y0093546D01*
X0394357Y0095144D02*
X0334327Y0095144D01*
X0332588Y0096743D02*
X0394357Y0096743D01*
X0394357Y0098341D02*
X0198110Y0098341D01*
X0198110Y0096743D02*
X0304873Y0096743D01*
X0303133Y0095144D02*
X0198110Y0095144D01*
X0198110Y0093546D02*
X0302195Y0093546D01*
X0327969Y0093546D02*
X0329569Y0093546D01*
X0329569Y0095144D02*
X0327969Y0095144D01*
X0327969Y0096743D02*
X0329569Y0096743D01*
X0335517Y0088750D02*
X0394357Y0088750D01*
X0394357Y0087152D02*
X0334800Y0087152D01*
X0333486Y0085553D02*
X0394357Y0085553D01*
X0394357Y0083955D02*
X0330437Y0083955D01*
X0333506Y0075962D02*
X0394357Y0075962D01*
X0394357Y0074364D02*
X0334811Y0074364D01*
X0335522Y0072765D02*
X0394357Y0072765D01*
X0394357Y0099940D02*
X0198110Y0099940D01*
X0198110Y0101538D02*
X0394357Y0101538D01*
X0394357Y0103137D02*
X0198110Y0103137D01*
X0198110Y0104735D02*
X0394357Y0104735D01*
X0394357Y0106334D02*
X0198110Y0106334D01*
X0198110Y0107932D02*
X0394357Y0107932D01*
X0394357Y0109531D02*
X0198110Y0109531D01*
X0198110Y0111129D02*
X0394357Y0111129D01*
X0394357Y0112728D02*
X0198110Y0112728D01*
X0198110Y0114326D02*
X0394357Y0114326D01*
X0394357Y0115925D02*
X0390355Y0115925D01*
X0390329Y0115915D02*
X0392160Y0116673D01*
X0393561Y0118074D01*
X0394320Y0119905D01*
X0394320Y0121886D01*
X0393561Y0123717D01*
X0392160Y0125118D01*
X0390329Y0125877D01*
X0382348Y0125877D01*
X0380517Y0125118D01*
X0379116Y0123717D01*
X0378357Y0121886D01*
X0378357Y0119905D01*
X0379116Y0118074D01*
X0380517Y0116673D01*
X0382348Y0115915D01*
X0390329Y0115915D01*
X0393011Y0117523D02*
X0394357Y0117523D01*
X0394357Y0119122D02*
X0393995Y0119122D01*
X0394320Y0120721D02*
X0394357Y0120721D01*
X0394357Y0122319D02*
X0394141Y0122319D01*
X0394357Y0123918D02*
X0393361Y0123918D01*
X0394357Y0125516D02*
X0391200Y0125516D01*
X0391181Y0126447D02*
X0391854Y0126790D01*
X0392466Y0127234D01*
X0393000Y0127769D01*
X0393444Y0128380D01*
X0393787Y0129053D01*
X0394020Y0129772D01*
X0394139Y0130518D01*
X0394139Y0130696D01*
X0386539Y0130696D01*
X0386539Y0131096D01*
X0394139Y0131096D01*
X0394139Y0131273D01*
X0394020Y0132020D01*
X0393787Y0132738D01*
X0393444Y0133411D01*
X0393000Y0134023D01*
X0392466Y0134557D01*
X0391854Y0135001D01*
X0391181Y0135344D01*
X0390463Y0135577D01*
X0389716Y0135696D01*
X0386539Y0135696D01*
X0386539Y0131096D01*
X0386139Y0131096D01*
X0386139Y0135696D01*
X0382961Y0135696D01*
X0382215Y0135577D01*
X0381496Y0135344D01*
X0380823Y0135001D01*
X0380212Y0134557D01*
X0379796Y0134142D01*
X0379669Y0134363D01*
X0379334Y0134698D01*
X0378923Y0134935D01*
X0378465Y0135058D01*
X0375460Y0135058D01*
X0375460Y0130883D01*
X0380028Y0130883D01*
X0380028Y0131096D01*
X0386138Y0131096D01*
X0386138Y0130696D01*
X0378539Y0130696D01*
X0378539Y0130518D01*
X0378657Y0129772D01*
X0378799Y0129333D01*
X0375460Y0129333D01*
X0375460Y0125159D01*
X0378465Y0125159D01*
X0378923Y0125281D01*
X0379334Y0125518D01*
X0379669Y0125853D01*
X0379906Y0126264D01*
X0380028Y0126722D01*
X0380028Y0127418D01*
X0380212Y0127234D01*
X0380823Y0126790D01*
X0381496Y0126447D01*
X0382215Y0126214D01*
X0382961Y0126096D01*
X0386139Y0126096D01*
X0386139Y0130696D01*
X0386539Y0130696D01*
X0386539Y0126096D01*
X0389716Y0126096D01*
X0390463Y0126214D01*
X0391181Y0126447D01*
X0392301Y0127115D02*
X0394357Y0127115D01*
X0394357Y0128713D02*
X0393614Y0128713D01*
X0394106Y0130312D02*
X0394357Y0130312D01*
X0394357Y0131910D02*
X0394038Y0131910D01*
X0394357Y0133509D02*
X0393373Y0133509D01*
X0394357Y0135107D02*
X0391646Y0135107D01*
X0390329Y0135915D02*
X0392160Y0136673D01*
X0393561Y0138074D01*
X0394320Y0139905D01*
X0394320Y0141886D01*
X0393561Y0143717D01*
X0392160Y0145118D01*
X0390329Y0145877D01*
X0382348Y0145877D01*
X0380517Y0145118D01*
X0380209Y0144811D01*
X0380209Y0145102D01*
X0379049Y0146263D01*
X0370321Y0146263D01*
X0369161Y0145102D01*
X0369161Y0137162D01*
X0370321Y0136001D01*
X0379049Y0136001D01*
X0380119Y0137071D01*
X0380517Y0136673D01*
X0382348Y0135915D01*
X0390329Y0135915D01*
X0392193Y0136706D02*
X0394357Y0136706D01*
X0394357Y0138304D02*
X0393657Y0138304D01*
X0394319Y0139903D02*
X0394357Y0139903D01*
X0394320Y0141501D02*
X0394357Y0141501D01*
X0394357Y0143100D02*
X0393817Y0143100D01*
X0394357Y0144698D02*
X0392580Y0144698D01*
X0386539Y0135107D02*
X0386139Y0135107D01*
X0386139Y0133509D02*
X0386539Y0133509D01*
X0386539Y0131910D02*
X0386139Y0131910D01*
X0386139Y0130312D02*
X0386539Y0130312D01*
X0386539Y0128713D02*
X0386139Y0128713D01*
X0386139Y0127115D02*
X0386539Y0127115D01*
X0381477Y0125516D02*
X0379330Y0125516D01*
X0379316Y0123918D02*
X0366246Y0123918D01*
X0366246Y0124086D02*
X0365732Y0125325D01*
X0364784Y0126274D01*
X0363545Y0126787D01*
X0362203Y0126787D01*
X0361743Y0126596D01*
X0328965Y0126596D01*
X0328505Y0126787D01*
X0327164Y0126787D01*
X0325925Y0126274D01*
X0324976Y0125325D01*
X0324463Y0124086D01*
X0324463Y0122745D01*
X0324976Y0121505D01*
X0325925Y0120557D01*
X0327164Y0120044D01*
X0328505Y0120044D01*
X0328965Y0120234D01*
X0361743Y0120234D01*
X0362203Y0120044D01*
X0363545Y0120044D01*
X0364784Y0120557D01*
X0365732Y0121505D01*
X0366246Y0122745D01*
X0366246Y0124086D01*
X0365542Y0125516D02*
X0370040Y0125516D01*
X0370037Y0125518D02*
X0370447Y0125281D01*
X0370905Y0125159D01*
X0373910Y0125159D01*
X0373910Y0129333D01*
X0375460Y0129333D01*
X0375460Y0130883D01*
X0373910Y0130883D01*
X0373910Y0129333D01*
X0369342Y0129333D01*
X0369342Y0126722D01*
X0369464Y0126264D01*
X0369701Y0125853D01*
X0370037Y0125518D01*
X0369342Y0127115D02*
X0198110Y0127115D01*
X0200501Y0128713D02*
X0369342Y0128713D01*
X0369342Y0130883D02*
X0373910Y0130883D01*
X0373910Y0135058D01*
X0370905Y0135058D01*
X0370447Y0134935D01*
X0370037Y0134698D01*
X0369701Y0134363D01*
X0369464Y0133953D01*
X0369342Y0133495D01*
X0369342Y0130883D01*
X0369342Y0131910D02*
X0200228Y0131910D01*
X0200501Y0130312D02*
X0373910Y0130312D01*
X0375460Y0130312D02*
X0378571Y0130312D01*
X0375460Y0131910D02*
X0373910Y0131910D01*
X0373910Y0133509D02*
X0375460Y0133509D01*
X0375460Y0128713D02*
X0373910Y0128713D01*
X0373910Y0127115D02*
X0375460Y0127115D01*
X0375460Y0125516D02*
X0373910Y0125516D01*
X0378537Y0122319D02*
X0366069Y0122319D01*
X0364947Y0120721D02*
X0378357Y0120721D01*
X0378682Y0119122D02*
X0198110Y0119122D01*
X0198110Y0120721D02*
X0325761Y0120721D01*
X0324639Y0122319D02*
X0199720Y0122319D01*
X0200501Y0123918D02*
X0324463Y0123918D01*
X0325167Y0125516D02*
X0200501Y0125516D01*
X0198110Y0117523D02*
X0379666Y0117523D01*
X0382323Y0115925D02*
X0198110Y0115925D01*
X0198110Y0069568D02*
X0301733Y0069568D01*
X0302203Y0067970D02*
X0198110Y0067970D01*
X0198110Y0066371D02*
X0303149Y0066371D01*
X0304908Y0064773D02*
X0198110Y0064773D01*
X0198110Y0039196D02*
X0394357Y0039196D01*
X0394357Y0037598D02*
X0198110Y0037598D01*
X0198110Y0035999D02*
X0394357Y0035999D01*
X0394357Y0034401D02*
X0198110Y0034401D01*
X0198110Y0032802D02*
X0394357Y0032802D01*
X0394357Y0031204D02*
X0198110Y0031204D01*
X0198110Y0029605D02*
X0394357Y0029605D01*
X0394357Y0028007D02*
X0198110Y0028007D01*
X0198110Y0026408D02*
X0394357Y0026408D01*
X0394357Y0024810D02*
X0198110Y0024810D01*
X0198110Y0023211D02*
X0394357Y0023211D01*
X0394357Y0021613D02*
X0198110Y0021613D01*
X0198110Y0020014D02*
X0394357Y0020014D01*
X0394357Y0018416D02*
X0198110Y0018416D01*
X0198110Y0016817D02*
X0394357Y0016817D01*
X0394357Y0015219D02*
X0198110Y0015219D01*
X0307891Y0064773D02*
X0309491Y0064773D01*
X0309491Y0066371D02*
X0307891Y0066371D01*
X0307891Y0067970D02*
X0309491Y0067970D01*
X0309491Y0069568D02*
X0307891Y0069568D01*
X0380028Y0127115D02*
X0380377Y0127115D01*
X0369345Y0133509D02*
X0308838Y0133509D01*
X0309553Y0135107D02*
X0381031Y0135107D01*
X0380484Y0136706D02*
X0379753Y0136706D01*
X0369617Y0136706D02*
X0309381Y0136706D01*
X0308265Y0138304D02*
X0369161Y0138304D01*
X0386002Y0167077D02*
X0386202Y0167077D01*
X0386202Y0168676D02*
X0386002Y0168676D01*
X0386002Y0170274D02*
X0386202Y0170274D01*
X0386202Y0171873D02*
X0386002Y0171873D01*
X0386002Y0173471D02*
X0386202Y0173471D01*
X0386202Y0175070D02*
X0386002Y0175070D01*
X0394357Y0178267D02*
X0316984Y0178267D01*
X0316646Y0178127D02*
X0319979Y0179508D01*
X0322530Y0182058D01*
X0323910Y0185391D01*
X0323910Y0188999D01*
X0322530Y0192331D01*
X0319979Y0194882D01*
X0316646Y0196263D01*
X0313039Y0196263D01*
X0309706Y0194882D01*
X0307155Y0192331D01*
X0305775Y0188999D01*
X0305775Y0185391D01*
X0307155Y0182058D01*
X0309706Y0179508D01*
X0313039Y0178127D01*
X0316646Y0178127D01*
X0312701Y0178267D02*
X0198110Y0178267D01*
X0198110Y0179865D02*
X0309348Y0179865D01*
X0307750Y0181464D02*
X0198110Y0181464D01*
X0198110Y0183062D02*
X0306739Y0183062D01*
X0306077Y0184661D02*
X0198110Y0184661D01*
X0198110Y0186259D02*
X0305775Y0186259D01*
X0305775Y0187858D02*
X0198110Y0187858D01*
X0198110Y0189456D02*
X0305964Y0189456D01*
X0306627Y0191055D02*
X0198110Y0191055D01*
X0198110Y0192654D02*
X0307477Y0192654D01*
X0309076Y0194252D02*
X0198110Y0194252D01*
X0198498Y0195851D02*
X0312044Y0195851D01*
X0317641Y0195851D02*
X0394357Y0195851D01*
X0394357Y0197449D02*
X0200097Y0197449D01*
X0201695Y0199048D02*
X0394357Y0199048D01*
X0394357Y0200646D02*
X0246981Y0200646D01*
X0247351Y0202245D02*
X0394357Y0202245D01*
X0394357Y0203843D02*
X0262593Y0203843D01*
X0264192Y0205442D02*
X0394357Y0205442D01*
X0394357Y0207040D02*
X0279250Y0207040D01*
X0280875Y0208639D02*
X0394357Y0208639D01*
X0394357Y0210237D02*
X0282473Y0210237D01*
X0284072Y0211836D02*
X0394357Y0211836D01*
X0394357Y0213434D02*
X0285127Y0213434D01*
X0285346Y0215033D02*
X0292079Y0215033D01*
X0291085Y0216631D02*
X0285346Y0216631D01*
X0296661Y0215033D02*
X0394357Y0215033D01*
X0394357Y0216631D02*
X0297656Y0216631D01*
X0311890Y0215344D02*
X0315630Y0211604D01*
X0320680Y0218230D02*
X0394357Y0218230D01*
X0394357Y0219828D02*
X0322279Y0219828D01*
X0323878Y0221427D02*
X0394357Y0221427D01*
X0394357Y0223025D02*
X0325476Y0223025D01*
X0327075Y0224624D02*
X0394357Y0224624D01*
X0394357Y0226222D02*
X0328673Y0226222D01*
X0330272Y0227821D02*
X0394357Y0227821D01*
X0394357Y0229419D02*
X0331870Y0229419D01*
X0333469Y0231018D02*
X0394357Y0231018D01*
X0394357Y0232616D02*
X0333937Y0232616D01*
X0333937Y0234215D02*
X0394357Y0234215D01*
X0394357Y0235813D02*
X0333937Y0235813D01*
X0333937Y0237412D02*
X0394357Y0237412D01*
X0394357Y0239010D02*
X0333937Y0239010D01*
X0333937Y0240609D02*
X0394357Y0240609D01*
X0394357Y0242207D02*
X0333937Y0242207D01*
X0333937Y0243806D02*
X0394357Y0243806D01*
X0394357Y0245404D02*
X0333937Y0245404D01*
X0333937Y0247003D02*
X0394357Y0247003D01*
X0394357Y0248601D02*
X0333937Y0248601D01*
X0333937Y0250200D02*
X0394357Y0250200D01*
X0394357Y0251798D02*
X0333937Y0251798D01*
X0333937Y0253397D02*
X0394357Y0253397D01*
X0394357Y0254995D02*
X0333937Y0254995D01*
X0333937Y0256594D02*
X0394357Y0256594D01*
X0394357Y0258192D02*
X0333215Y0258192D01*
X0331616Y0259791D02*
X0394357Y0259791D01*
X0394357Y0261390D02*
X0330394Y0261390D01*
X0330394Y0262988D02*
X0394357Y0262988D01*
X0394357Y0264587D02*
X0331014Y0264587D01*
X0332612Y0266185D02*
X0394357Y0266185D01*
X0394357Y0267784D02*
X0355471Y0267784D01*
X0357069Y0269382D02*
X0394357Y0269382D01*
X0394357Y0270981D02*
X0358668Y0270981D01*
X0360266Y0272579D02*
X0394357Y0272579D01*
X0394357Y0274178D02*
X0361865Y0274178D01*
X0363463Y0275776D02*
X0394357Y0275776D01*
X0394357Y0277375D02*
X0365062Y0277375D01*
X0366660Y0278973D02*
X0394357Y0278973D01*
X0394357Y0280572D02*
X0368259Y0280572D01*
X0369857Y0282170D02*
X0394357Y0282170D01*
X0358937Y0284833D02*
X0357362Y0283258D01*
X0353031Y0283258D01*
X0358937Y0284833D02*
X0358937Y0290935D01*
X0333533Y0271870D02*
X0332559Y0271870D01*
X0317106Y0274341D02*
X0311693Y0274341D01*
X0311693Y0278533D01*
X0308071Y0280423D02*
X0310906Y0283258D01*
X0313661Y0283258D01*
X0308071Y0280423D02*
X0303917Y0280423D01*
X0311663Y0274341D02*
X0311663Y0272205D01*
X0305000Y0265541D01*
X0304577Y0266142D02*
X0299273Y0266142D01*
X0297196Y0264065D01*
X0297196Y0257391D01*
X0297510Y0257077D01*
X0291024Y0257077D01*
X0289252Y0258848D01*
X0304577Y0266142D02*
X0320354Y0250364D01*
X0320354Y0245256D01*
X0311693Y0274341D02*
X0311663Y0274341D01*
X0257362Y0241919D02*
X0256969Y0242313D01*
X0243189Y0242313D01*
X0239252Y0224990D02*
X0233346Y0219085D01*
X0233346Y0211801D01*
X0232867Y0202245D02*
X0233826Y0202245D01*
X0233826Y0200646D02*
X0232867Y0200646D01*
X0228767Y0200646D02*
X0203294Y0200646D01*
X0204892Y0202245D02*
X0228397Y0202245D01*
X0241922Y0202245D02*
X0242881Y0202245D01*
X0242881Y0200646D02*
X0241922Y0200646D01*
X0320609Y0194252D02*
X0394357Y0194252D01*
X0394357Y0192654D02*
X0322208Y0192654D01*
X0323058Y0191055D02*
X0394357Y0191055D01*
X0394357Y0189456D02*
X0323721Y0189456D01*
X0323910Y0187858D02*
X0394357Y0187858D01*
X0394357Y0186259D02*
X0323910Y0186259D01*
X0323608Y0184661D02*
X0394357Y0184661D01*
X0394357Y0183062D02*
X0322946Y0183062D01*
X0321935Y0181464D02*
X0394357Y0181464D01*
X0394357Y0179865D02*
X0320337Y0179865D01*
X0182008Y0293179D02*
X0182008Y0309636D01*
X0182047Y0309636D01*
X0172047Y0309636D02*
X0172008Y0309636D01*
X0172008Y0293179D01*
X0162008Y0293179D02*
X0162008Y0309636D01*
X0162126Y0309636D01*
X0152126Y0309636D02*
X0152008Y0309636D01*
X0152008Y0293179D01*
X0142008Y0293179D02*
X0142008Y0309636D01*
X0142126Y0309636D01*
X0132126Y0309636D02*
X0132008Y0309636D01*
X0132008Y0293179D01*
X0122008Y0293179D02*
X0122008Y0309636D01*
X0121969Y0309636D01*
X0112008Y0309636D02*
X0112008Y0293179D01*
X0102008Y0293179D02*
X0102008Y0309636D01*
X0101969Y0309636D01*
X0111969Y0309636D02*
X0112008Y0309636D01*
X0092008Y0309636D02*
X0092008Y0293179D01*
X0082008Y0293179D02*
X0082008Y0309636D01*
X0081929Y0309636D01*
X0091969Y0309636D02*
X0092008Y0309636D01*
X0072008Y0309636D02*
X0072008Y0293179D01*
X0062008Y0293179D02*
X0062008Y0309636D01*
X0061929Y0309636D01*
X0071929Y0309636D02*
X0072008Y0309636D01*
X0052008Y0309636D02*
X0052008Y0293179D01*
X0042008Y0293179D02*
X0042008Y0309636D01*
X0041890Y0309636D01*
X0051890Y0309636D02*
X0052008Y0309636D01*
X0032008Y0309636D02*
X0032008Y0293179D01*
X0022008Y0293179D02*
X0022008Y0309636D01*
X0021890Y0309636D01*
X0031890Y0309636D02*
X0032008Y0309636D01*
X0087283Y0254518D02*
X0092795Y0254518D01*
X0097126Y0250187D01*
X0097126Y0223022D01*
X0097913Y0222234D02*
X0094764Y0222234D01*
X0092008Y0219478D01*
X0092008Y0208848D01*
X0097913Y0222234D02*
X0113465Y0222234D01*
D27*
X0036890Y0263573D03*
M02*
