G75*
%MOIN*%
%OFA0B0*%
%FSLAX25Y25*%
%IPPOS*%
%LPD*%
%AMOC8*
5,1,8,0,0,1.08239X$1,22.5*
%
%ADD10C,0.12998*%
%ADD11R,0.06699X0.07487*%
%ADD12R,0.07487X0.06699*%
%ADD13R,0.04337X0.04731*%
%ADD14R,0.04731X0.04337*%
%ADD15C,0.07900*%
%ADD16C,0.10900*%
%ADD17C,0.06000*%
%ADD18R,0.06699X0.05518*%
%ADD19R,0.05518X0.06699*%
%ADD20R,0.05518X0.06306*%
%ADD21R,0.06306X0.05518*%
%ADD22C,0.06400*%
%ADD23OC8,0.06700*%
%ADD24C,0.03181*%
%ADD25R,0.04362X0.04362*%
D10*
X0123110Y0045856D03*
X0314843Y0187195D03*
X0123110Y0262392D03*
D11*
X0135709Y0159636D03*
X0146732Y0159636D03*
X0063268Y0041132D03*
X0052244Y0041132D03*
X0035315Y0040344D03*
X0024291Y0040344D03*
X0304577Y0266142D03*
X0315600Y0266142D03*
D12*
X0294341Y0281555D03*
X0294341Y0292579D03*
X0156181Y0178533D03*
X0156181Y0167510D03*
X0111693Y0197431D03*
X0111693Y0208455D03*
X0072323Y0147037D03*
X0072323Y0136014D03*
X0108937Y0106093D03*
X0108937Y0095069D03*
X0374685Y0130108D03*
X0374685Y0141132D03*
D13*
X0303917Y0280423D03*
X0303917Y0287116D03*
X0285974Y0287116D03*
X0285974Y0280423D03*
X0146732Y0175581D03*
X0146732Y0168888D03*
X0110118Y0167707D03*
X0110118Y0174400D03*
X0122717Y0202746D03*
X0122717Y0209439D03*
X0063268Y0142510D03*
X0063268Y0135817D03*
X0099488Y0101959D03*
X0099488Y0095266D03*
D14*
X0121732Y0159636D03*
X0128425Y0159636D03*
X0297510Y0257077D03*
X0304203Y0257077D03*
X0313524Y0243199D03*
X0320217Y0243199D03*
X0317106Y0274341D03*
X0323799Y0274341D03*
D15*
X0318730Y0080768D03*
D16*
X0308691Y0090807D03*
X0328769Y0090807D03*
X0328769Y0070729D03*
X0308691Y0070729D03*
D17*
X0043976Y0029050D02*
X0043976Y0023450D01*
X0023976Y0053450D02*
X0023976Y0059050D01*
X0063976Y0059050D02*
X0063976Y0053450D01*
X0018312Y0103258D02*
X0012712Y0103258D01*
X0012712Y0123258D02*
X0018312Y0123258D01*
X0018430Y0145187D02*
X0012830Y0145187D01*
X0012830Y0155187D02*
X0018430Y0155187D01*
X0018430Y0165266D02*
X0012830Y0165266D01*
X0012830Y0175266D02*
X0018430Y0175266D01*
X0022008Y0230379D02*
X0022008Y0235979D01*
X0032008Y0235979D02*
X0032008Y0230379D01*
X0042008Y0230379D02*
X0042008Y0235979D01*
X0052008Y0235979D02*
X0052008Y0230379D01*
X0062008Y0230379D02*
X0062008Y0235979D01*
X0072008Y0235979D02*
X0072008Y0230379D01*
X0082008Y0230379D02*
X0082008Y0235979D01*
X0092008Y0235979D02*
X0092008Y0230379D01*
X0102008Y0230379D02*
X0102008Y0235979D01*
X0112008Y0235979D02*
X0112008Y0230379D01*
X0122008Y0230379D02*
X0122008Y0235979D01*
X0132008Y0235979D02*
X0132008Y0230379D01*
X0142008Y0230379D02*
X0142008Y0235979D01*
X0152008Y0235979D02*
X0152008Y0230379D01*
X0162008Y0230379D02*
X0162008Y0235979D01*
X0172008Y0235979D02*
X0172008Y0230379D01*
X0182008Y0230379D02*
X0182008Y0235979D01*
X0192008Y0235979D02*
X0192008Y0230379D01*
X0202008Y0230379D02*
X0202008Y0235979D01*
X0212008Y0235979D02*
X0212008Y0230379D01*
X0222008Y0230379D02*
X0222008Y0235979D01*
X0232008Y0235979D02*
X0232008Y0230379D01*
X0242008Y0230379D02*
X0242008Y0235979D01*
X0242008Y0290379D02*
X0242008Y0295979D01*
X0232008Y0295979D02*
X0232008Y0290379D01*
X0222008Y0290379D02*
X0222008Y0295979D01*
X0212008Y0295979D02*
X0212008Y0290379D01*
X0202008Y0290379D02*
X0202008Y0295979D01*
X0192008Y0295979D02*
X0192008Y0290379D01*
X0182008Y0290379D02*
X0182008Y0295979D01*
X0172008Y0295979D02*
X0172008Y0290379D01*
X0162008Y0290379D02*
X0162008Y0295979D01*
X0152008Y0295979D02*
X0152008Y0290379D01*
X0142008Y0290379D02*
X0142008Y0295979D01*
X0132008Y0295979D02*
X0132008Y0290379D01*
X0122008Y0290379D02*
X0122008Y0295979D01*
X0112008Y0295979D02*
X0112008Y0290379D01*
X0102008Y0290379D02*
X0102008Y0295979D01*
X0092008Y0295979D02*
X0092008Y0290379D01*
X0082008Y0290379D02*
X0082008Y0295979D01*
X0072008Y0295979D02*
X0072008Y0290379D01*
X0062008Y0290379D02*
X0062008Y0295979D01*
X0052008Y0295979D02*
X0052008Y0290379D01*
X0042008Y0290379D02*
X0042008Y0295979D01*
X0032008Y0295979D02*
X0032008Y0290379D01*
X0022008Y0290379D02*
X0022008Y0295979D01*
X0012008Y0295979D02*
X0012008Y0290379D01*
X0021890Y0306836D02*
X0021890Y0312436D01*
X0031890Y0312436D02*
X0031890Y0306836D01*
X0041890Y0306836D02*
X0041890Y0312436D01*
X0051890Y0312436D02*
X0051890Y0306836D01*
X0061929Y0306836D02*
X0061929Y0312436D01*
X0071929Y0312436D02*
X0071929Y0306836D01*
X0081929Y0306836D02*
X0081929Y0312436D01*
X0091969Y0312436D02*
X0091969Y0306836D01*
X0101969Y0306836D02*
X0101969Y0312436D01*
X0111969Y0312436D02*
X0111969Y0306836D01*
X0121969Y0306836D02*
X0121969Y0312436D01*
X0132126Y0312436D02*
X0132126Y0306836D01*
X0142126Y0306836D02*
X0142126Y0312436D01*
X0152126Y0312436D02*
X0152126Y0306836D01*
X0162126Y0306836D02*
X0162126Y0312436D01*
X0172047Y0312436D02*
X0172047Y0306836D01*
X0182047Y0306836D02*
X0182047Y0312436D01*
X0191969Y0312436D02*
X0191969Y0306836D01*
X0201969Y0306836D02*
X0201969Y0312436D01*
X0211969Y0312436D02*
X0211969Y0306836D01*
X0221969Y0306836D02*
X0221969Y0312436D01*
X0289213Y0313223D02*
X0289213Y0307623D01*
X0299213Y0307623D02*
X0299213Y0313223D01*
X0309213Y0313223D02*
X0309213Y0307623D01*
X0319213Y0307623D02*
X0319213Y0313223D01*
X0329134Y0313223D02*
X0329134Y0307623D01*
X0339134Y0307623D02*
X0339134Y0313223D01*
X0349055Y0313223D02*
X0349055Y0307623D01*
X0359055Y0307623D02*
X0359055Y0313223D01*
X0369055Y0313223D02*
X0369055Y0307623D01*
X0379055Y0307623D02*
X0379055Y0313223D01*
X0383302Y0170935D02*
X0388902Y0170935D01*
X0388902Y0160935D02*
X0383302Y0160935D01*
X0144020Y0128415D02*
X0138420Y0128415D01*
X0138420Y0118415D02*
X0144020Y0118415D01*
X0125517Y0118533D02*
X0119917Y0118533D01*
X0119917Y0128533D02*
X0125517Y0128533D01*
X0125517Y0138533D02*
X0119917Y0138533D01*
X0068312Y0113258D02*
X0062712Y0113258D01*
X0012008Y0230379D02*
X0012008Y0235979D01*
D18*
X0233346Y0211801D03*
X0233346Y0204321D03*
X0242402Y0204321D03*
X0242402Y0211801D03*
X0329016Y0290935D03*
X0329016Y0298415D03*
X0339252Y0298415D03*
X0339252Y0290935D03*
D19*
X0308740Y0320266D03*
X0301260Y0320266D03*
X0304409Y0222628D03*
X0311890Y0222628D03*
X0196142Y0136014D03*
X0188661Y0136014D03*
X0188661Y0126959D03*
X0196142Y0126959D03*
D20*
X0141024Y0183258D03*
X0133543Y0183258D03*
X0110315Y0182077D03*
X0102835Y0182077D03*
X0113465Y0222234D03*
X0120945Y0222234D03*
X0035906Y0163967D03*
X0028425Y0163967D03*
X0028425Y0154911D03*
X0035906Y0154911D03*
X0035906Y0145463D03*
X0028425Y0145463D03*
X0036299Y0071053D03*
X0043780Y0071053D03*
X0044567Y0060423D03*
X0052047Y0060423D03*
D21*
X0118780Y0095266D03*
X0118780Y0102746D03*
X0081772Y0135423D03*
X0081772Y0142904D03*
X0294370Y0222825D03*
X0294370Y0230305D03*
X0358937Y0290935D03*
X0358937Y0298415D03*
D22*
X0383339Y0140896D02*
X0389339Y0140896D01*
X0389339Y0130896D02*
X0383339Y0130896D01*
X0383339Y0120896D02*
X0389339Y0120896D01*
X0018000Y0191762D02*
X0012000Y0191762D01*
X0012000Y0201762D02*
X0018000Y0201762D01*
X0018000Y0211762D02*
X0012000Y0211762D01*
D23*
X0095551Y0110030D03*
X0141220Y0095069D03*
X0176260Y0170266D03*
X0273504Y0230502D03*
D24*
X0257362Y0241919D03*
X0289252Y0243494D03*
X0294370Y0236407D03*
X0294370Y0217510D03*
X0290433Y0213179D03*
X0290433Y0206880D03*
X0290433Y0199006D03*
X0281772Y0190738D03*
X0288858Y0185620D03*
X0294370Y0178533D03*
X0296732Y0170266D03*
X0296732Y0161998D03*
X0296732Y0154124D03*
X0297520Y0140344D03*
X0306575Y0139951D03*
X0306181Y0135620D03*
X0297520Y0130108D03*
X0306181Y0123415D03*
X0295945Y0121447D03*
X0292795Y0113573D03*
X0289252Y0109242D03*
X0289252Y0100581D03*
X0289646Y0091526D03*
X0289646Y0084045D03*
X0289646Y0076565D03*
X0289646Y0068691D03*
X0289646Y0060817D03*
X0292008Y0053337D03*
X0296339Y0047431D03*
X0303031Y0043100D03*
X0310906Y0041919D03*
X0319567Y0041919D03*
X0327441Y0041919D03*
X0334921Y0041919D03*
X0342402Y0041919D03*
X0349094Y0041919D03*
X0355787Y0041919D03*
X0361299Y0043888D03*
X0365236Y0047431D03*
X0368386Y0052549D03*
X0384528Y0046250D03*
X0386102Y0053337D03*
X0386496Y0060817D03*
X0386496Y0067904D03*
X0393583Y0065935D03*
X0393189Y0078533D03*
X0384528Y0075384D03*
X0384134Y0084439D03*
X0380197Y0088376D03*
X0374685Y0091526D03*
X0371535Y0096250D03*
X0367598Y0101762D03*
X0363268Y0108455D03*
X0358937Y0114360D03*
X0355787Y0119085D03*
X0362874Y0123415D03*
X0366811Y0127352D03*
X0366811Y0136014D03*
X0358937Y0135620D03*
X0351457Y0136407D03*
X0352244Y0128140D03*
X0338071Y0127352D03*
X0338465Y0133652D03*
X0336496Y0137982D03*
X0327835Y0123415D03*
X0336496Y0119085D03*
X0338465Y0112785D03*
X0342795Y0108061D03*
X0346339Y0102549D03*
X0350276Y0097037D03*
X0353031Y0091132D03*
X0344764Y0089163D03*
X0337283Y0089163D03*
X0327441Y0106486D03*
X0306181Y0106486D03*
X0279803Y0130108D03*
X0271535Y0135620D03*
X0280197Y0140344D03*
X0280197Y0149006D03*
X0280197Y0156880D03*
X0280197Y0164754D03*
X0277441Y0172628D03*
X0269567Y0176565D03*
X0260118Y0176565D03*
X0250669Y0176565D03*
X0241614Y0176565D03*
X0232953Y0176565D03*
X0231772Y0168691D03*
X0223898Y0169872D03*
X0223504Y0158455D03*
X0231772Y0157667D03*
X0223898Y0149793D03*
X0231772Y0144281D03*
X0223898Y0137195D03*
X0231772Y0132470D03*
X0223898Y0125384D03*
X0231772Y0121841D03*
X0223898Y0113573D03*
X0231772Y0111211D03*
X0232165Y0102549D03*
X0227047Y0096644D03*
X0223898Y0101762D03*
X0234921Y0094281D03*
X0243189Y0094281D03*
X0252244Y0094281D03*
X0246339Y0102156D03*
X0250276Y0106880D03*
X0258150Y0102549D03*
X0268386Y0102549D03*
X0268386Y0094281D03*
X0272717Y0092707D03*
X0262480Y0094281D03*
X0272717Y0083652D03*
X0272323Y0074596D03*
X0272323Y0066722D03*
X0272323Y0058848D03*
X0273898Y0051368D03*
X0277047Y0044281D03*
X0280984Y0038376D03*
X0286102Y0033258D03*
X0292402Y0028927D03*
X0300276Y0025778D03*
X0308937Y0024596D03*
X0317205Y0024596D03*
X0324685Y0024596D03*
X0331772Y0024596D03*
X0340039Y0024596D03*
X0347913Y0024596D03*
X0356181Y0024596D03*
X0364055Y0026171D03*
X0370748Y0029321D03*
X0377047Y0034045D03*
X0381378Y0039557D03*
X0393583Y0038967D03*
X0393189Y0028337D03*
X0393189Y0016526D03*
X0379409Y0016526D03*
X0366024Y0016132D03*
X0351063Y0016329D03*
X0332559Y0015935D03*
X0316811Y0015935D03*
X0299094Y0015935D03*
X0283346Y0015935D03*
X0263661Y0015935D03*
X0247913Y0015935D03*
X0230197Y0015935D03*
X0214449Y0015935D03*
X0198701Y0015935D03*
X0198701Y0029715D03*
X0198701Y0043888D03*
X0198701Y0057667D03*
X0198701Y0070266D03*
X0198701Y0084439D03*
X0212087Y0086407D03*
X0198701Y0097037D03*
X0198701Y0107667D03*
X0212087Y0111998D03*
X0198701Y0121447D03*
X0198701Y0131683D03*
X0198701Y0141526D03*
X0198701Y0149793D03*
X0202638Y0158455D03*
X0203819Y0167116D03*
X0199094Y0191132D03*
X0199094Y0195463D03*
X0205394Y0201762D03*
X0212874Y0201762D03*
X0223110Y0201762D03*
X0225079Y0192707D03*
X0217205Y0192707D03*
X0208543Y0192313D03*
X0235512Y0193494D03*
X0238071Y0199990D03*
X0244567Y0193494D03*
X0254606Y0193494D03*
X0263661Y0193494D03*
X0262480Y0202549D03*
X0269961Y0202156D03*
X0273110Y0193100D03*
X0266811Y0211998D03*
X0252441Y0201762D03*
X0299488Y0213967D03*
X0308543Y0213967D03*
X0315630Y0211604D03*
X0319567Y0215541D03*
X0323898Y0220659D03*
X0329016Y0226171D03*
X0334528Y0231683D03*
X0334528Y0239557D03*
X0343189Y0236407D03*
X0343189Y0227746D03*
X0342402Y0218691D03*
X0335709Y0217510D03*
X0333346Y0206093D03*
X0333346Y0196250D03*
X0341220Y0192313D03*
X0341220Y0184439D03*
X0337283Y0178533D03*
X0342008Y0171447D03*
X0342402Y0165541D03*
X0342402Y0158848D03*
X0333740Y0155699D03*
X0322323Y0154911D03*
X0318386Y0149793D03*
X0317598Y0139951D03*
X0314449Y0169085D03*
X0314843Y0202943D03*
X0360906Y0200581D03*
X0360906Y0192313D03*
X0360906Y0183652D03*
X0360512Y0176171D03*
X0368780Y0171841D03*
X0377047Y0165935D03*
X0368780Y0162785D03*
X0368780Y0154911D03*
X0376654Y0155305D03*
X0376654Y0147825D03*
X0368780Y0147825D03*
X0359331Y0154911D03*
X0359724Y0161211D03*
X0359331Y0167510D03*
X0376260Y0180108D03*
X0382559Y0187982D03*
X0392008Y0187785D03*
X0392008Y0199203D03*
X0382559Y0199006D03*
X0382165Y0210030D03*
X0392008Y0210226D03*
X0392008Y0221644D03*
X0382165Y0221447D03*
X0382165Y0234045D03*
X0392008Y0234242D03*
X0392008Y0246053D03*
X0382165Y0245856D03*
X0380984Y0257667D03*
X0371732Y0261014D03*
X0358543Y0256486D03*
X0355394Y0262982D03*
X0351457Y0266526D03*
X0357756Y0268888D03*
X0361102Y0272825D03*
X0370354Y0281880D03*
X0381772Y0281880D03*
X0380984Y0272234D03*
X0392402Y0272037D03*
X0393583Y0282077D03*
X0392795Y0257864D03*
X0360118Y0248415D03*
X0360118Y0239951D03*
X0360118Y0231683D03*
X0360118Y0224203D03*
X0360906Y0216329D03*
X0360906Y0208455D03*
X0343189Y0244281D03*
X0339843Y0251171D03*
X0334528Y0247431D03*
X0306181Y0251368D03*
X0289252Y0253730D03*
X0289252Y0258848D03*
X0289252Y0266722D03*
X0311693Y0278533D03*
X0313661Y0283258D03*
X0318780Y0291132D03*
X0303819Y0292313D03*
X0282165Y0301368D03*
X0273110Y0310030D03*
X0349094Y0291132D03*
X0353031Y0283258D03*
X0255394Y0156486D03*
X0260512Y0139951D03*
X0250669Y0137195D03*
X0258543Y0129321D03*
X0247913Y0127352D03*
X0247913Y0117510D03*
X0258543Y0113573D03*
X0268386Y0113573D03*
X0274291Y0119478D03*
X0251063Y0068691D03*
X0252244Y0044281D03*
X0223504Y0044281D03*
X0223504Y0068691D03*
X0212087Y0137982D03*
X0149488Y0183258D03*
X0141614Y0172628D03*
X0134134Y0172628D03*
X0128228Y0172628D03*
X0116417Y0167510D03*
X0116024Y0177746D03*
X0128228Y0205305D03*
X0121929Y0215935D03*
X0092008Y0208848D03*
X0087283Y0254518D03*
X0057756Y0262392D03*
X0048701Y0267510D03*
X0023898Y0260817D03*
X0018386Y0277746D03*
X0029803Y0241526D03*
X0048307Y0154911D03*
X0053031Y0142707D03*
X0067205Y0154911D03*
X0080591Y0128927D03*
X0108937Y0124203D03*
X0125866Y0108455D03*
X0132165Y0095856D03*
X0099488Y0088770D03*
X0099488Y0084045D03*
X0092795Y0103337D03*
X0058937Y0078927D03*
X0043976Y0080108D03*
X0053031Y0103337D03*
X0053031Y0119478D03*
X0106969Y0058455D03*
X0171929Y0211998D03*
X0338465Y0071841D03*
X0347913Y0071841D03*
X0357756Y0069478D03*
X0367598Y0069478D03*
X0344370Y0054911D03*
X0316417Y0054518D03*
X0379409Y0108455D03*
X0393189Y0111801D03*
X0393583Y0102156D03*
X0393583Y0091132D03*
X0393583Y0051565D03*
X0355394Y0148219D03*
D25*
X0036890Y0263573D03*
M02*
