%
M48
M72
T01C0.01181
T02C0.02362
T03C0.03200
T04C0.03600
T05C0.04000
T06C0.05000
T07C0.07000
T08C0.12598
%
T01
X58937Y78927
X43976Y80108
X53031Y103337
X53031Y119478
X53031Y142707
X48307Y154911
X67205Y154911
X80591Y128927
X108937Y124203
X125866Y108455
X132165Y95856
X99488Y88770
X99488Y84045
X92795Y103337
X106969Y58455
X198701Y57667
X198701Y70266
X198701Y84439
X212087Y86407
X198701Y97037
X198701Y107667
X212087Y111998
X223898Y113573
X231772Y111211
X232165Y102549
X227047Y96644
X223898Y101762
X234921Y94281
X243189Y94281
X252244Y94281
X246339Y102156
X250276Y106880
X258150Y102549
X268386Y102549
X268386Y94281
X272717Y92707
X262480Y94281
X272717Y83652
X272323Y74596
X272323Y66722
X272323Y58848
X273898Y51368
X277047Y44281
X280984Y38376
X286102Y33258
X292402Y28927
X300276Y25778
X308937Y24596
X317205Y24596
X324685Y24596
X331772Y24596
X340039Y24596
X347913Y24596
X356181Y24596
X364055Y26171
X370748Y29321
X377047Y34045
X381378Y39557
X384528Y46250
X386102Y53337
X386496Y60817
X386496Y67904
X393583Y65935
X393189Y78533
X384528Y75384
X384134Y84439
X380197Y88376
X374685Y91526
X371535Y96250
X367598Y101762
X363268Y108455
X358937Y114360
X355787Y119085
X362874Y123415
X366811Y127352
X366811Y136014
X358937Y135620
X351457Y136407
X352244Y128140
X338071Y127352
X338465Y133652
X336496Y137982
X327835Y123415
X336496Y119085
X338465Y112785
X342795Y108061
X346339Y102549
X350276Y97037
X353031Y91132
X344764Y89163
X337283Y89163
X327441Y106486
X306181Y106486
X292795Y113573
X289252Y109242
X289252Y100581
X289646Y91526
X289646Y84045
X289646Y76565
X289646Y68691
X289646Y60817
X292008Y53337
X296339Y47431
X303031Y43100
X310906Y41919
X319567Y41919
X327441Y41919
X334921Y41919
X342402Y41919
X349094Y41919
X355787Y41919
X361299Y43888
X365236Y47431
X368386Y52549
X367598Y69478
X357756Y69478
X347913Y71841
X338465Y71841
X344370Y54911
X316417Y54518
X316811Y15935
X332559Y15935
X351063Y16329
X366024Y16132
X379409Y16526
X393189Y16526
X393189Y28337
X393583Y38967
X393583Y51565
X393583Y91132
X393583Y102156
X393189Y111801
X379409Y108455
X376654Y147825
X368780Y147825
X368780Y154911
X368780Y162785
X377047Y165935
X368780Y171841
X360512Y176171
X360906Y183652
X360906Y192313
X360906Y200581
X360906Y208455
X360906Y216329
X360118Y224203
X360118Y231683
X360118Y239951
X360118Y248415
X358543Y256486
X355394Y262982
X351457Y266526
X357756Y268888
X361102Y272825
X370354Y281880
X381772Y281880
X380984Y272234
X392402Y272037
X393583Y282077
X371732Y261014
X380984Y257667
X392795Y257864
X392008Y246053
X382165Y245856
X382165Y234045
X392008Y234242
X392008Y221644
X382165Y221447
X382165Y210030
X392008Y210226
X392008Y199203
X382559Y199006
X382559Y187982
X392008Y187785
X376260Y180108
X359331Y167510
X359724Y161211
X359331Y154911
X355394Y148219
X342402Y158848
X342402Y165541
X342008Y171447
X337283Y178533
X341220Y184439
X341220Y192313
X333346Y196250
X333346Y206093
X335709Y217510
X342402Y218691
X343189Y227746
X343189Y236407
X334528Y239557
X334528Y231683
X329016Y226171
X323898Y220659
X319567Y215541
X315630Y211604
X308543Y213967
X299488Y213967
X294370Y217510
X290433Y213179
X290433Y206880
X290433Y199006
X281772Y190738
X288858Y185620
X294370Y178533
X296732Y170266
X296732Y161998
X296732Y154124
X297520Y140344
X306575Y139951
X306181Y135620
X297520Y130108
X306181Y123415
X295945Y121447
X279803Y130108
X271535Y135620
X280197Y140344
X280197Y149006
X280197Y156880
X280197Y164754
X277441Y172628
X269567Y176565
X260118Y176565
X250669Y176565
X241614Y176565
X232953Y176565
X231772Y168691
X223898Y169872
X223504Y158455
X231772Y157667
X223898Y149793
X231772Y144281
X223898Y137195
X231772Y132470
X223898Y125384
X231772Y121841
X247913Y117510
X247913Y127352
X250669Y137195
X260512Y139951
X258543Y129321
X274291Y119478
X268386Y113573
X258543Y113573
X212087Y137982
X198701Y141526
X198701Y149793
X202638Y158455
X203819Y167116
X199094Y191132
X199094Y195463
X205394Y201762
X212874Y201762
X223110Y201762
X225079Y192707
X217205Y192707
X208543Y192313
X235512Y193494
X238071Y199990
X244567Y193494
X254606Y193494
X263661Y193494
X262480Y202549
X269961Y202156
X273110Y193100
X266811Y211998
X252441Y201762
X294370Y236407
X289252Y243494
X289252Y253730
X289252Y258848
X289252Y266722
X306181Y251368
X334528Y247431
X339843Y251171
X343189Y244281
X311693Y278533
X313661Y283258
X318780Y291132
X303819Y292313
X282165Y301368
X273110Y310030
X349094Y291132
X353031Y283258
X257362Y241919
X314843Y202943
X314449Y169085
X322323Y154911
X318386Y149793
X317598Y139951
X333740Y155699
X376654Y155305
X255394Y156486
X198701Y131683
X198701Y121447
X223504Y68691
X223504Y44281
X198701Y43888
X198701Y29715
X198701Y15935
X214449Y15935
X230197Y15935
X247913Y15935
X263661Y15935
X283346Y15935
X299094Y15935
X252244Y44281
X251063Y68691
X141614Y172628
X134134Y172628
X128228Y172628
X116417Y167510
X116024Y177746
X128228Y205305
X121929Y215935
X92008Y208848
X87283Y254518
X57756Y262392
X48701Y267510
X23898Y260817
X18386Y277746
X29803Y241526
X149488Y183258
X171929Y211998
T02
X36890Y263573
T03
X176260Y170266
X95551Y110030
X141220Y95069
X273504Y230502
T04
X43976Y26250
X23976Y56250
X63976Y56250
X15512Y103258
X15512Y123258
X15630Y145187
X15630Y155187
X15630Y165266
X15630Y175266
X12008Y233179
X22008Y233179
X32008Y233179
X42008Y233179
X52008Y233179
X62008Y233179
X72008Y233179
X82008Y233179
X92008Y233179
X102008Y233179
X112008Y233179
X122008Y233179
X132008Y233179
X142008Y233179
X152008Y233179
X162008Y233179
X172008Y233179
X182008Y233179
X192008Y233179
X202008Y233179
X212008Y233179
X222008Y233179
X232008Y233179
X242008Y233179
X242008Y293179
X232008Y293179
X222008Y293179
X212008Y293179
X202008Y293179
X192008Y293179
X182008Y293179
X172008Y293179
X162008Y293179
X152008Y293179
X142008Y293179
X132008Y293179
X122008Y293179
X112008Y293179
X102008Y293179
X92008Y293179
X82008Y293179
X72008Y293179
X62008Y293179
X52008Y293179
X42008Y293179
X32008Y293179
X22008Y293179
X12008Y293179
X21890Y309636
X31890Y309636
X41890Y309636
X51890Y309636
X61929Y309636
X71929Y309636
X81929Y309636
X91969Y309636
X101969Y309636
X111969Y309636
X121969Y309636
X132126Y309636
X142126Y309636
X152126Y309636
X162126Y309636
X172047Y309636
X182047Y309636
X191969Y309636
X201969Y309636
X211969Y309636
X221969Y309636
X289213Y310423
X299213Y310423
X309213Y310423
X319213Y310423
X329134Y310423
X339134Y310423
X349055Y310423
X359055Y310423
X369055Y310423
X379055Y310423
X386102Y170935
X386102Y160935
X141220Y128415
X141220Y118415
X122717Y118533
X122717Y128533
X122717Y138533
X65512Y113258
T05
X15000Y191762
X15000Y201762
X15000Y211762
X386339Y140896
X386339Y130896
X386339Y120896
T06
X318730Y80768
T07
X308691Y90807
X328769Y90807
X328769Y70729
X308691Y70729
T08
X314843Y187195
X123110Y262392
X123110Y45856
M30
