G75*
%MOIN*%
%OFA0B0*%
%FSLAX25Y25*%
%IPPOS*%
%LPD*%
%AMOC8*
5,1,8,0,0,1.08239X$1,22.5*
%
%ADD10C,0.00000*%
D10*
X0003425Y0010423D02*
X0003425Y0325384D01*
X0397126Y0325384D01*
X0397126Y0010423D01*
X0003425Y0010423D01*
X0116811Y0045856D02*
X0116813Y0046014D01*
X0116819Y0046172D01*
X0116829Y0046330D01*
X0116843Y0046488D01*
X0116861Y0046645D01*
X0116882Y0046802D01*
X0116908Y0046958D01*
X0116938Y0047114D01*
X0116971Y0047269D01*
X0117009Y0047422D01*
X0117050Y0047575D01*
X0117095Y0047727D01*
X0117144Y0047878D01*
X0117197Y0048027D01*
X0117253Y0048175D01*
X0117313Y0048321D01*
X0117377Y0048466D01*
X0117445Y0048609D01*
X0117516Y0048751D01*
X0117590Y0048891D01*
X0117668Y0049028D01*
X0117750Y0049164D01*
X0117834Y0049298D01*
X0117923Y0049429D01*
X0118014Y0049558D01*
X0118109Y0049685D01*
X0118206Y0049810D01*
X0118307Y0049932D01*
X0118411Y0050051D01*
X0118518Y0050168D01*
X0118628Y0050282D01*
X0118741Y0050393D01*
X0118856Y0050502D01*
X0118974Y0050607D01*
X0119095Y0050709D01*
X0119218Y0050809D01*
X0119344Y0050905D01*
X0119472Y0050998D01*
X0119602Y0051088D01*
X0119735Y0051174D01*
X0119870Y0051258D01*
X0120006Y0051337D01*
X0120145Y0051414D01*
X0120286Y0051486D01*
X0120428Y0051556D01*
X0120572Y0051621D01*
X0120718Y0051683D01*
X0120865Y0051741D01*
X0121014Y0051796D01*
X0121164Y0051847D01*
X0121315Y0051894D01*
X0121467Y0051937D01*
X0121620Y0051976D01*
X0121775Y0052012D01*
X0121930Y0052043D01*
X0122086Y0052071D01*
X0122242Y0052095D01*
X0122399Y0052115D01*
X0122557Y0052131D01*
X0122714Y0052143D01*
X0122873Y0052151D01*
X0123031Y0052155D01*
X0123189Y0052155D01*
X0123347Y0052151D01*
X0123506Y0052143D01*
X0123663Y0052131D01*
X0123821Y0052115D01*
X0123978Y0052095D01*
X0124134Y0052071D01*
X0124290Y0052043D01*
X0124445Y0052012D01*
X0124600Y0051976D01*
X0124753Y0051937D01*
X0124905Y0051894D01*
X0125056Y0051847D01*
X0125206Y0051796D01*
X0125355Y0051741D01*
X0125502Y0051683D01*
X0125648Y0051621D01*
X0125792Y0051556D01*
X0125934Y0051486D01*
X0126075Y0051414D01*
X0126214Y0051337D01*
X0126350Y0051258D01*
X0126485Y0051174D01*
X0126618Y0051088D01*
X0126748Y0050998D01*
X0126876Y0050905D01*
X0127002Y0050809D01*
X0127125Y0050709D01*
X0127246Y0050607D01*
X0127364Y0050502D01*
X0127479Y0050393D01*
X0127592Y0050282D01*
X0127702Y0050168D01*
X0127809Y0050051D01*
X0127913Y0049932D01*
X0128014Y0049810D01*
X0128111Y0049685D01*
X0128206Y0049558D01*
X0128297Y0049429D01*
X0128386Y0049298D01*
X0128470Y0049164D01*
X0128552Y0049028D01*
X0128630Y0048891D01*
X0128704Y0048751D01*
X0128775Y0048609D01*
X0128843Y0048466D01*
X0128907Y0048321D01*
X0128967Y0048175D01*
X0129023Y0048027D01*
X0129076Y0047878D01*
X0129125Y0047727D01*
X0129170Y0047575D01*
X0129211Y0047422D01*
X0129249Y0047269D01*
X0129282Y0047114D01*
X0129312Y0046958D01*
X0129338Y0046802D01*
X0129359Y0046645D01*
X0129377Y0046488D01*
X0129391Y0046330D01*
X0129401Y0046172D01*
X0129407Y0046014D01*
X0129409Y0045856D01*
X0129407Y0045698D01*
X0129401Y0045540D01*
X0129391Y0045382D01*
X0129377Y0045224D01*
X0129359Y0045067D01*
X0129338Y0044910D01*
X0129312Y0044754D01*
X0129282Y0044598D01*
X0129249Y0044443D01*
X0129211Y0044290D01*
X0129170Y0044137D01*
X0129125Y0043985D01*
X0129076Y0043834D01*
X0129023Y0043685D01*
X0128967Y0043537D01*
X0128907Y0043391D01*
X0128843Y0043246D01*
X0128775Y0043103D01*
X0128704Y0042961D01*
X0128630Y0042821D01*
X0128552Y0042684D01*
X0128470Y0042548D01*
X0128386Y0042414D01*
X0128297Y0042283D01*
X0128206Y0042154D01*
X0128111Y0042027D01*
X0128014Y0041902D01*
X0127913Y0041780D01*
X0127809Y0041661D01*
X0127702Y0041544D01*
X0127592Y0041430D01*
X0127479Y0041319D01*
X0127364Y0041210D01*
X0127246Y0041105D01*
X0127125Y0041003D01*
X0127002Y0040903D01*
X0126876Y0040807D01*
X0126748Y0040714D01*
X0126618Y0040624D01*
X0126485Y0040538D01*
X0126350Y0040454D01*
X0126214Y0040375D01*
X0126075Y0040298D01*
X0125934Y0040226D01*
X0125792Y0040156D01*
X0125648Y0040091D01*
X0125502Y0040029D01*
X0125355Y0039971D01*
X0125206Y0039916D01*
X0125056Y0039865D01*
X0124905Y0039818D01*
X0124753Y0039775D01*
X0124600Y0039736D01*
X0124445Y0039700D01*
X0124290Y0039669D01*
X0124134Y0039641D01*
X0123978Y0039617D01*
X0123821Y0039597D01*
X0123663Y0039581D01*
X0123506Y0039569D01*
X0123347Y0039561D01*
X0123189Y0039557D01*
X0123031Y0039557D01*
X0122873Y0039561D01*
X0122714Y0039569D01*
X0122557Y0039581D01*
X0122399Y0039597D01*
X0122242Y0039617D01*
X0122086Y0039641D01*
X0121930Y0039669D01*
X0121775Y0039700D01*
X0121620Y0039736D01*
X0121467Y0039775D01*
X0121315Y0039818D01*
X0121164Y0039865D01*
X0121014Y0039916D01*
X0120865Y0039971D01*
X0120718Y0040029D01*
X0120572Y0040091D01*
X0120428Y0040156D01*
X0120286Y0040226D01*
X0120145Y0040298D01*
X0120006Y0040375D01*
X0119870Y0040454D01*
X0119735Y0040538D01*
X0119602Y0040624D01*
X0119472Y0040714D01*
X0119344Y0040807D01*
X0119218Y0040903D01*
X0119095Y0041003D01*
X0118974Y0041105D01*
X0118856Y0041210D01*
X0118741Y0041319D01*
X0118628Y0041430D01*
X0118518Y0041544D01*
X0118411Y0041661D01*
X0118307Y0041780D01*
X0118206Y0041902D01*
X0118109Y0042027D01*
X0118014Y0042154D01*
X0117923Y0042283D01*
X0117834Y0042414D01*
X0117750Y0042548D01*
X0117668Y0042684D01*
X0117590Y0042821D01*
X0117516Y0042961D01*
X0117445Y0043103D01*
X0117377Y0043246D01*
X0117313Y0043391D01*
X0117253Y0043537D01*
X0117197Y0043685D01*
X0117144Y0043834D01*
X0117095Y0043985D01*
X0117050Y0044137D01*
X0117009Y0044290D01*
X0116971Y0044443D01*
X0116938Y0044598D01*
X0116908Y0044754D01*
X0116882Y0044910D01*
X0116861Y0045067D01*
X0116843Y0045224D01*
X0116829Y0045382D01*
X0116819Y0045540D01*
X0116813Y0045698D01*
X0116811Y0045856D01*
X0308544Y0187195D02*
X0308546Y0187353D01*
X0308552Y0187511D01*
X0308562Y0187669D01*
X0308576Y0187827D01*
X0308594Y0187984D01*
X0308615Y0188141D01*
X0308641Y0188297D01*
X0308671Y0188453D01*
X0308704Y0188608D01*
X0308742Y0188761D01*
X0308783Y0188914D01*
X0308828Y0189066D01*
X0308877Y0189217D01*
X0308930Y0189366D01*
X0308986Y0189514D01*
X0309046Y0189660D01*
X0309110Y0189805D01*
X0309178Y0189948D01*
X0309249Y0190090D01*
X0309323Y0190230D01*
X0309401Y0190367D01*
X0309483Y0190503D01*
X0309567Y0190637D01*
X0309656Y0190768D01*
X0309747Y0190897D01*
X0309842Y0191024D01*
X0309939Y0191149D01*
X0310040Y0191271D01*
X0310144Y0191390D01*
X0310251Y0191507D01*
X0310361Y0191621D01*
X0310474Y0191732D01*
X0310589Y0191841D01*
X0310707Y0191946D01*
X0310828Y0192048D01*
X0310951Y0192148D01*
X0311077Y0192244D01*
X0311205Y0192337D01*
X0311335Y0192427D01*
X0311468Y0192513D01*
X0311603Y0192597D01*
X0311739Y0192676D01*
X0311878Y0192753D01*
X0312019Y0192825D01*
X0312161Y0192895D01*
X0312305Y0192960D01*
X0312451Y0193022D01*
X0312598Y0193080D01*
X0312747Y0193135D01*
X0312897Y0193186D01*
X0313048Y0193233D01*
X0313200Y0193276D01*
X0313353Y0193315D01*
X0313508Y0193351D01*
X0313663Y0193382D01*
X0313819Y0193410D01*
X0313975Y0193434D01*
X0314132Y0193454D01*
X0314290Y0193470D01*
X0314447Y0193482D01*
X0314606Y0193490D01*
X0314764Y0193494D01*
X0314922Y0193494D01*
X0315080Y0193490D01*
X0315239Y0193482D01*
X0315396Y0193470D01*
X0315554Y0193454D01*
X0315711Y0193434D01*
X0315867Y0193410D01*
X0316023Y0193382D01*
X0316178Y0193351D01*
X0316333Y0193315D01*
X0316486Y0193276D01*
X0316638Y0193233D01*
X0316789Y0193186D01*
X0316939Y0193135D01*
X0317088Y0193080D01*
X0317235Y0193022D01*
X0317381Y0192960D01*
X0317525Y0192895D01*
X0317667Y0192825D01*
X0317808Y0192753D01*
X0317947Y0192676D01*
X0318083Y0192597D01*
X0318218Y0192513D01*
X0318351Y0192427D01*
X0318481Y0192337D01*
X0318609Y0192244D01*
X0318735Y0192148D01*
X0318858Y0192048D01*
X0318979Y0191946D01*
X0319097Y0191841D01*
X0319212Y0191732D01*
X0319325Y0191621D01*
X0319435Y0191507D01*
X0319542Y0191390D01*
X0319646Y0191271D01*
X0319747Y0191149D01*
X0319844Y0191024D01*
X0319939Y0190897D01*
X0320030Y0190768D01*
X0320119Y0190637D01*
X0320203Y0190503D01*
X0320285Y0190367D01*
X0320363Y0190230D01*
X0320437Y0190090D01*
X0320508Y0189948D01*
X0320576Y0189805D01*
X0320640Y0189660D01*
X0320700Y0189514D01*
X0320756Y0189366D01*
X0320809Y0189217D01*
X0320858Y0189066D01*
X0320903Y0188914D01*
X0320944Y0188761D01*
X0320982Y0188608D01*
X0321015Y0188453D01*
X0321045Y0188297D01*
X0321071Y0188141D01*
X0321092Y0187984D01*
X0321110Y0187827D01*
X0321124Y0187669D01*
X0321134Y0187511D01*
X0321140Y0187353D01*
X0321142Y0187195D01*
X0321140Y0187037D01*
X0321134Y0186879D01*
X0321124Y0186721D01*
X0321110Y0186563D01*
X0321092Y0186406D01*
X0321071Y0186249D01*
X0321045Y0186093D01*
X0321015Y0185937D01*
X0320982Y0185782D01*
X0320944Y0185629D01*
X0320903Y0185476D01*
X0320858Y0185324D01*
X0320809Y0185173D01*
X0320756Y0185024D01*
X0320700Y0184876D01*
X0320640Y0184730D01*
X0320576Y0184585D01*
X0320508Y0184442D01*
X0320437Y0184300D01*
X0320363Y0184160D01*
X0320285Y0184023D01*
X0320203Y0183887D01*
X0320119Y0183753D01*
X0320030Y0183622D01*
X0319939Y0183493D01*
X0319844Y0183366D01*
X0319747Y0183241D01*
X0319646Y0183119D01*
X0319542Y0183000D01*
X0319435Y0182883D01*
X0319325Y0182769D01*
X0319212Y0182658D01*
X0319097Y0182549D01*
X0318979Y0182444D01*
X0318858Y0182342D01*
X0318735Y0182242D01*
X0318609Y0182146D01*
X0318481Y0182053D01*
X0318351Y0181963D01*
X0318218Y0181877D01*
X0318083Y0181793D01*
X0317947Y0181714D01*
X0317808Y0181637D01*
X0317667Y0181565D01*
X0317525Y0181495D01*
X0317381Y0181430D01*
X0317235Y0181368D01*
X0317088Y0181310D01*
X0316939Y0181255D01*
X0316789Y0181204D01*
X0316638Y0181157D01*
X0316486Y0181114D01*
X0316333Y0181075D01*
X0316178Y0181039D01*
X0316023Y0181008D01*
X0315867Y0180980D01*
X0315711Y0180956D01*
X0315554Y0180936D01*
X0315396Y0180920D01*
X0315239Y0180908D01*
X0315080Y0180900D01*
X0314922Y0180896D01*
X0314764Y0180896D01*
X0314606Y0180900D01*
X0314447Y0180908D01*
X0314290Y0180920D01*
X0314132Y0180936D01*
X0313975Y0180956D01*
X0313819Y0180980D01*
X0313663Y0181008D01*
X0313508Y0181039D01*
X0313353Y0181075D01*
X0313200Y0181114D01*
X0313048Y0181157D01*
X0312897Y0181204D01*
X0312747Y0181255D01*
X0312598Y0181310D01*
X0312451Y0181368D01*
X0312305Y0181430D01*
X0312161Y0181495D01*
X0312019Y0181565D01*
X0311878Y0181637D01*
X0311739Y0181714D01*
X0311603Y0181793D01*
X0311468Y0181877D01*
X0311335Y0181963D01*
X0311205Y0182053D01*
X0311077Y0182146D01*
X0310951Y0182242D01*
X0310828Y0182342D01*
X0310707Y0182444D01*
X0310589Y0182549D01*
X0310474Y0182658D01*
X0310361Y0182769D01*
X0310251Y0182883D01*
X0310144Y0183000D01*
X0310040Y0183119D01*
X0309939Y0183241D01*
X0309842Y0183366D01*
X0309747Y0183493D01*
X0309656Y0183622D01*
X0309567Y0183753D01*
X0309483Y0183887D01*
X0309401Y0184023D01*
X0309323Y0184160D01*
X0309249Y0184300D01*
X0309178Y0184442D01*
X0309110Y0184585D01*
X0309046Y0184730D01*
X0308986Y0184876D01*
X0308930Y0185024D01*
X0308877Y0185173D01*
X0308828Y0185324D01*
X0308783Y0185476D01*
X0308742Y0185629D01*
X0308704Y0185782D01*
X0308671Y0185937D01*
X0308641Y0186093D01*
X0308615Y0186249D01*
X0308594Y0186406D01*
X0308576Y0186563D01*
X0308562Y0186721D01*
X0308552Y0186879D01*
X0308546Y0187037D01*
X0308544Y0187195D01*
X0116811Y0262392D02*
X0116813Y0262550D01*
X0116819Y0262708D01*
X0116829Y0262866D01*
X0116843Y0263024D01*
X0116861Y0263181D01*
X0116882Y0263338D01*
X0116908Y0263494D01*
X0116938Y0263650D01*
X0116971Y0263805D01*
X0117009Y0263958D01*
X0117050Y0264111D01*
X0117095Y0264263D01*
X0117144Y0264414D01*
X0117197Y0264563D01*
X0117253Y0264711D01*
X0117313Y0264857D01*
X0117377Y0265002D01*
X0117445Y0265145D01*
X0117516Y0265287D01*
X0117590Y0265427D01*
X0117668Y0265564D01*
X0117750Y0265700D01*
X0117834Y0265834D01*
X0117923Y0265965D01*
X0118014Y0266094D01*
X0118109Y0266221D01*
X0118206Y0266346D01*
X0118307Y0266468D01*
X0118411Y0266587D01*
X0118518Y0266704D01*
X0118628Y0266818D01*
X0118741Y0266929D01*
X0118856Y0267038D01*
X0118974Y0267143D01*
X0119095Y0267245D01*
X0119218Y0267345D01*
X0119344Y0267441D01*
X0119472Y0267534D01*
X0119602Y0267624D01*
X0119735Y0267710D01*
X0119870Y0267794D01*
X0120006Y0267873D01*
X0120145Y0267950D01*
X0120286Y0268022D01*
X0120428Y0268092D01*
X0120572Y0268157D01*
X0120718Y0268219D01*
X0120865Y0268277D01*
X0121014Y0268332D01*
X0121164Y0268383D01*
X0121315Y0268430D01*
X0121467Y0268473D01*
X0121620Y0268512D01*
X0121775Y0268548D01*
X0121930Y0268579D01*
X0122086Y0268607D01*
X0122242Y0268631D01*
X0122399Y0268651D01*
X0122557Y0268667D01*
X0122714Y0268679D01*
X0122873Y0268687D01*
X0123031Y0268691D01*
X0123189Y0268691D01*
X0123347Y0268687D01*
X0123506Y0268679D01*
X0123663Y0268667D01*
X0123821Y0268651D01*
X0123978Y0268631D01*
X0124134Y0268607D01*
X0124290Y0268579D01*
X0124445Y0268548D01*
X0124600Y0268512D01*
X0124753Y0268473D01*
X0124905Y0268430D01*
X0125056Y0268383D01*
X0125206Y0268332D01*
X0125355Y0268277D01*
X0125502Y0268219D01*
X0125648Y0268157D01*
X0125792Y0268092D01*
X0125934Y0268022D01*
X0126075Y0267950D01*
X0126214Y0267873D01*
X0126350Y0267794D01*
X0126485Y0267710D01*
X0126618Y0267624D01*
X0126748Y0267534D01*
X0126876Y0267441D01*
X0127002Y0267345D01*
X0127125Y0267245D01*
X0127246Y0267143D01*
X0127364Y0267038D01*
X0127479Y0266929D01*
X0127592Y0266818D01*
X0127702Y0266704D01*
X0127809Y0266587D01*
X0127913Y0266468D01*
X0128014Y0266346D01*
X0128111Y0266221D01*
X0128206Y0266094D01*
X0128297Y0265965D01*
X0128386Y0265834D01*
X0128470Y0265700D01*
X0128552Y0265564D01*
X0128630Y0265427D01*
X0128704Y0265287D01*
X0128775Y0265145D01*
X0128843Y0265002D01*
X0128907Y0264857D01*
X0128967Y0264711D01*
X0129023Y0264563D01*
X0129076Y0264414D01*
X0129125Y0264263D01*
X0129170Y0264111D01*
X0129211Y0263958D01*
X0129249Y0263805D01*
X0129282Y0263650D01*
X0129312Y0263494D01*
X0129338Y0263338D01*
X0129359Y0263181D01*
X0129377Y0263024D01*
X0129391Y0262866D01*
X0129401Y0262708D01*
X0129407Y0262550D01*
X0129409Y0262392D01*
X0129407Y0262234D01*
X0129401Y0262076D01*
X0129391Y0261918D01*
X0129377Y0261760D01*
X0129359Y0261603D01*
X0129338Y0261446D01*
X0129312Y0261290D01*
X0129282Y0261134D01*
X0129249Y0260979D01*
X0129211Y0260826D01*
X0129170Y0260673D01*
X0129125Y0260521D01*
X0129076Y0260370D01*
X0129023Y0260221D01*
X0128967Y0260073D01*
X0128907Y0259927D01*
X0128843Y0259782D01*
X0128775Y0259639D01*
X0128704Y0259497D01*
X0128630Y0259357D01*
X0128552Y0259220D01*
X0128470Y0259084D01*
X0128386Y0258950D01*
X0128297Y0258819D01*
X0128206Y0258690D01*
X0128111Y0258563D01*
X0128014Y0258438D01*
X0127913Y0258316D01*
X0127809Y0258197D01*
X0127702Y0258080D01*
X0127592Y0257966D01*
X0127479Y0257855D01*
X0127364Y0257746D01*
X0127246Y0257641D01*
X0127125Y0257539D01*
X0127002Y0257439D01*
X0126876Y0257343D01*
X0126748Y0257250D01*
X0126618Y0257160D01*
X0126485Y0257074D01*
X0126350Y0256990D01*
X0126214Y0256911D01*
X0126075Y0256834D01*
X0125934Y0256762D01*
X0125792Y0256692D01*
X0125648Y0256627D01*
X0125502Y0256565D01*
X0125355Y0256507D01*
X0125206Y0256452D01*
X0125056Y0256401D01*
X0124905Y0256354D01*
X0124753Y0256311D01*
X0124600Y0256272D01*
X0124445Y0256236D01*
X0124290Y0256205D01*
X0124134Y0256177D01*
X0123978Y0256153D01*
X0123821Y0256133D01*
X0123663Y0256117D01*
X0123506Y0256105D01*
X0123347Y0256097D01*
X0123189Y0256093D01*
X0123031Y0256093D01*
X0122873Y0256097D01*
X0122714Y0256105D01*
X0122557Y0256117D01*
X0122399Y0256133D01*
X0122242Y0256153D01*
X0122086Y0256177D01*
X0121930Y0256205D01*
X0121775Y0256236D01*
X0121620Y0256272D01*
X0121467Y0256311D01*
X0121315Y0256354D01*
X0121164Y0256401D01*
X0121014Y0256452D01*
X0120865Y0256507D01*
X0120718Y0256565D01*
X0120572Y0256627D01*
X0120428Y0256692D01*
X0120286Y0256762D01*
X0120145Y0256834D01*
X0120006Y0256911D01*
X0119870Y0256990D01*
X0119735Y0257074D01*
X0119602Y0257160D01*
X0119472Y0257250D01*
X0119344Y0257343D01*
X0119218Y0257439D01*
X0119095Y0257539D01*
X0118974Y0257641D01*
X0118856Y0257746D01*
X0118741Y0257855D01*
X0118628Y0257966D01*
X0118518Y0258080D01*
X0118411Y0258197D01*
X0118307Y0258316D01*
X0118206Y0258438D01*
X0118109Y0258563D01*
X0118014Y0258690D01*
X0117923Y0258819D01*
X0117834Y0258950D01*
X0117750Y0259084D01*
X0117668Y0259220D01*
X0117590Y0259357D01*
X0117516Y0259497D01*
X0117445Y0259639D01*
X0117377Y0259782D01*
X0117313Y0259927D01*
X0117253Y0260073D01*
X0117197Y0260221D01*
X0117144Y0260370D01*
X0117095Y0260521D01*
X0117050Y0260673D01*
X0117009Y0260826D01*
X0116971Y0260979D01*
X0116938Y0261134D01*
X0116908Y0261290D01*
X0116882Y0261446D01*
X0116861Y0261603D01*
X0116843Y0261760D01*
X0116829Y0261918D01*
X0116819Y0262076D01*
X0116813Y0262234D01*
X0116811Y0262392D01*
M02*
