G75*
%MOIN*%
%OFA0B0*%
%FSLAX25Y25*%
%IPPOS*%
%LPD*%
%AMOC8*
5,1,8,0,0,1.08239X$1,22.5*
%
%ADD10C,0.05906*%
%ADD11C,0.06299*%
%ADD12C,0.12998*%
%ADD13C,0.01200*%
%ADD14R,0.04731X0.04337*%
%ADD15R,0.08195X0.04416*%
%ADD16R,0.04416X0.08195*%
%ADD17R,0.06306X0.05518*%
%ADD18R,0.05518X0.06306*%
%ADD19R,0.04337X0.04731*%
%ADD20R,0.07487X0.06699*%
%ADD21C,0.07900*%
%ADD22C,0.10900*%
%ADD23C,0.06000*%
%ADD24R,0.04300X0.01600*%
%ADD25R,0.06000X0.03200*%
%ADD26R,0.02565X0.05124*%
%ADD27R,0.05124X0.02565*%
%ADD28R,0.03700X0.03700*%
%ADD29R,0.05100X0.03700*%
%ADD30R,0.05518X0.06699*%
%ADD31R,0.09061X0.02762*%
%ADD32R,0.06699X0.01581*%
%ADD33R,0.01778X0.03943*%
%ADD34R,0.05400X0.05400*%
%ADD35R,0.07000X0.07000*%
%ADD36C,0.06400*%
%ADD37R,0.02953X0.01575*%
%ADD38R,0.01575X0.02953*%
%ADD39R,0.08268X0.08268*%
%ADD40R,0.06699X0.05518*%
%ADD41R,0.03156X0.03943*%
%ADD42R,0.06896X0.10400*%
%ADD43OC8,0.06700*%
%ADD44C,0.03181*%
%ADD45R,0.04362X0.04362*%
D10*
X0245157Y0184833D02*
X0269567Y0184833D01*
X0270024Y0184827D01*
X0270480Y0184811D01*
X0270936Y0184783D01*
X0271391Y0184745D01*
X0271845Y0184695D01*
X0272298Y0184635D01*
X0272749Y0184563D01*
X0273198Y0184481D01*
X0273645Y0184388D01*
X0274090Y0184284D01*
X0274532Y0184169D01*
X0274971Y0184044D01*
X0275407Y0183908D01*
X0275839Y0183762D01*
X0276268Y0183605D01*
X0276693Y0183438D01*
X0277114Y0183261D01*
X0277531Y0183073D01*
X0277942Y0182876D01*
X0278349Y0182668D01*
X0278751Y0182451D01*
X0279148Y0182225D01*
X0279538Y0181988D01*
X0279923Y0181743D01*
X0280302Y0181488D01*
X0280675Y0181224D01*
X0281041Y0180951D01*
X0281401Y0180669D01*
X0281753Y0180379D01*
X0282099Y0180080D01*
X0282437Y0179773D01*
X0282767Y0179458D01*
X0283090Y0179135D01*
X0283405Y0178805D01*
X0283712Y0178467D01*
X0284011Y0178121D01*
X0284301Y0177769D01*
X0284583Y0177409D01*
X0284856Y0177043D01*
X0285120Y0176670D01*
X0285375Y0176291D01*
X0285620Y0175906D01*
X0285857Y0175516D01*
X0286083Y0175119D01*
X0286300Y0174717D01*
X0286508Y0174310D01*
X0286705Y0173899D01*
X0286893Y0173482D01*
X0287070Y0173061D01*
X0287237Y0172636D01*
X0287394Y0172207D01*
X0287540Y0171775D01*
X0287676Y0171339D01*
X0287801Y0170900D01*
X0287916Y0170458D01*
X0288020Y0170013D01*
X0288113Y0169566D01*
X0288195Y0169117D01*
X0288267Y0168666D01*
X0288327Y0168213D01*
X0288377Y0167759D01*
X0288415Y0167304D01*
X0288443Y0166848D01*
X0288459Y0166392D01*
X0288465Y0165935D01*
X0345945Y0117904D02*
X0367992Y0086407D01*
X0377441Y0058848D02*
X0377441Y0056093D01*
X0377434Y0055541D01*
X0377414Y0054990D01*
X0377381Y0054439D01*
X0377334Y0053889D01*
X0377275Y0053341D01*
X0377201Y0052794D01*
X0377115Y0052249D01*
X0377016Y0051706D01*
X0376903Y0051166D01*
X0376777Y0050628D01*
X0376639Y0050094D01*
X0376488Y0049563D01*
X0376323Y0049037D01*
X0376147Y0048514D01*
X0375957Y0047996D01*
X0375755Y0047482D01*
X0375541Y0046974D01*
X0375314Y0046470D01*
X0375076Y0045973D01*
X0374825Y0045481D01*
X0374563Y0044996D01*
X0374289Y0044517D01*
X0374004Y0044044D01*
X0373707Y0043579D01*
X0373399Y0043121D01*
X0373080Y0042671D01*
X0372750Y0042228D01*
X0372410Y0041794D01*
X0372059Y0041368D01*
X0371698Y0040951D01*
X0371327Y0040542D01*
X0370947Y0040142D01*
X0370557Y0039752D01*
X0370157Y0039372D01*
X0369748Y0039001D01*
X0369331Y0038640D01*
X0368905Y0038289D01*
X0368471Y0037949D01*
X0368028Y0037619D01*
X0367578Y0037300D01*
X0367120Y0036992D01*
X0366655Y0036695D01*
X0366182Y0036410D01*
X0365703Y0036136D01*
X0365218Y0035874D01*
X0364726Y0035623D01*
X0364229Y0035385D01*
X0363725Y0035158D01*
X0363217Y0034944D01*
X0362703Y0034742D01*
X0362185Y0034552D01*
X0361662Y0034376D01*
X0361136Y0034211D01*
X0360605Y0034060D01*
X0360071Y0033922D01*
X0359533Y0033796D01*
X0358993Y0033683D01*
X0358450Y0033584D01*
X0357905Y0033498D01*
X0357358Y0033424D01*
X0356810Y0033365D01*
X0356260Y0033318D01*
X0355709Y0033285D01*
X0355158Y0033265D01*
X0354606Y0033258D01*
X0353425Y0033258D02*
X0318386Y0033258D01*
X0317598Y0033258D02*
X0310906Y0033258D01*
X0310183Y0033267D01*
X0309460Y0033293D01*
X0308739Y0033337D01*
X0308018Y0033398D01*
X0307299Y0033476D01*
X0306583Y0033572D01*
X0305869Y0033685D01*
X0305157Y0033815D01*
X0304450Y0033963D01*
X0303745Y0034127D01*
X0303046Y0034309D01*
X0302350Y0034507D01*
X0301660Y0034722D01*
X0300975Y0034954D01*
X0300296Y0035202D01*
X0299623Y0035467D01*
X0298957Y0035748D01*
X0298297Y0036044D01*
X0297645Y0036357D01*
X0297001Y0036685D01*
X0296365Y0037029D01*
X0295737Y0037388D01*
X0295118Y0037762D01*
X0294509Y0038151D01*
X0293909Y0038554D01*
X0293319Y0038972D01*
X0292739Y0039404D01*
X0292170Y0039850D01*
X0291612Y0040310D01*
X0291065Y0040783D01*
X0290529Y0041269D01*
X0290006Y0041768D01*
X0289495Y0042279D01*
X0288996Y0042802D01*
X0288510Y0043338D01*
X0288037Y0043885D01*
X0287577Y0044443D01*
X0287131Y0045012D01*
X0286699Y0045592D01*
X0286281Y0046182D01*
X0285878Y0046782D01*
X0285489Y0047391D01*
X0285115Y0048010D01*
X0284756Y0048638D01*
X0284412Y0049274D01*
X0284084Y0049918D01*
X0283771Y0050570D01*
X0283475Y0051230D01*
X0283194Y0051896D01*
X0282929Y0052569D01*
X0282681Y0053248D01*
X0282449Y0053933D01*
X0282234Y0054623D01*
X0282036Y0055319D01*
X0281854Y0056018D01*
X0281690Y0056723D01*
X0281542Y0057430D01*
X0281412Y0058142D01*
X0281299Y0058856D01*
X0281203Y0059572D01*
X0281125Y0060291D01*
X0281064Y0061012D01*
X0281020Y0061733D01*
X0280994Y0062456D01*
X0280985Y0063179D01*
X0280984Y0062785D02*
X0280984Y0079715D01*
X0351457Y0219478D02*
X0351850Y0241919D01*
X0351850Y0248219D01*
X0351851Y0248219D02*
X0351847Y0248581D01*
X0351834Y0248942D01*
X0351812Y0249303D01*
X0351781Y0249663D01*
X0351742Y0250022D01*
X0351694Y0250381D01*
X0351637Y0250738D01*
X0351572Y0251093D01*
X0351499Y0251447D01*
X0351416Y0251799D01*
X0351326Y0252149D01*
X0351226Y0252497D01*
X0351119Y0252842D01*
X0351003Y0253185D01*
X0350879Y0253524D01*
X0350746Y0253861D01*
X0350606Y0254194D01*
X0350458Y0254524D01*
X0350301Y0254850D01*
X0350137Y0255172D01*
X0349965Y0255490D01*
X0349786Y0255804D01*
X0349599Y0256113D01*
X0349404Y0256418D01*
X0349203Y0256718D01*
X0348994Y0257013D01*
X0348778Y0257303D01*
X0348555Y0257587D01*
X0348325Y0257866D01*
X0348088Y0258140D01*
X0347845Y0258408D01*
X0347596Y0258669D01*
X0347340Y0258925D01*
X0347079Y0259174D01*
X0346811Y0259417D01*
X0346537Y0259654D01*
X0346258Y0259884D01*
X0345974Y0260107D01*
X0345684Y0260323D01*
X0345389Y0260532D01*
X0345089Y0260733D01*
X0344784Y0260928D01*
X0344475Y0261115D01*
X0344161Y0261294D01*
X0343843Y0261466D01*
X0343521Y0261630D01*
X0343195Y0261787D01*
X0342865Y0261935D01*
X0342532Y0262075D01*
X0342195Y0262208D01*
X0341856Y0262332D01*
X0341513Y0262448D01*
X0341168Y0262555D01*
X0340820Y0262655D01*
X0340470Y0262745D01*
X0340118Y0262828D01*
X0339764Y0262901D01*
X0339409Y0262966D01*
X0339052Y0263023D01*
X0338693Y0263071D01*
X0338334Y0263110D01*
X0337974Y0263141D01*
X0337613Y0263163D01*
X0337252Y0263176D01*
X0336890Y0263180D01*
D11*
X0319961Y0080502D02*
X0355000Y0080502D01*
D12*
X0314843Y0187195D03*
X0123110Y0262392D03*
X0123110Y0045856D03*
D13*
X0279016Y0092707D02*
X0282953Y0092707D01*
X0282953Y0112785D01*
X0279016Y0112785D01*
X0279016Y0092707D01*
X0279016Y0093121D02*
X0282953Y0093121D01*
X0282953Y0094319D02*
X0279016Y0094319D01*
X0279016Y0095518D02*
X0282953Y0095518D01*
X0282953Y0096716D02*
X0279016Y0096716D01*
X0279016Y0097915D02*
X0282953Y0097915D01*
X0282953Y0099113D02*
X0279016Y0099113D01*
X0279016Y0100312D02*
X0282953Y0100312D01*
X0282953Y0101510D02*
X0279016Y0101510D01*
X0279016Y0102709D02*
X0282953Y0102709D01*
X0282953Y0103907D02*
X0279016Y0103907D01*
X0279016Y0105106D02*
X0282953Y0105106D01*
X0282953Y0106304D02*
X0279016Y0106304D01*
X0279016Y0107503D02*
X0282953Y0107503D01*
X0282953Y0108701D02*
X0279016Y0108701D01*
X0279016Y0109900D02*
X0282953Y0109900D01*
X0282953Y0111098D02*
X0279016Y0111098D01*
X0279016Y0112297D02*
X0282953Y0112297D01*
X0287283Y0123022D02*
X0286102Y0129321D01*
X0291220Y0129321D01*
X0289646Y0123022D01*
X0287283Y0123022D01*
X0287272Y0123083D02*
X0289661Y0123083D01*
X0289961Y0124282D02*
X0287047Y0124282D01*
X0286822Y0125480D02*
X0290260Y0125480D01*
X0290560Y0126679D02*
X0286598Y0126679D01*
X0286373Y0127877D02*
X0290860Y0127877D01*
X0291159Y0129076D02*
X0286148Y0129076D01*
X0286102Y0142313D02*
X0286102Y0156486D01*
X0291220Y0156486D01*
X0291220Y0142313D01*
X0286102Y0142313D01*
X0286102Y0143458D02*
X0291220Y0143458D01*
X0291220Y0144656D02*
X0286102Y0144656D01*
X0286102Y0145855D02*
X0291220Y0145855D01*
X0291220Y0147054D02*
X0286102Y0147054D01*
X0286102Y0148252D02*
X0291220Y0148252D01*
X0291220Y0149451D02*
X0286102Y0149451D01*
X0286102Y0150649D02*
X0291220Y0150649D01*
X0291220Y0151848D02*
X0286102Y0151848D01*
X0286102Y0153046D02*
X0291220Y0153046D01*
X0291220Y0154245D02*
X0286102Y0154245D01*
X0286102Y0155443D02*
X0291220Y0155443D01*
X0344370Y0139163D02*
X0342402Y0129715D01*
X0347520Y0129715D01*
X0345945Y0139163D01*
X0344370Y0139163D01*
X0344266Y0138664D02*
X0346028Y0138664D01*
X0346228Y0137465D02*
X0344016Y0137465D01*
X0343767Y0136267D02*
X0346428Y0136267D01*
X0346627Y0135068D02*
X0343517Y0135068D01*
X0343267Y0133870D02*
X0346827Y0133870D01*
X0347027Y0132671D02*
X0343018Y0132671D01*
X0342768Y0131473D02*
X0347227Y0131473D01*
X0347426Y0130274D02*
X0342518Y0130274D01*
X0348307Y0152156D02*
X0350276Y0152156D01*
X0353031Y0154911D01*
X0348307Y0154911D01*
X0348307Y0152156D01*
X0348307Y0153046D02*
X0351166Y0153046D01*
X0352365Y0154245D02*
X0348307Y0154245D01*
X0348307Y0167116D02*
X0353425Y0167116D01*
X0355000Y0184439D01*
X0348307Y0184045D01*
X0348307Y0167116D01*
X0348307Y0167428D02*
X0353454Y0167428D01*
X0353563Y0168627D02*
X0348307Y0168627D01*
X0348307Y0169825D02*
X0353671Y0169825D01*
X0353780Y0171024D02*
X0348307Y0171024D01*
X0348307Y0172222D02*
X0353889Y0172222D01*
X0353998Y0173421D02*
X0348307Y0173421D01*
X0348307Y0174619D02*
X0354107Y0174619D01*
X0354216Y0175818D02*
X0348307Y0175818D01*
X0348307Y0177016D02*
X0354325Y0177016D01*
X0354434Y0178215D02*
X0348307Y0178215D01*
X0348307Y0179413D02*
X0354543Y0179413D01*
X0354652Y0180612D02*
X0348307Y0180612D01*
X0348307Y0181810D02*
X0354761Y0181810D01*
X0354870Y0183009D02*
X0348307Y0183009D01*
X0351063Y0184207D02*
X0354979Y0184207D01*
X0355000Y0195069D02*
X0347913Y0195069D01*
X0347913Y0208455D01*
X0355000Y0208455D01*
X0355000Y0195069D01*
X0355000Y0196192D02*
X0347913Y0196192D01*
X0347913Y0197391D02*
X0355000Y0197391D01*
X0355000Y0198590D02*
X0347913Y0198590D01*
X0347913Y0199788D02*
X0355000Y0199788D01*
X0355000Y0200987D02*
X0347913Y0200987D01*
X0347913Y0202185D02*
X0355000Y0202185D01*
X0355000Y0203384D02*
X0347913Y0203384D01*
X0347913Y0204582D02*
X0355000Y0204582D01*
X0355000Y0205781D02*
X0347913Y0205781D01*
X0347913Y0206979D02*
X0355000Y0206979D01*
X0355000Y0208178D02*
X0347913Y0208178D01*
X0234528Y0186801D02*
X0234528Y0182864D01*
X0227835Y0182864D01*
X0228228Y0186801D01*
X0234528Y0186801D01*
X0234528Y0186604D02*
X0228209Y0186604D01*
X0227835Y0186604D02*
X0224932Y0186604D01*
X0227835Y0186801D02*
X0227835Y0182077D01*
X0224685Y0182077D01*
X0204606Y0184045D01*
X0204606Y0185226D01*
X0227835Y0186801D01*
X0227835Y0185406D02*
X0207254Y0185406D01*
X0204606Y0184207D02*
X0227835Y0184207D01*
X0227969Y0184207D02*
X0234528Y0184207D01*
X0234528Y0183009D02*
X0227849Y0183009D01*
X0227835Y0183009D02*
X0215178Y0183009D01*
X0228089Y0185406D02*
X0234528Y0185406D01*
D14*
X0312802Y0254236D03*
X0312802Y0260929D03*
X0321614Y0273839D03*
X0328307Y0273839D03*
X0334338Y0211158D03*
X0341031Y0211158D03*
X0280935Y0106545D03*
X0274242Y0106545D03*
X0108740Y0116722D03*
X0102047Y0116722D03*
X0052047Y0093494D03*
X0045354Y0093494D03*
D15*
X0192451Y0191726D03*
X0192451Y0200226D03*
X0351501Y0194205D03*
X0351501Y0185705D03*
X0351698Y0210173D03*
X0351698Y0218673D03*
D16*
X0349779Y0202057D03*
X0341279Y0202057D03*
X0342195Y0178307D03*
X0350695Y0178307D03*
X0331157Y0141604D03*
X0322657Y0141604D03*
D17*
X0328150Y0155295D03*
X0328150Y0162776D03*
X0350738Y0164882D03*
X0350738Y0157402D03*
X0344990Y0127047D03*
X0344990Y0119567D03*
X0288583Y0131939D03*
X0288583Y0139419D03*
X0288583Y0158278D03*
X0288583Y0165758D03*
X0227451Y0176850D03*
X0227451Y0184331D03*
X0197904Y0171033D03*
X0197904Y0163553D03*
X0182303Y0178612D03*
X0182303Y0186093D03*
X0170748Y0186211D03*
X0170748Y0178730D03*
X0071929Y0209439D03*
X0071929Y0216919D03*
X0079409Y0066132D03*
X0079409Y0058652D03*
X0089646Y0058652D03*
X0099488Y0058652D03*
X0099488Y0066132D03*
X0089646Y0066132D03*
X0281102Y0082175D03*
X0281102Y0089656D03*
X0283346Y0222825D03*
X0283346Y0230305D03*
X0273248Y0293927D03*
X0273248Y0301407D03*
X0386890Y0266526D03*
X0386890Y0259045D03*
D18*
X0264646Y0232470D03*
X0257165Y0232470D03*
X0243780Y0184911D03*
X0236299Y0184911D03*
X0288789Y0148484D03*
X0296270Y0148484D03*
X0356378Y0141594D03*
X0363858Y0141594D03*
X0280935Y0098415D03*
X0273455Y0098415D03*
X0113858Y0084045D03*
X0106378Y0084045D03*
X0106378Y0074990D03*
X0113858Y0074990D03*
X0087087Y0103337D03*
X0079606Y0103337D03*
X0022126Y0252943D03*
X0014646Y0252943D03*
X0015039Y0271447D03*
X0022520Y0271447D03*
X0055197Y0270266D03*
X0062677Y0270266D03*
X0062677Y0254518D03*
X0055197Y0254518D03*
D19*
X0037283Y0275187D03*
X0037283Y0281880D03*
X0032559Y0216526D03*
X0032559Y0209833D03*
X0209449Y0173917D03*
X0209449Y0167224D03*
X0274685Y0205896D03*
X0274685Y0212589D03*
X0304941Y0239311D03*
X0304941Y0246004D03*
D20*
X0283740Y0211604D03*
X0283740Y0200581D03*
X0218356Y0174902D03*
X0218356Y0163878D03*
X0032559Y0190344D03*
X0032559Y0201368D03*
D21*
X0318730Y0080768D03*
D22*
X0308691Y0090807D03*
X0328769Y0090807D03*
X0328769Y0070729D03*
X0308691Y0070729D03*
D23*
X0043976Y0029050D02*
X0043976Y0023450D01*
X0023976Y0053450D02*
X0023976Y0059050D01*
X0063976Y0059050D02*
X0063976Y0053450D01*
X0018312Y0103258D02*
X0012712Y0103258D01*
X0012712Y0123258D02*
X0018312Y0123258D01*
X0018430Y0145187D02*
X0012830Y0145187D01*
X0012830Y0155187D02*
X0018430Y0155187D01*
X0018430Y0165266D02*
X0012830Y0165266D01*
X0012830Y0175266D02*
X0018430Y0175266D01*
X0022008Y0230379D02*
X0022008Y0235979D01*
X0032008Y0235979D02*
X0032008Y0230379D01*
X0042008Y0230379D02*
X0042008Y0235979D01*
X0052008Y0235979D02*
X0052008Y0230379D01*
X0062008Y0230379D02*
X0062008Y0235979D01*
X0072008Y0235979D02*
X0072008Y0230379D01*
X0082008Y0230379D02*
X0082008Y0235979D01*
X0092008Y0235979D02*
X0092008Y0230379D01*
X0102008Y0230379D02*
X0102008Y0235979D01*
X0112008Y0235979D02*
X0112008Y0230379D01*
X0122008Y0230379D02*
X0122008Y0235979D01*
X0132008Y0235979D02*
X0132008Y0230379D01*
X0142008Y0230379D02*
X0142008Y0235979D01*
X0152008Y0235979D02*
X0152008Y0230379D01*
X0162008Y0230379D02*
X0162008Y0235979D01*
X0172008Y0235979D02*
X0172008Y0230379D01*
X0182008Y0230379D02*
X0182008Y0235979D01*
X0192008Y0235979D02*
X0192008Y0230379D01*
X0202008Y0230379D02*
X0202008Y0235979D01*
X0212008Y0235979D02*
X0212008Y0230379D01*
X0222008Y0230379D02*
X0222008Y0235979D01*
X0232008Y0235979D02*
X0232008Y0230379D01*
X0242008Y0230379D02*
X0242008Y0235979D01*
X0242008Y0290379D02*
X0242008Y0295979D01*
X0232008Y0295979D02*
X0232008Y0290379D01*
X0222008Y0290379D02*
X0222008Y0295979D01*
X0212008Y0295979D02*
X0212008Y0290379D01*
X0202008Y0290379D02*
X0202008Y0295979D01*
X0192008Y0295979D02*
X0192008Y0290379D01*
X0182008Y0290379D02*
X0182008Y0295979D01*
X0172008Y0295979D02*
X0172008Y0290379D01*
X0162008Y0290379D02*
X0162008Y0295979D01*
X0152008Y0295979D02*
X0152008Y0290379D01*
X0142008Y0290379D02*
X0142008Y0295979D01*
X0132008Y0295979D02*
X0132008Y0290379D01*
X0122008Y0290379D02*
X0122008Y0295979D01*
X0112008Y0295979D02*
X0112008Y0290379D01*
X0102008Y0290379D02*
X0102008Y0295979D01*
X0092008Y0295979D02*
X0092008Y0290379D01*
X0082008Y0290379D02*
X0082008Y0295979D01*
X0072008Y0295979D02*
X0072008Y0290379D01*
X0062008Y0290379D02*
X0062008Y0295979D01*
X0052008Y0295979D02*
X0052008Y0290379D01*
X0042008Y0290379D02*
X0042008Y0295979D01*
X0032008Y0295979D02*
X0032008Y0290379D01*
X0022008Y0290379D02*
X0022008Y0295979D01*
X0012008Y0295979D02*
X0012008Y0290379D01*
X0021890Y0306836D02*
X0021890Y0312436D01*
X0031890Y0312436D02*
X0031890Y0306836D01*
X0041890Y0306836D02*
X0041890Y0312436D01*
X0051890Y0312436D02*
X0051890Y0306836D01*
X0061929Y0306836D02*
X0061929Y0312436D01*
X0071929Y0312436D02*
X0071929Y0306836D01*
X0081929Y0306836D02*
X0081929Y0312436D01*
X0091969Y0312436D02*
X0091969Y0306836D01*
X0101969Y0306836D02*
X0101969Y0312436D01*
X0111969Y0312436D02*
X0111969Y0306836D01*
X0121969Y0306836D02*
X0121969Y0312436D01*
X0132126Y0312436D02*
X0132126Y0306836D01*
X0142126Y0306836D02*
X0142126Y0312436D01*
X0152126Y0312436D02*
X0152126Y0306836D01*
X0162126Y0306836D02*
X0162126Y0312436D01*
X0172047Y0312436D02*
X0172047Y0306836D01*
X0182047Y0306836D02*
X0182047Y0312436D01*
X0191969Y0312436D02*
X0191969Y0306836D01*
X0201969Y0306836D02*
X0201969Y0312436D01*
X0211969Y0312436D02*
X0211969Y0306836D01*
X0221969Y0306836D02*
X0221969Y0312436D01*
X0289213Y0313223D02*
X0289213Y0307623D01*
X0299213Y0307623D02*
X0299213Y0313223D01*
X0309213Y0313223D02*
X0309213Y0307623D01*
X0319213Y0307623D02*
X0319213Y0313223D01*
X0329134Y0313223D02*
X0329134Y0307623D01*
X0339134Y0307623D02*
X0339134Y0313223D01*
X0349055Y0313223D02*
X0349055Y0307623D01*
X0359055Y0307623D02*
X0359055Y0313223D01*
X0369055Y0313223D02*
X0369055Y0307623D01*
X0379055Y0307623D02*
X0379055Y0313223D01*
X0383302Y0170935D02*
X0388902Y0170935D01*
X0388902Y0160935D02*
X0383302Y0160935D01*
X0144020Y0128415D02*
X0138420Y0128415D01*
X0138420Y0118415D02*
X0144020Y0118415D01*
X0125517Y0118533D02*
X0119917Y0118533D01*
X0119917Y0128533D02*
X0125517Y0128533D01*
X0125517Y0138533D02*
X0119917Y0138533D01*
X0068312Y0113258D02*
X0062712Y0113258D01*
X0012008Y0230379D02*
X0012008Y0235979D01*
D24*
X0274221Y0241033D03*
X0274221Y0243593D03*
X0274221Y0246152D03*
X0274221Y0248711D03*
X0274221Y0251270D03*
X0274221Y0253829D03*
X0274221Y0256388D03*
X0274221Y0258947D03*
X0274221Y0261506D03*
X0274221Y0264065D03*
X0274221Y0266624D03*
X0274221Y0269183D03*
X0274221Y0271742D03*
X0274221Y0274301D03*
X0297196Y0274301D03*
X0297196Y0271742D03*
X0297196Y0269183D03*
X0297196Y0266624D03*
X0297196Y0264065D03*
X0297196Y0261506D03*
X0297196Y0258947D03*
X0297196Y0256388D03*
X0297196Y0253829D03*
X0297196Y0251270D03*
X0297196Y0248711D03*
X0297196Y0246152D03*
X0297196Y0243593D03*
X0297196Y0241033D03*
D25*
X0320654Y0251274D03*
X0320654Y0257274D03*
X0320654Y0263274D03*
X0332654Y0263274D03*
X0332654Y0257274D03*
X0332654Y0251274D03*
D26*
X0341417Y0151762D03*
X0345157Y0151762D03*
X0348898Y0151762D03*
X0348898Y0141525D03*
X0345157Y0141526D03*
X0341417Y0141525D03*
X0128031Y0167509D03*
X0124291Y0167509D03*
X0120551Y0167509D03*
X0120551Y0177746D03*
X0124291Y0177746D03*
X0128031Y0177746D03*
D27*
X0192401Y0177156D03*
X0192401Y0180896D03*
X0192401Y0184636D03*
X0202638Y0184636D03*
X0202637Y0180896D03*
X0202638Y0177156D03*
X0089252Y0123612D03*
X0089252Y0119872D03*
X0089252Y0116132D03*
X0079015Y0116132D03*
X0079015Y0119872D03*
X0079015Y0123612D03*
D28*
X0280409Y0121216D03*
X0288309Y0121216D03*
X0288309Y0113016D03*
D29*
X0281209Y0113016D03*
D30*
X0311496Y0298612D03*
X0318976Y0298612D03*
D31*
X0086890Y0093907D03*
X0086890Y0088907D03*
X0086890Y0083907D03*
X0086890Y0078907D03*
X0066417Y0078907D03*
X0066417Y0083907D03*
X0066417Y0088907D03*
X0066417Y0093907D03*
D32*
X0246929Y0215541D03*
X0246929Y0217510D03*
X0246929Y0219478D03*
X0246929Y0221447D03*
X0246929Y0223415D03*
X0264646Y0223415D03*
X0264646Y0221447D03*
X0264646Y0219478D03*
X0264646Y0217510D03*
X0264646Y0215541D03*
D33*
X0149390Y0211506D03*
X0146831Y0211506D03*
X0144272Y0211506D03*
X0141713Y0211506D03*
X0139154Y0211506D03*
X0136594Y0211506D03*
X0134035Y0211506D03*
X0131476Y0211506D03*
X0131476Y0188868D03*
X0134035Y0188868D03*
X0136594Y0188868D03*
X0139154Y0188868D03*
X0141713Y0188868D03*
X0144272Y0188868D03*
X0146831Y0188868D03*
X0149390Y0188868D03*
D34*
X0309075Y0222096D03*
X0309075Y0229596D03*
D35*
X0299075Y0225846D03*
D36*
X0383339Y0140896D02*
X0389339Y0140896D01*
X0389339Y0130896D02*
X0383339Y0130896D01*
X0383339Y0120896D02*
X0389339Y0120896D01*
X0018000Y0191762D02*
X0012000Y0191762D01*
X0012000Y0201762D02*
X0018000Y0201762D01*
X0018000Y0211762D02*
X0012000Y0211762D01*
D37*
X0030295Y0259734D03*
X0030295Y0262293D03*
X0030295Y0264852D03*
X0030295Y0267411D03*
X0043484Y0267411D03*
X0043484Y0264852D03*
X0043484Y0262293D03*
X0043484Y0259734D03*
D38*
X0040728Y0256978D03*
X0038169Y0256978D03*
X0035610Y0256978D03*
X0033051Y0256978D03*
X0033051Y0270167D03*
X0035610Y0270167D03*
X0038169Y0270167D03*
X0040728Y0270167D03*
D39*
X0036890Y0263573D03*
D40*
X0012087Y0304715D03*
X0012087Y0312195D03*
D41*
X0320945Y0246644D03*
X0326063Y0246644D03*
X0326457Y0268297D03*
X0321339Y0268297D03*
D42*
X0357598Y0080659D03*
X0367598Y0080659D03*
X0377598Y0080659D03*
X0377598Y0060659D03*
X0367598Y0060659D03*
X0357598Y0060659D03*
D43*
X0176260Y0170266D03*
X0095551Y0110030D03*
X0141220Y0095069D03*
X0273504Y0230502D03*
D44*
X0257362Y0241919D03*
X0289252Y0243494D03*
X0294370Y0236407D03*
X0294370Y0217510D03*
X0290433Y0213179D03*
X0290433Y0206880D03*
X0290433Y0199006D03*
X0281772Y0190738D03*
X0288858Y0185620D03*
X0294370Y0178533D03*
X0296732Y0170266D03*
X0296732Y0161998D03*
X0296732Y0154124D03*
X0297520Y0140344D03*
X0306575Y0139951D03*
X0306181Y0135620D03*
X0297520Y0130108D03*
X0306181Y0123415D03*
X0295945Y0121447D03*
X0292795Y0113573D03*
X0289252Y0109242D03*
X0289252Y0100581D03*
X0289646Y0091526D03*
X0289646Y0084045D03*
X0289646Y0076565D03*
X0289646Y0068691D03*
X0289646Y0060817D03*
X0292008Y0053337D03*
X0296339Y0047431D03*
X0303031Y0043100D03*
X0310906Y0041919D03*
X0319567Y0041919D03*
X0327441Y0041919D03*
X0334921Y0041919D03*
X0342402Y0041919D03*
X0349094Y0041919D03*
X0355787Y0041919D03*
X0361299Y0043888D03*
X0365236Y0047431D03*
X0368386Y0052549D03*
X0384528Y0046250D03*
X0386102Y0053337D03*
X0386496Y0060817D03*
X0386496Y0067904D03*
X0393583Y0065935D03*
X0393189Y0078533D03*
X0384528Y0075384D03*
X0384134Y0084439D03*
X0380197Y0088376D03*
X0374685Y0091526D03*
X0371535Y0096250D03*
X0367598Y0101762D03*
X0363268Y0108455D03*
X0358937Y0114360D03*
X0355787Y0119085D03*
X0362874Y0123415D03*
X0366811Y0127352D03*
X0366811Y0136014D03*
X0358937Y0135620D03*
X0351457Y0136407D03*
X0352244Y0128140D03*
X0338071Y0127352D03*
X0338465Y0133652D03*
X0336496Y0137982D03*
X0327835Y0123415D03*
X0336496Y0119085D03*
X0338465Y0112785D03*
X0342795Y0108061D03*
X0346339Y0102549D03*
X0350276Y0097037D03*
X0353031Y0091132D03*
X0344764Y0089163D03*
X0337283Y0089163D03*
X0327441Y0106486D03*
X0306181Y0106486D03*
X0279803Y0130108D03*
X0271535Y0135620D03*
X0280197Y0140344D03*
X0280197Y0149006D03*
X0280197Y0156880D03*
X0280197Y0164754D03*
X0277441Y0172628D03*
X0269567Y0176565D03*
X0260118Y0176565D03*
X0250669Y0176565D03*
X0241614Y0176565D03*
X0232953Y0176565D03*
X0231772Y0168691D03*
X0223898Y0169872D03*
X0223504Y0158455D03*
X0231772Y0157667D03*
X0223898Y0149793D03*
X0231772Y0144281D03*
X0223898Y0137195D03*
X0231772Y0132470D03*
X0223898Y0125384D03*
X0231772Y0121841D03*
X0223898Y0113573D03*
X0231772Y0111211D03*
X0232165Y0102549D03*
X0227047Y0096644D03*
X0223898Y0101762D03*
X0234921Y0094281D03*
X0243189Y0094281D03*
X0252244Y0094281D03*
X0246339Y0102156D03*
X0250276Y0106880D03*
X0258150Y0102549D03*
X0268386Y0102549D03*
X0268386Y0094281D03*
X0272717Y0092707D03*
X0262480Y0094281D03*
X0272717Y0083652D03*
X0272323Y0074596D03*
X0272323Y0066722D03*
X0272323Y0058848D03*
X0273898Y0051368D03*
X0277047Y0044281D03*
X0280984Y0038376D03*
X0286102Y0033258D03*
X0292402Y0028927D03*
X0300276Y0025778D03*
X0308937Y0024596D03*
X0317205Y0024596D03*
X0324685Y0024596D03*
X0331772Y0024596D03*
X0340039Y0024596D03*
X0347913Y0024596D03*
X0356181Y0024596D03*
X0364055Y0026171D03*
X0370748Y0029321D03*
X0377047Y0034045D03*
X0381378Y0039557D03*
X0393583Y0038967D03*
X0393189Y0028337D03*
X0393189Y0016526D03*
X0379409Y0016526D03*
X0366024Y0016132D03*
X0351063Y0016329D03*
X0332559Y0015935D03*
X0316811Y0015935D03*
X0299094Y0015935D03*
X0283346Y0015935D03*
X0263661Y0015935D03*
X0247913Y0015935D03*
X0230197Y0015935D03*
X0214449Y0015935D03*
X0198701Y0015935D03*
X0198701Y0029715D03*
X0198701Y0043888D03*
X0198701Y0057667D03*
X0198701Y0070266D03*
X0198701Y0084439D03*
X0212087Y0086407D03*
X0198701Y0097037D03*
X0198701Y0107667D03*
X0212087Y0111998D03*
X0198701Y0121447D03*
X0198701Y0131683D03*
X0198701Y0141526D03*
X0198701Y0149793D03*
X0202638Y0158455D03*
X0203819Y0167116D03*
X0199094Y0191132D03*
X0199094Y0195463D03*
X0205394Y0201762D03*
X0212874Y0201762D03*
X0223110Y0201762D03*
X0225079Y0192707D03*
X0217205Y0192707D03*
X0208543Y0192313D03*
X0235512Y0193494D03*
X0238071Y0199990D03*
X0244567Y0193494D03*
X0254606Y0193494D03*
X0263661Y0193494D03*
X0262480Y0202549D03*
X0269961Y0202156D03*
X0273110Y0193100D03*
X0266811Y0211998D03*
X0252441Y0201762D03*
X0299488Y0213967D03*
X0308543Y0213967D03*
X0315630Y0211604D03*
X0319567Y0215541D03*
X0323898Y0220659D03*
X0329016Y0226171D03*
X0334528Y0231683D03*
X0334528Y0239557D03*
X0343189Y0236407D03*
X0343189Y0227746D03*
X0342402Y0218691D03*
X0335709Y0217510D03*
X0333346Y0206093D03*
X0333346Y0196250D03*
X0341220Y0192313D03*
X0341220Y0184439D03*
X0337283Y0178533D03*
X0342008Y0171447D03*
X0342402Y0165541D03*
X0342402Y0158848D03*
X0333740Y0155699D03*
X0322323Y0154911D03*
X0318386Y0149793D03*
X0317598Y0139951D03*
X0314449Y0169085D03*
X0314843Y0202943D03*
X0360906Y0200581D03*
X0360906Y0192313D03*
X0360906Y0183652D03*
X0360512Y0176171D03*
X0368780Y0171841D03*
X0377047Y0165935D03*
X0368780Y0162785D03*
X0368780Y0154911D03*
X0376654Y0155305D03*
X0376654Y0147825D03*
X0368780Y0147825D03*
X0359331Y0154911D03*
X0359724Y0161211D03*
X0359331Y0167510D03*
X0376260Y0180108D03*
X0382559Y0187982D03*
X0392008Y0187785D03*
X0392008Y0199203D03*
X0382559Y0199006D03*
X0382165Y0210030D03*
X0392008Y0210226D03*
X0392008Y0221644D03*
X0382165Y0221447D03*
X0382165Y0234045D03*
X0392008Y0234242D03*
X0392008Y0246053D03*
X0382165Y0245856D03*
X0380984Y0257667D03*
X0371732Y0261014D03*
X0358543Y0256486D03*
X0355394Y0262982D03*
X0351457Y0266526D03*
X0357756Y0268888D03*
X0361102Y0272825D03*
X0370354Y0281880D03*
X0381772Y0281880D03*
X0380984Y0272234D03*
X0392402Y0272037D03*
X0393583Y0282077D03*
X0392795Y0257864D03*
X0360118Y0248415D03*
X0360118Y0239951D03*
X0360118Y0231683D03*
X0360118Y0224203D03*
X0360906Y0216329D03*
X0360906Y0208455D03*
X0343189Y0244281D03*
X0339843Y0251171D03*
X0334528Y0247431D03*
X0306181Y0251368D03*
X0289252Y0253730D03*
X0289252Y0258848D03*
X0289252Y0266722D03*
X0311693Y0278533D03*
X0313661Y0283258D03*
X0318780Y0291132D03*
X0303819Y0292313D03*
X0282165Y0301368D03*
X0273110Y0310030D03*
X0349094Y0291132D03*
X0353031Y0283258D03*
X0255394Y0156486D03*
X0260512Y0139951D03*
X0250669Y0137195D03*
X0258543Y0129321D03*
X0247913Y0127352D03*
X0247913Y0117510D03*
X0258543Y0113573D03*
X0268386Y0113573D03*
X0274291Y0119478D03*
X0251063Y0068691D03*
X0252244Y0044281D03*
X0223504Y0044281D03*
X0223504Y0068691D03*
X0212087Y0137982D03*
X0149488Y0183258D03*
X0141614Y0172628D03*
X0134134Y0172628D03*
X0128228Y0172628D03*
X0116417Y0167510D03*
X0116024Y0177746D03*
X0128228Y0205305D03*
X0121929Y0215935D03*
X0092008Y0208848D03*
X0087283Y0254518D03*
X0057756Y0262392D03*
X0048701Y0267510D03*
X0023898Y0260817D03*
X0018386Y0277746D03*
X0029803Y0241526D03*
X0048307Y0154911D03*
X0053031Y0142707D03*
X0067205Y0154911D03*
X0080591Y0128927D03*
X0108937Y0124203D03*
X0125866Y0108455D03*
X0132165Y0095856D03*
X0099488Y0088770D03*
X0099488Y0084045D03*
X0092795Y0103337D03*
X0058937Y0078927D03*
X0043976Y0080108D03*
X0053031Y0103337D03*
X0053031Y0119478D03*
X0106969Y0058455D03*
X0171929Y0211998D03*
X0338465Y0071841D03*
X0347913Y0071841D03*
X0357756Y0069478D03*
X0367598Y0069478D03*
X0344370Y0054911D03*
X0316417Y0054518D03*
X0379409Y0108455D03*
X0393189Y0111801D03*
X0393583Y0102156D03*
X0393583Y0091132D03*
X0393583Y0051565D03*
X0355394Y0148219D03*
D45*
X0036890Y0263573D03*
M02*
