G75*
%MOIN*%
%OFA0B0*%
%FSLAX25Y25*%
%IPPOS*%
%LPD*%
%AMOC8*
5,1,8,0,0,1.08239X$1,22.5*
%
%ADD10C,0.00600*%
%ADD11C,0.00400*%
%ADD12C,0.01000*%
%ADD13C,0.00500*%
%ADD14C,0.00200*%
%ADD15C,0.00800*%
%ADD16C,0.01682*%
%ADD17R,0.03000X0.42000*%
%ADD18R,0.02000X0.07500*%
%ADD19R,0.02000X0.03000*%
D10*
X0011367Y0012669D02*
X0009232Y0014804D01*
X0011367Y0016939D01*
X0015637Y0016939D01*
X0014569Y0019114D02*
X0015637Y0020182D01*
X0015637Y0022317D01*
X0014569Y0023385D01*
X0009232Y0023385D01*
X0009232Y0025560D02*
X0009232Y0028762D01*
X0010299Y0029830D01*
X0014569Y0029830D01*
X0015637Y0028762D01*
X0015637Y0025560D01*
X0009232Y0025560D01*
X0009232Y0032005D02*
X0009232Y0034140D01*
X0009232Y0033073D02*
X0015637Y0033073D01*
X0015637Y0034140D02*
X0015637Y0032005D01*
X0014569Y0036302D02*
X0010299Y0036302D01*
X0009232Y0037370D01*
X0009232Y0039505D01*
X0010299Y0040573D01*
X0014569Y0040573D01*
X0015637Y0039505D01*
X0015637Y0037370D01*
X0014569Y0036302D01*
X0015637Y0049193D02*
X0015637Y0051328D01*
X0015637Y0050261D02*
X0009232Y0050261D01*
X0009232Y0051328D02*
X0009232Y0049193D01*
X0009232Y0053490D02*
X0015637Y0057761D01*
X0009232Y0057761D01*
X0009232Y0053490D02*
X0015637Y0053490D01*
X0014569Y0019114D02*
X0009232Y0019114D01*
X0012434Y0016939D02*
X0012434Y0012669D01*
X0011367Y0012669D02*
X0015637Y0012669D01*
X0104366Y0019865D02*
X0104366Y0026270D01*
X0108636Y0026270D01*
X0110811Y0026270D02*
X0112946Y0024135D01*
X0115081Y0026270D01*
X0115081Y0019865D01*
X0110811Y0019865D02*
X0110811Y0026270D01*
X0106501Y0023068D02*
X0104366Y0023068D01*
X0123702Y0026270D02*
X0127972Y0026270D01*
X0125837Y0026270D02*
X0125837Y0019865D01*
X0130148Y0019865D02*
X0130148Y0024135D01*
X0132283Y0024135D02*
X0133350Y0024135D01*
X0132283Y0024135D02*
X0130148Y0022000D01*
X0135519Y0020933D02*
X0136586Y0022000D01*
X0139789Y0022000D01*
X0139789Y0023068D02*
X0139789Y0019865D01*
X0136586Y0019865D01*
X0135519Y0020933D01*
X0136586Y0024135D02*
X0138722Y0024135D01*
X0139789Y0023068D01*
X0141964Y0024135D02*
X0141964Y0019865D01*
X0141964Y0024135D02*
X0145167Y0024135D01*
X0146235Y0023068D01*
X0146235Y0019865D01*
X0148410Y0019865D02*
X0151613Y0019865D01*
X0152680Y0020933D01*
X0151613Y0022000D01*
X0149477Y0022000D01*
X0148410Y0023068D01*
X0149477Y0024135D01*
X0152680Y0024135D01*
X0154855Y0024135D02*
X0155923Y0024135D01*
X0156990Y0023068D01*
X0158058Y0024135D01*
X0159126Y0023068D01*
X0159126Y0019865D01*
X0156990Y0019865D02*
X0156990Y0023068D01*
X0154855Y0024135D02*
X0154855Y0019865D01*
X0161301Y0019865D02*
X0163436Y0019865D01*
X0162368Y0019865D02*
X0162368Y0024135D01*
X0161301Y0024135D01*
X0162368Y0026270D02*
X0162368Y0027338D01*
X0163429Y0029314D02*
X0161294Y0029314D01*
X0160227Y0030381D01*
X0164497Y0034652D01*
X0164497Y0030381D01*
X0163429Y0029314D01*
X0166672Y0029314D02*
X0166672Y0035719D01*
X0168807Y0033584D01*
X0170942Y0035719D01*
X0170942Y0029314D01*
X0173118Y0029314D02*
X0173118Y0035719D01*
X0173118Y0032517D02*
X0177388Y0032517D01*
X0179563Y0033584D02*
X0183833Y0033584D01*
X0179563Y0029314D01*
X0183833Y0029314D01*
X0183840Y0024135D02*
X0182772Y0024135D01*
X0180637Y0022000D01*
X0180637Y0019865D02*
X0180637Y0024135D01*
X0178462Y0023068D02*
X0178462Y0022000D01*
X0174192Y0022000D01*
X0174192Y0020933D02*
X0174192Y0023068D01*
X0175259Y0024135D01*
X0177395Y0024135D01*
X0178462Y0023068D01*
X0177395Y0019865D02*
X0175259Y0019865D01*
X0174192Y0020933D01*
X0172030Y0019865D02*
X0170962Y0020933D01*
X0170962Y0025203D01*
X0169895Y0024135D02*
X0172030Y0024135D01*
X0167733Y0024135D02*
X0165598Y0024135D01*
X0166665Y0025203D02*
X0166665Y0020933D01*
X0167733Y0019865D01*
X0160227Y0030381D02*
X0160227Y0034652D01*
X0161294Y0035719D01*
X0163429Y0035719D01*
X0164497Y0034652D01*
X0158051Y0034652D02*
X0153781Y0030381D01*
X0153781Y0029314D01*
X0151606Y0029314D02*
X0147336Y0029314D01*
X0149471Y0029314D02*
X0149471Y0035719D01*
X0147336Y0033584D01*
X0145160Y0032517D02*
X0140890Y0032517D01*
X0138715Y0034652D02*
X0134445Y0030381D01*
X0135512Y0029314D01*
X0137647Y0029314D01*
X0138715Y0030381D01*
X0138715Y0034652D01*
X0137647Y0035719D01*
X0135512Y0035719D01*
X0134445Y0034652D01*
X0134445Y0030381D01*
X0132269Y0034652D02*
X0127999Y0030381D01*
X0127999Y0029314D01*
X0127999Y0035719D02*
X0132269Y0035719D01*
X0132269Y0034652D01*
X0153781Y0035719D02*
X0158051Y0035719D01*
X0158051Y0034652D01*
X0177388Y0035719D02*
X0177388Y0029314D01*
X0144220Y0092069D02*
X0143220Y0092069D01*
X0144220Y0092069D02*
X0144220Y0093069D01*
X0144220Y0097069D02*
X0144220Y0098069D01*
X0143220Y0098069D01*
X0139220Y0098069D02*
X0138220Y0098069D01*
X0138220Y0097069D01*
X0138220Y0093069D02*
X0138220Y0092069D01*
X0139220Y0092069D01*
X0098551Y0107030D02*
X0097551Y0107030D01*
X0098551Y0107030D02*
X0098551Y0108030D01*
X0093551Y0107030D02*
X0092551Y0107030D01*
X0092551Y0108030D01*
X0092551Y0112030D02*
X0092551Y0113030D01*
X0093551Y0113030D01*
X0097551Y0113030D02*
X0098551Y0113030D01*
X0098551Y0112030D01*
X0087324Y0114272D02*
X0087324Y0114645D01*
X0087324Y0114272D02*
X0080943Y0114272D01*
X0080943Y0114645D01*
X0080943Y0125099D02*
X0080943Y0125472D01*
X0087324Y0125472D01*
X0087324Y0125099D01*
X0118691Y0169437D02*
X0119065Y0169437D01*
X0118691Y0169437D02*
X0118691Y0175819D01*
X0119065Y0175819D01*
X0129518Y0175819D02*
X0129891Y0175819D01*
X0129891Y0169437D01*
X0129518Y0169437D01*
X0173260Y0168266D02*
X0173260Y0167266D01*
X0174260Y0167266D01*
X0178260Y0167266D02*
X0179260Y0167266D01*
X0179260Y0168266D01*
X0179260Y0172266D02*
X0179260Y0173266D01*
X0178260Y0173266D01*
X0174260Y0173266D02*
X0173260Y0173266D01*
X0173260Y0172266D01*
X0194329Y0175296D02*
X0194329Y0175669D01*
X0194329Y0175296D02*
X0200710Y0175296D01*
X0200710Y0175669D01*
X0200710Y0186122D02*
X0200710Y0186496D01*
X0194329Y0186496D01*
X0194329Y0186122D01*
X0270504Y0227502D02*
X0270504Y0228502D01*
X0270504Y0227502D02*
X0271504Y0227502D01*
X0275504Y0227502D02*
X0276504Y0227502D01*
X0276504Y0228502D01*
X0276504Y0232502D02*
X0276504Y0233502D01*
X0275504Y0233502D01*
X0271504Y0233502D02*
X0270504Y0233502D01*
X0270504Y0232502D01*
X0276721Y0238811D02*
X0294696Y0238811D01*
X0294696Y0276524D01*
X0276721Y0276524D01*
X0276721Y0238811D01*
X0279109Y0271744D02*
X0279111Y0271828D01*
X0279117Y0271913D01*
X0279127Y0271996D01*
X0279141Y0272080D01*
X0279158Y0272162D01*
X0279180Y0272244D01*
X0279205Y0272324D01*
X0279234Y0272403D01*
X0279267Y0272481D01*
X0279303Y0272557D01*
X0279343Y0272632D01*
X0279387Y0272704D01*
X0279433Y0272775D01*
X0279483Y0272843D01*
X0279536Y0272908D01*
X0279592Y0272971D01*
X0279651Y0273032D01*
X0279713Y0273089D01*
X0279777Y0273144D01*
X0279844Y0273195D01*
X0279913Y0273244D01*
X0279985Y0273289D01*
X0280058Y0273330D01*
X0280133Y0273368D01*
X0280210Y0273403D01*
X0280289Y0273434D01*
X0280369Y0273461D01*
X0280450Y0273484D01*
X0280532Y0273504D01*
X0280615Y0273520D01*
X0280698Y0273532D01*
X0280783Y0273540D01*
X0280867Y0273544D01*
X0280951Y0273544D01*
X0281035Y0273540D01*
X0281120Y0273532D01*
X0281203Y0273520D01*
X0281286Y0273504D01*
X0281368Y0273484D01*
X0281449Y0273461D01*
X0281529Y0273434D01*
X0281608Y0273403D01*
X0281685Y0273368D01*
X0281760Y0273330D01*
X0281833Y0273289D01*
X0281905Y0273244D01*
X0281974Y0273195D01*
X0282041Y0273144D01*
X0282105Y0273089D01*
X0282167Y0273032D01*
X0282226Y0272971D01*
X0282282Y0272908D01*
X0282335Y0272843D01*
X0282385Y0272775D01*
X0282431Y0272704D01*
X0282475Y0272632D01*
X0282515Y0272557D01*
X0282551Y0272481D01*
X0282584Y0272403D01*
X0282613Y0272324D01*
X0282638Y0272244D01*
X0282660Y0272162D01*
X0282677Y0272080D01*
X0282691Y0271996D01*
X0282701Y0271913D01*
X0282707Y0271828D01*
X0282709Y0271744D01*
X0282707Y0271660D01*
X0282701Y0271575D01*
X0282691Y0271492D01*
X0282677Y0271408D01*
X0282660Y0271326D01*
X0282638Y0271244D01*
X0282613Y0271164D01*
X0282584Y0271085D01*
X0282551Y0271007D01*
X0282515Y0270931D01*
X0282475Y0270856D01*
X0282431Y0270784D01*
X0282385Y0270713D01*
X0282335Y0270645D01*
X0282282Y0270580D01*
X0282226Y0270517D01*
X0282167Y0270456D01*
X0282105Y0270399D01*
X0282041Y0270344D01*
X0281974Y0270293D01*
X0281905Y0270244D01*
X0281833Y0270199D01*
X0281760Y0270158D01*
X0281685Y0270120D01*
X0281608Y0270085D01*
X0281529Y0270054D01*
X0281449Y0270027D01*
X0281368Y0270004D01*
X0281286Y0269984D01*
X0281203Y0269968D01*
X0281120Y0269956D01*
X0281035Y0269948D01*
X0280951Y0269944D01*
X0280867Y0269944D01*
X0280783Y0269948D01*
X0280698Y0269956D01*
X0280615Y0269968D01*
X0280532Y0269984D01*
X0280450Y0270004D01*
X0280369Y0270027D01*
X0280289Y0270054D01*
X0280210Y0270085D01*
X0280133Y0270120D01*
X0280058Y0270158D01*
X0279985Y0270199D01*
X0279913Y0270244D01*
X0279844Y0270293D01*
X0279777Y0270344D01*
X0279713Y0270399D01*
X0279651Y0270456D01*
X0279592Y0270517D01*
X0279536Y0270580D01*
X0279483Y0270645D01*
X0279433Y0270713D01*
X0279387Y0270784D01*
X0279343Y0270856D01*
X0279303Y0270931D01*
X0279267Y0271007D01*
X0279234Y0271085D01*
X0279205Y0271164D01*
X0279180Y0271244D01*
X0279158Y0271326D01*
X0279141Y0271408D01*
X0279127Y0271492D01*
X0279117Y0271575D01*
X0279111Y0271660D01*
X0279109Y0271744D01*
X0339557Y0149834D02*
X0339931Y0149834D01*
X0339557Y0149834D02*
X0339557Y0143453D01*
X0339931Y0143453D01*
X0350384Y0143453D02*
X0350757Y0143453D01*
X0350757Y0149834D01*
X0350384Y0149834D01*
D11*
X0297903Y0154452D02*
X0297135Y0153684D01*
X0295601Y0153684D01*
X0294833Y0154452D01*
X0294833Y0155986D02*
X0296368Y0156754D01*
X0297135Y0156754D01*
X0297903Y0155986D01*
X0297903Y0154452D01*
X0294833Y0155986D02*
X0294833Y0158288D01*
X0297903Y0158288D01*
X0293299Y0157521D02*
X0293299Y0155986D01*
X0292531Y0155219D01*
X0290230Y0155219D01*
X0291764Y0155219D02*
X0293299Y0153684D01*
X0290230Y0153684D02*
X0290230Y0158288D01*
X0292531Y0158288D01*
X0293299Y0157521D01*
X0283383Y0159718D02*
X0278779Y0159718D01*
X0278779Y0162020D01*
X0279546Y0162787D01*
X0281081Y0162787D01*
X0281848Y0162020D01*
X0281848Y0159718D01*
X0281848Y0161252D02*
X0283383Y0162787D01*
X0281081Y0164322D02*
X0281081Y0167391D01*
X0283383Y0166624D02*
X0278779Y0166624D01*
X0281081Y0164322D01*
X0293779Y0136844D02*
X0294546Y0135310D01*
X0296081Y0133775D01*
X0296081Y0136077D01*
X0296848Y0136844D01*
X0297615Y0136844D01*
X0298383Y0136077D01*
X0298383Y0134543D01*
X0297615Y0133775D01*
X0296081Y0133775D01*
X0296081Y0132241D02*
X0296848Y0131473D01*
X0296848Y0129171D01*
X0298383Y0129171D02*
X0293779Y0129171D01*
X0293779Y0131473D01*
X0294546Y0132241D01*
X0296081Y0132241D01*
X0296848Y0130706D02*
X0298383Y0132241D01*
X0387795Y0084325D02*
X0388562Y0082790D01*
X0390096Y0081255D01*
X0390096Y0083557D01*
X0390864Y0084325D01*
X0391631Y0084325D01*
X0392398Y0083557D01*
X0392398Y0082023D01*
X0391631Y0081255D01*
X0390096Y0081255D01*
X0390864Y0079721D02*
X0390096Y0078954D01*
X0390096Y0077419D01*
X0389329Y0076652D01*
X0388562Y0076652D01*
X0387795Y0077419D01*
X0387795Y0078954D01*
X0388562Y0079721D01*
X0387027Y0078186D02*
X0393166Y0078186D01*
X0392398Y0077419D02*
X0392398Y0078954D01*
X0391631Y0079721D01*
X0390864Y0079721D01*
X0392398Y0077419D02*
X0391631Y0076652D01*
X0391631Y0075117D02*
X0387795Y0075117D01*
X0387795Y0072048D02*
X0391631Y0072048D01*
X0392398Y0072815D01*
X0392398Y0074350D01*
X0391631Y0075117D01*
X0202172Y0195293D02*
X0202172Y0198363D01*
X0202172Y0199897D02*
X0201405Y0199897D01*
X0198335Y0202967D01*
X0197568Y0202967D01*
X0197568Y0199897D01*
X0197568Y0195293D02*
X0202172Y0195293D01*
X0180253Y0195502D02*
X0175649Y0195502D01*
X0177183Y0193967D01*
X0176416Y0192433D02*
X0175649Y0191665D01*
X0175649Y0190131D01*
X0176416Y0189363D01*
X0179485Y0189363D01*
X0180253Y0190131D01*
X0180253Y0191665D01*
X0179485Y0192433D01*
X0180253Y0193967D02*
X0180253Y0197037D01*
X0179485Y0198571D02*
X0178718Y0198571D01*
X0177951Y0199339D01*
X0177951Y0200873D01*
X0178718Y0201641D01*
X0179485Y0201641D01*
X0180253Y0200873D01*
X0180253Y0199339D01*
X0179485Y0198571D01*
X0177951Y0199339D02*
X0177183Y0198571D01*
X0176416Y0198571D01*
X0175649Y0199339D01*
X0175649Y0200873D01*
X0176416Y0201641D01*
X0177183Y0201641D01*
X0177951Y0200873D01*
X0167556Y0198223D02*
X0167556Y0196688D01*
X0166789Y0195921D01*
X0166021Y0195921D01*
X0165254Y0196688D01*
X0165254Y0198223D01*
X0166021Y0198990D01*
X0166789Y0198990D01*
X0167556Y0198223D01*
X0165254Y0198223D02*
X0164487Y0198990D01*
X0163719Y0198990D01*
X0162952Y0198223D01*
X0162952Y0196688D01*
X0163719Y0195921D01*
X0164487Y0195921D01*
X0165254Y0196688D01*
X0167556Y0194386D02*
X0167556Y0191317D01*
X0167556Y0192852D02*
X0162952Y0192852D01*
X0164487Y0191317D01*
X0165254Y0189782D02*
X0163719Y0189782D01*
X0162952Y0189015D01*
X0162952Y0186713D01*
X0167556Y0186713D01*
X0166021Y0186713D02*
X0166021Y0189015D01*
X0165254Y0189782D01*
X0166021Y0188248D02*
X0167556Y0189782D01*
X0127024Y0187296D02*
X0123955Y0187296D01*
X0122420Y0187296D02*
X0122420Y0190366D01*
X0120886Y0191900D01*
X0119351Y0190366D01*
X0119351Y0187296D01*
X0117817Y0188064D02*
X0117049Y0187296D01*
X0114747Y0187296D01*
X0114747Y0191900D01*
X0117049Y0191900D01*
X0117817Y0191133D01*
X0117817Y0188064D01*
X0119351Y0189598D02*
X0122420Y0189598D01*
X0123955Y0190366D02*
X0125490Y0191900D01*
X0125490Y0187296D01*
X0113921Y0160995D02*
X0110852Y0160995D01*
X0110852Y0156391D01*
X0109317Y0156391D02*
X0106248Y0156391D01*
X0106248Y0160995D01*
X0109317Y0160995D01*
X0107783Y0158693D02*
X0106248Y0158693D01*
X0104713Y0158693D02*
X0103946Y0157926D01*
X0101644Y0157926D01*
X0103179Y0157926D02*
X0104713Y0156391D01*
X0104713Y0158693D02*
X0104713Y0160228D01*
X0103946Y0160995D01*
X0101644Y0160995D01*
X0101644Y0156391D01*
X0100109Y0155624D02*
X0097040Y0155624D01*
X0095505Y0156391D02*
X0092436Y0156391D01*
X0090902Y0156391D02*
X0090902Y0159460D01*
X0089367Y0160995D01*
X0087832Y0159460D01*
X0087832Y0156391D01*
X0086298Y0157158D02*
X0086298Y0160228D01*
X0085530Y0160995D01*
X0083228Y0160995D01*
X0083228Y0156391D01*
X0085530Y0156391D01*
X0086298Y0157158D01*
X0087832Y0158693D02*
X0090902Y0158693D01*
X0092436Y0159460D02*
X0093971Y0160995D01*
X0093971Y0156391D01*
X0110852Y0158693D02*
X0112387Y0158693D01*
X0111888Y0131507D02*
X0111120Y0130739D01*
X0111888Y0131507D02*
X0113422Y0131507D01*
X0114190Y0130739D01*
X0114190Y0129972D01*
X0111120Y0126903D01*
X0114190Y0126903D01*
X0109586Y0129205D02*
X0106517Y0129205D01*
X0108818Y0131507D01*
X0108818Y0126903D01*
X0104982Y0127670D02*
X0104215Y0126903D01*
X0102680Y0126903D01*
X0101913Y0127670D01*
X0101913Y0130739D01*
X0102680Y0131507D01*
X0104215Y0131507D01*
X0104982Y0130739D01*
X0097379Y0130228D02*
X0096611Y0130995D01*
X0095077Y0130995D01*
X0094309Y0130228D01*
X0094309Y0127158D01*
X0095077Y0126391D01*
X0096611Y0126391D01*
X0097379Y0127158D01*
X0092775Y0127158D02*
X0092775Y0130228D01*
X0092007Y0130995D01*
X0089705Y0130995D01*
X0089705Y0126391D01*
X0092007Y0126391D01*
X0092775Y0127158D01*
X0088171Y0126391D02*
X0088171Y0129460D01*
X0086636Y0130995D01*
X0085102Y0129460D01*
X0085102Y0126391D01*
X0085102Y0128693D02*
X0088171Y0128693D01*
X0073094Y0105227D02*
X0071560Y0104460D01*
X0070025Y0102925D01*
X0072327Y0102925D01*
X0073094Y0102158D01*
X0073094Y0101391D01*
X0072327Y0100623D01*
X0070792Y0100623D01*
X0070025Y0101391D01*
X0070025Y0102925D01*
X0068491Y0100623D02*
X0065421Y0100623D01*
X0063887Y0100623D02*
X0062352Y0102158D01*
X0063119Y0102158D02*
X0060817Y0102158D01*
X0060817Y0100623D02*
X0060817Y0105227D01*
X0063119Y0105227D01*
X0063887Y0104460D01*
X0063887Y0102925D01*
X0063119Y0102158D01*
X0065421Y0103693D02*
X0066956Y0105227D01*
X0066956Y0100623D01*
X0050410Y0100858D02*
X0048108Y0100858D01*
X0047341Y0101626D01*
X0047341Y0102393D01*
X0048108Y0103160D01*
X0049643Y0103160D01*
X0050410Y0102393D01*
X0050410Y0099324D01*
X0049643Y0098556D01*
X0048108Y0098556D01*
X0047341Y0099324D01*
X0045806Y0098556D02*
X0042737Y0098556D01*
X0045806Y0101626D01*
X0045806Y0102393D01*
X0045039Y0103160D01*
X0043504Y0103160D01*
X0042737Y0102393D01*
X0041202Y0102393D02*
X0040435Y0103160D01*
X0038900Y0103160D01*
X0038133Y0102393D01*
X0038133Y0099324D01*
X0038900Y0098556D01*
X0040435Y0098556D01*
X0041202Y0099324D01*
X0028316Y0090936D02*
X0028316Y0085732D01*
X0024847Y0090936D01*
X0024847Y0085732D01*
X0023144Y0085732D02*
X0021409Y0085732D01*
X0022277Y0085732D02*
X0022277Y0090936D01*
X0023144Y0090936D02*
X0021409Y0090936D01*
X0019722Y0089202D02*
X0019722Y0085732D01*
X0019722Y0088334D02*
X0016253Y0088334D01*
X0016253Y0089202D02*
X0016253Y0085732D01*
X0014566Y0086599D02*
X0014566Y0088334D01*
X0012831Y0088334D01*
X0011096Y0090069D02*
X0011096Y0086599D01*
X0011964Y0085732D01*
X0013699Y0085732D01*
X0014566Y0086599D01*
X0016253Y0089202D02*
X0017988Y0090936D01*
X0019722Y0089202D01*
X0014566Y0090069D02*
X0013699Y0090936D01*
X0011964Y0090936D01*
X0011096Y0090069D01*
X0059478Y0074530D02*
X0061013Y0074530D01*
X0060245Y0074530D02*
X0060245Y0069926D01*
X0059478Y0069926D02*
X0061013Y0069926D01*
X0062547Y0070694D02*
X0063315Y0069926D01*
X0064849Y0069926D01*
X0065617Y0070694D01*
X0067151Y0069926D02*
X0070220Y0069926D01*
X0068686Y0069926D02*
X0068686Y0074530D01*
X0067151Y0072996D01*
X0065617Y0073763D02*
X0064849Y0074530D01*
X0063315Y0074530D01*
X0062547Y0073763D01*
X0062547Y0070694D01*
X0071574Y0055046D02*
X0071574Y0051977D01*
X0073876Y0051977D01*
X0073109Y0053511D01*
X0073109Y0054279D01*
X0073876Y0055046D01*
X0075411Y0055046D01*
X0076178Y0054279D01*
X0076178Y0052744D01*
X0075411Y0051977D01*
X0076178Y0050442D02*
X0076178Y0047373D01*
X0076178Y0048907D02*
X0071574Y0048907D01*
X0073109Y0047373D01*
X0073876Y0045838D02*
X0074643Y0045071D01*
X0074643Y0042769D01*
X0074643Y0044304D02*
X0076178Y0045838D01*
X0073876Y0045838D02*
X0072341Y0045838D01*
X0071574Y0045071D01*
X0071574Y0042769D01*
X0076178Y0042769D01*
X0087361Y0042558D02*
X0088129Y0043326D01*
X0089663Y0043326D01*
X0090431Y0042558D01*
X0090431Y0040256D01*
X0091965Y0040256D02*
X0087361Y0040256D01*
X0087361Y0042558D01*
X0088896Y0044860D02*
X0087361Y0046395D01*
X0091965Y0046395D01*
X0091965Y0044860D02*
X0091965Y0047930D01*
X0089663Y0049464D02*
X0087361Y0051766D01*
X0091965Y0051766D01*
X0089663Y0052533D02*
X0089663Y0049464D01*
X0091965Y0043326D02*
X0090431Y0041791D01*
X0097991Y0042558D02*
X0098759Y0043326D01*
X0100293Y0043326D01*
X0101061Y0042558D01*
X0101061Y0040256D01*
X0102595Y0040256D02*
X0097991Y0040256D01*
X0097991Y0042558D01*
X0099526Y0044860D02*
X0097991Y0046395D01*
X0102595Y0046395D01*
X0102595Y0044860D02*
X0102595Y0047930D01*
X0102595Y0049464D02*
X0099526Y0052533D01*
X0098759Y0052533D01*
X0097991Y0051766D01*
X0097991Y0050231D01*
X0098759Y0049464D01*
X0102595Y0049464D02*
X0102595Y0052533D01*
X0102595Y0043326D02*
X0101061Y0041791D01*
X0116329Y0072670D02*
X0116329Y0077274D01*
X0118631Y0077274D01*
X0119398Y0076507D01*
X0119398Y0074972D01*
X0118631Y0074205D01*
X0116329Y0074205D01*
X0117864Y0074205D02*
X0119398Y0072670D01*
X0120933Y0072670D02*
X0124002Y0072670D01*
X0122468Y0072670D02*
X0122468Y0077274D01*
X0120933Y0075740D01*
X0125537Y0075740D02*
X0127072Y0077274D01*
X0127072Y0072670D01*
X0128606Y0072670D02*
X0125537Y0072670D01*
X0126121Y0085308D02*
X0123052Y0085308D01*
X0124587Y0085308D02*
X0124587Y0089912D01*
X0123052Y0088378D01*
X0121517Y0089145D02*
X0121517Y0087610D01*
X0120750Y0086843D01*
X0118448Y0086843D01*
X0119983Y0086843D02*
X0121517Y0085308D01*
X0118448Y0085308D02*
X0118448Y0089912D01*
X0120750Y0089912D01*
X0121517Y0089145D01*
X0127656Y0089145D02*
X0127656Y0086076D01*
X0130725Y0089145D01*
X0130725Y0086076D01*
X0129958Y0085308D01*
X0128423Y0085308D01*
X0127656Y0086076D01*
X0127656Y0089145D02*
X0128423Y0089912D01*
X0129958Y0089912D01*
X0130725Y0089145D01*
X0042989Y0147294D02*
X0039920Y0144225D01*
X0039920Y0143458D01*
X0038385Y0144225D02*
X0038385Y0144993D01*
X0037618Y0145760D01*
X0036083Y0145760D01*
X0035316Y0146527D01*
X0035316Y0147294D01*
X0036083Y0148062D01*
X0037618Y0148062D01*
X0038385Y0147294D01*
X0039920Y0148062D02*
X0042989Y0148062D01*
X0042989Y0147294D01*
X0038385Y0144225D02*
X0037618Y0143458D01*
X0036083Y0143458D01*
X0035316Y0144225D01*
X0033781Y0144225D02*
X0033781Y0148062D01*
X0030712Y0148062D02*
X0030712Y0144225D01*
X0031479Y0143458D01*
X0033014Y0143458D01*
X0033781Y0144225D01*
X0036850Y0142691D02*
X0036850Y0148829D01*
X0038522Y0187245D02*
X0041592Y0187245D01*
X0042359Y0188012D01*
X0042359Y0189546D01*
X0041592Y0190314D01*
X0041592Y0191848D02*
X0042359Y0192616D01*
X0042359Y0194150D01*
X0041592Y0194918D01*
X0040824Y0194918D01*
X0040057Y0194150D01*
X0040057Y0193383D01*
X0040057Y0194150D02*
X0039290Y0194918D01*
X0038522Y0194918D01*
X0037755Y0194150D01*
X0037755Y0192616D01*
X0038522Y0191848D01*
X0038522Y0190314D02*
X0037755Y0189546D01*
X0037755Y0188012D01*
X0038522Y0187245D01*
X0040057Y0196452D02*
X0040057Y0198754D01*
X0040824Y0199522D01*
X0041592Y0199522D01*
X0042359Y0198754D01*
X0042359Y0197220D01*
X0041592Y0196452D01*
X0040057Y0196452D01*
X0038522Y0197987D01*
X0037755Y0199522D01*
X0029092Y0210879D02*
X0026022Y0210879D01*
X0025255Y0211646D01*
X0025255Y0213181D01*
X0026022Y0213948D01*
X0026022Y0215483D02*
X0025255Y0216250D01*
X0025255Y0217785D01*
X0026022Y0218552D01*
X0026790Y0218552D01*
X0027557Y0217785D01*
X0028324Y0218552D01*
X0029092Y0218552D01*
X0029859Y0217785D01*
X0029859Y0216250D01*
X0029092Y0215483D01*
X0029092Y0213948D02*
X0029859Y0213181D01*
X0029859Y0211646D01*
X0029092Y0210879D01*
X0027557Y0217018D02*
X0027557Y0217785D01*
X0029092Y0220087D02*
X0026022Y0223156D01*
X0025255Y0223156D01*
X0025255Y0220087D01*
X0029092Y0220087D02*
X0029859Y0220087D01*
X0011808Y0238379D02*
X0008739Y0241448D01*
X0007971Y0241448D01*
X0007204Y0240681D01*
X0007204Y0239146D01*
X0007971Y0238379D01*
X0011808Y0238379D02*
X0011808Y0241448D01*
X0011041Y0242983D02*
X0011808Y0243750D01*
X0011808Y0245285D01*
X0011041Y0246052D01*
X0009506Y0246052D01*
X0008739Y0245285D01*
X0008739Y0244518D01*
X0009506Y0242983D01*
X0007204Y0242983D01*
X0007204Y0246052D01*
X0006259Y0245768D02*
X0006259Y0248070D01*
X0007026Y0248837D01*
X0008561Y0248837D01*
X0009328Y0248070D01*
X0009328Y0245768D01*
X0009328Y0247303D02*
X0010863Y0248837D01*
X0010863Y0250372D02*
X0010863Y0253441D01*
X0010863Y0251907D02*
X0006259Y0251907D01*
X0007794Y0250372D01*
X0007794Y0254976D02*
X0008561Y0255743D01*
X0008561Y0258045D01*
X0010096Y0258045D02*
X0007026Y0258045D01*
X0006259Y0257278D01*
X0006259Y0255743D01*
X0007026Y0254976D01*
X0007794Y0254976D01*
X0010096Y0254976D02*
X0010863Y0255743D01*
X0010863Y0257278D01*
X0010096Y0258045D01*
X0010303Y0260859D02*
X0013372Y0263929D01*
X0013372Y0264696D01*
X0012605Y0265463D01*
X0011070Y0265463D01*
X0010303Y0264696D01*
X0008769Y0264696D02*
X0008769Y0263161D01*
X0008001Y0262394D01*
X0005699Y0262394D01*
X0005699Y0260859D02*
X0005699Y0265463D01*
X0008001Y0265463D01*
X0008769Y0264696D01*
X0007234Y0262394D02*
X0008769Y0260859D01*
X0010303Y0260859D02*
X0013372Y0260859D01*
X0014907Y0261627D02*
X0017976Y0264696D01*
X0017976Y0261627D01*
X0017209Y0260859D01*
X0015674Y0260859D01*
X0014907Y0261627D01*
X0014907Y0264696D01*
X0015674Y0265463D01*
X0017209Y0265463D01*
X0017976Y0264696D01*
X0027617Y0274639D02*
X0028385Y0273871D01*
X0031454Y0273871D01*
X0032221Y0274639D01*
X0032221Y0276173D01*
X0031454Y0276941D01*
X0029919Y0278475D02*
X0029919Y0281544D01*
X0029152Y0283079D02*
X0027617Y0284614D01*
X0032221Y0284614D01*
X0032221Y0286148D02*
X0032221Y0283079D01*
X0032221Y0280777D02*
X0027617Y0280777D01*
X0029919Y0278475D01*
X0028385Y0276941D02*
X0027617Y0276173D01*
X0027617Y0274639D01*
X0011808Y0278379D02*
X0008739Y0281448D01*
X0007971Y0281448D01*
X0007204Y0280681D01*
X0007204Y0279146D01*
X0007971Y0278379D01*
X0011808Y0278379D02*
X0011808Y0281448D01*
X0009506Y0282983D02*
X0009506Y0286052D01*
X0011808Y0285285D02*
X0007204Y0285285D01*
X0009506Y0282983D01*
X0017283Y0304447D02*
X0017283Y0306749D01*
X0018050Y0307516D01*
X0018817Y0307516D01*
X0019585Y0306749D01*
X0019585Y0304447D01*
X0021887Y0304447D02*
X0017283Y0304447D01*
X0019585Y0306749D02*
X0020352Y0307516D01*
X0021119Y0307516D01*
X0021887Y0306749D01*
X0021887Y0304447D01*
X0021119Y0309051D02*
X0021887Y0309818D01*
X0021887Y0311353D01*
X0021119Y0312120D01*
X0019585Y0312120D01*
X0018817Y0311353D01*
X0018817Y0310585D01*
X0019585Y0309051D01*
X0017283Y0309051D01*
X0017283Y0312120D01*
X0053881Y0282038D02*
X0056183Y0282038D01*
X0056950Y0281271D01*
X0056950Y0279736D01*
X0056183Y0278969D01*
X0053881Y0278969D01*
X0055416Y0278969D02*
X0056950Y0277434D01*
X0058485Y0277434D02*
X0061554Y0280504D01*
X0061554Y0281271D01*
X0060787Y0282038D01*
X0059252Y0282038D01*
X0058485Y0281271D01*
X0058485Y0277434D02*
X0061554Y0277434D01*
X0063089Y0277434D02*
X0066158Y0280504D01*
X0066158Y0281271D01*
X0065391Y0282038D01*
X0063856Y0282038D01*
X0063089Y0281271D01*
X0063089Y0277434D02*
X0066158Y0277434D01*
X0053881Y0277434D02*
X0053881Y0282038D01*
X0063330Y0264322D02*
X0065632Y0264322D01*
X0066399Y0263554D01*
X0066399Y0262020D01*
X0065632Y0261252D01*
X0063330Y0261252D01*
X0063330Y0259718D02*
X0063330Y0264322D01*
X0064865Y0261252D02*
X0066399Y0259718D01*
X0067934Y0259718D02*
X0071003Y0262787D01*
X0071003Y0263554D01*
X0070236Y0264322D01*
X0068701Y0264322D01*
X0067934Y0263554D01*
X0067934Y0259718D02*
X0071003Y0259718D01*
X0072538Y0259718D02*
X0075607Y0259718D01*
X0074072Y0259718D02*
X0074072Y0264322D01*
X0072538Y0262787D01*
X0047366Y0250661D02*
X0047366Y0249126D01*
X0046599Y0248359D01*
X0044297Y0248359D01*
X0045831Y0248359D02*
X0047366Y0246824D01*
X0044297Y0246824D02*
X0044297Y0251428D01*
X0046599Y0251428D01*
X0047366Y0250661D01*
X0042762Y0250661D02*
X0042762Y0247591D01*
X0041995Y0246824D01*
X0040460Y0246824D01*
X0039693Y0247591D01*
X0039693Y0250661D01*
X0040460Y0251428D01*
X0041995Y0251428D01*
X0042762Y0250661D01*
X0038158Y0250661D02*
X0037391Y0251428D01*
X0035856Y0251428D01*
X0035089Y0250661D01*
X0035089Y0249893D01*
X0035856Y0249126D01*
X0037391Y0249126D01*
X0038158Y0248359D01*
X0038158Y0247591D01*
X0037391Y0246824D01*
X0035856Y0246824D01*
X0035089Y0247591D01*
X0033554Y0246824D02*
X0030485Y0251428D01*
X0030485Y0246824D01*
X0028950Y0246824D02*
X0025881Y0246824D01*
X0025881Y0251428D01*
X0028950Y0251428D01*
X0027416Y0249126D02*
X0025881Y0249126D01*
X0024346Y0248359D02*
X0024346Y0247591D01*
X0023579Y0246824D01*
X0022044Y0246824D01*
X0021277Y0247591D01*
X0022044Y0249126D02*
X0023579Y0249126D01*
X0024346Y0248359D01*
X0024346Y0250661D02*
X0023579Y0251428D01*
X0022044Y0251428D01*
X0021277Y0250661D01*
X0021277Y0249893D01*
X0022044Y0249126D01*
X0010863Y0245768D02*
X0006259Y0245768D01*
X0033554Y0246824D02*
X0033554Y0251428D01*
X0077125Y0213577D02*
X0077893Y0214344D01*
X0078660Y0214344D01*
X0081729Y0211275D01*
X0081729Y0214344D01*
X0077125Y0213577D02*
X0077125Y0212042D01*
X0077893Y0211275D01*
X0077893Y0209741D02*
X0078660Y0209741D01*
X0079427Y0208973D01*
X0080195Y0209741D01*
X0080962Y0209741D01*
X0081729Y0208973D01*
X0081729Y0207439D01*
X0080962Y0206671D01*
X0081729Y0205137D02*
X0080195Y0203602D01*
X0080195Y0204369D02*
X0080195Y0202067D01*
X0081729Y0202067D02*
X0077125Y0202067D01*
X0077125Y0204369D01*
X0077893Y0205137D01*
X0079427Y0205137D01*
X0080195Y0204369D01*
X0077893Y0206671D02*
X0077125Y0207439D01*
X0077125Y0208973D01*
X0077893Y0209741D01*
X0079427Y0208973D02*
X0079427Y0208206D01*
X0242204Y0240681D02*
X0244506Y0238379D01*
X0244506Y0241448D01*
X0245273Y0242983D02*
X0244506Y0243750D01*
X0244506Y0245285D01*
X0245273Y0246052D01*
X0246041Y0246052D01*
X0246808Y0245285D01*
X0246808Y0243750D01*
X0246041Y0242983D01*
X0245273Y0242983D01*
X0244506Y0243750D02*
X0243739Y0242983D01*
X0242971Y0242983D01*
X0242204Y0243750D01*
X0242204Y0245285D01*
X0242971Y0246052D01*
X0243739Y0246052D01*
X0244506Y0245285D01*
X0246808Y0240681D02*
X0242204Y0240681D01*
X0262913Y0240209D02*
X0262913Y0238674D01*
X0263680Y0237907D01*
X0266749Y0237907D01*
X0267517Y0238674D01*
X0267517Y0240209D01*
X0266749Y0240976D01*
X0267517Y0242511D02*
X0264447Y0245580D01*
X0263680Y0245580D01*
X0262913Y0244813D01*
X0262913Y0243278D01*
X0263680Y0242511D01*
X0263680Y0240976D02*
X0262913Y0240209D01*
X0267517Y0242511D02*
X0267517Y0245580D01*
X0266749Y0247115D02*
X0265982Y0247115D01*
X0265215Y0247882D01*
X0265215Y0249416D01*
X0265982Y0250184D01*
X0266749Y0250184D01*
X0267517Y0249416D01*
X0267517Y0247882D01*
X0266749Y0247115D01*
X0265215Y0247882D02*
X0264447Y0247115D01*
X0263680Y0247115D01*
X0262913Y0247882D01*
X0262913Y0249416D01*
X0263680Y0250184D01*
X0264447Y0250184D01*
X0265215Y0249416D01*
X0246808Y0283379D02*
X0246808Y0286448D01*
X0246808Y0284914D02*
X0242204Y0284914D01*
X0243739Y0283379D01*
X0257204Y0294914D02*
X0261808Y0294914D01*
X0261808Y0296448D02*
X0261808Y0293379D01*
X0258739Y0293379D02*
X0257204Y0294914D01*
X0260810Y0300919D02*
X0260810Y0305522D01*
X0263112Y0305522D01*
X0263880Y0304755D01*
X0263880Y0303220D01*
X0263112Y0302453D01*
X0260810Y0302453D01*
X0262345Y0302453D02*
X0263880Y0300919D01*
X0265414Y0300919D02*
X0268483Y0303988D01*
X0268483Y0304755D01*
X0267716Y0305522D01*
X0266181Y0305522D01*
X0265414Y0304755D01*
X0265414Y0300919D02*
X0268483Y0300919D01*
X0310196Y0291274D02*
X0310196Y0289739D01*
X0310963Y0288972D01*
X0310963Y0287437D02*
X0311731Y0287437D01*
X0312498Y0286670D01*
X0312498Y0284368D01*
X0310196Y0284368D02*
X0310196Y0286670D01*
X0310963Y0287437D01*
X0312498Y0286670D02*
X0313265Y0287437D01*
X0314033Y0287437D01*
X0314800Y0286670D01*
X0314800Y0284368D01*
X0310196Y0284368D01*
X0314033Y0288972D02*
X0314800Y0289739D01*
X0314800Y0291274D01*
X0314033Y0292041D01*
X0313265Y0292041D01*
X0312498Y0291274D01*
X0312498Y0290507D01*
X0312498Y0291274D02*
X0311731Y0292041D01*
X0310963Y0292041D01*
X0310196Y0291274D01*
D12*
X0207362Y0263966D02*
X0207236Y0263871D01*
X0207112Y0263772D01*
X0206990Y0263670D01*
X0206872Y0263565D01*
X0206755Y0263457D01*
X0206642Y0263346D01*
X0206531Y0263233D01*
X0206423Y0263116D01*
X0206318Y0262997D01*
X0206216Y0262876D01*
X0206118Y0262752D01*
X0206022Y0262625D01*
X0205929Y0262497D01*
X0205840Y0262366D01*
X0205754Y0262232D01*
X0205671Y0262097D01*
X0205592Y0261960D01*
X0205516Y0261820D01*
X0205444Y0261679D01*
X0205375Y0261536D01*
X0205310Y0261392D01*
X0205248Y0261246D01*
X0205190Y0261098D01*
X0205136Y0260949D01*
X0205085Y0260799D01*
X0205039Y0260647D01*
X0204996Y0260494D01*
X0204957Y0260341D01*
X0204921Y0260186D01*
X0204890Y0260031D01*
X0204862Y0259874D01*
X0204839Y0259718D01*
X0204819Y0259560D01*
X0204803Y0259402D01*
X0204791Y0259244D01*
X0204783Y0259086D01*
X0204779Y0258927D01*
X0204779Y0258769D01*
X0204783Y0258610D01*
X0204791Y0258452D01*
X0204803Y0258294D01*
X0204819Y0258136D01*
X0204839Y0257978D01*
X0204862Y0257822D01*
X0204890Y0257665D01*
X0204921Y0257510D01*
X0204957Y0257355D01*
X0204996Y0257202D01*
X0205039Y0257049D01*
X0205085Y0256897D01*
X0205136Y0256747D01*
X0205190Y0256598D01*
X0205248Y0256450D01*
X0205310Y0256304D01*
X0205375Y0256160D01*
X0205444Y0256017D01*
X0205516Y0255876D01*
X0205592Y0255736D01*
X0205671Y0255599D01*
X0205754Y0255464D01*
X0205840Y0255330D01*
X0205929Y0255199D01*
X0206022Y0255071D01*
X0206118Y0254944D01*
X0206216Y0254820D01*
X0206318Y0254699D01*
X0206423Y0254580D01*
X0206531Y0254463D01*
X0206642Y0254350D01*
X0206755Y0254239D01*
X0206872Y0254131D01*
X0206990Y0254026D01*
X0207112Y0253924D01*
X0207236Y0253825D01*
X0207362Y0253730D01*
X0193189Y0240738D02*
X0192776Y0241088D01*
X0192371Y0241448D01*
X0191976Y0241818D01*
X0191589Y0242197D01*
X0191212Y0242585D01*
X0190844Y0242983D01*
X0190486Y0243389D01*
X0190138Y0243804D01*
X0189801Y0244227D01*
X0189473Y0244659D01*
X0189156Y0245098D01*
X0188850Y0245545D01*
X0188555Y0245998D01*
X0188271Y0246459D01*
X0187999Y0246927D01*
X0187737Y0247402D01*
X0187488Y0247882D01*
X0187250Y0248368D01*
X0187023Y0248860D01*
X0186809Y0249358D01*
X0186607Y0249860D01*
X0186418Y0250367D01*
X0186240Y0250879D01*
X0186076Y0251395D01*
X0185923Y0251914D01*
X0185784Y0252437D01*
X0185657Y0252964D01*
X0185543Y0253493D01*
X0185442Y0254025D01*
X0185353Y0254559D01*
X0185278Y0255096D01*
X0185216Y0255633D01*
X0185167Y0256173D01*
X0185131Y0256713D01*
X0185108Y0257254D01*
X0185098Y0257795D01*
X0185102Y0258337D01*
X0185118Y0258878D01*
X0185148Y0259419D01*
X0185191Y0259958D01*
X0185247Y0260497D01*
X0185316Y0261034D01*
X0185398Y0261569D01*
X0185493Y0262102D01*
X0185601Y0262633D01*
X0185721Y0263161D01*
X0185855Y0263686D01*
X0186001Y0264207D01*
X0186160Y0264725D01*
X0186331Y0265238D01*
X0186515Y0265748D01*
X0186711Y0266252D01*
X0186919Y0266752D01*
X0187140Y0267247D01*
X0187372Y0267736D01*
X0187616Y0268219D01*
X0187872Y0268696D01*
X0188139Y0269167D01*
X0188418Y0269632D01*
X0188708Y0270089D01*
X0189009Y0270539D01*
X0189320Y0270982D01*
X0189643Y0271417D01*
X0189975Y0271844D01*
X0190318Y0272263D01*
X0190672Y0272673D01*
X0191035Y0273075D01*
X0191407Y0273468D01*
X0191789Y0273852D01*
X0192181Y0274226D01*
X0192581Y0274591D01*
X0192990Y0274946D01*
X0193407Y0275290D01*
X0193833Y0275625D01*
X0194267Y0275949D01*
X0194708Y0276263D01*
X0195157Y0276565D01*
X0191614Y0280895D02*
X0191072Y0280618D01*
X0190535Y0280328D01*
X0190007Y0280025D01*
X0189485Y0279710D01*
X0188972Y0279381D01*
X0188466Y0279041D01*
X0187969Y0278688D01*
X0187481Y0278323D01*
X0187002Y0277946D01*
X0186532Y0277558D01*
X0186071Y0277159D01*
X0185621Y0276748D01*
X0185180Y0276327D01*
X0184750Y0275895D01*
X0184331Y0275453D01*
X0183922Y0275001D01*
X0183524Y0274539D01*
X0183138Y0274067D01*
X0182764Y0273587D01*
X0182401Y0273097D01*
X0182050Y0272599D01*
X0181711Y0272092D01*
X0181385Y0271577D01*
X0181071Y0271054D01*
X0180770Y0270524D01*
X0180482Y0269987D01*
X0180208Y0269443D01*
X0179946Y0268893D01*
X0179698Y0268336D01*
X0179463Y0267773D01*
X0179243Y0267205D01*
X0179036Y0266632D01*
X0178843Y0266054D01*
X0178664Y0265471D01*
X0178499Y0264884D01*
X0178349Y0264293D01*
X0178213Y0263699D01*
X0178092Y0263102D01*
X0177985Y0262502D01*
X0177892Y0261899D01*
X0177815Y0261295D01*
X0177752Y0260689D01*
X0177703Y0260081D01*
X0177670Y0259472D01*
X0177651Y0258863D01*
X0177647Y0258254D01*
X0177658Y0257644D01*
X0177684Y0257035D01*
X0177724Y0256427D01*
X0177780Y0255820D01*
X0177850Y0255215D01*
X0177934Y0254611D01*
X0178034Y0254010D01*
X0178147Y0253411D01*
X0178276Y0252815D01*
X0178418Y0252223D01*
X0178576Y0251634D01*
X0178747Y0251049D01*
X0178932Y0250468D01*
X0179132Y0249892D01*
X0179345Y0249321D01*
X0179573Y0248756D01*
X0179814Y0248196D01*
X0180068Y0247642D01*
X0180336Y0247095D01*
X0180617Y0246554D01*
X0180911Y0246020D01*
X0181218Y0245493D01*
X0181538Y0244974D01*
X0181870Y0244463D01*
X0182214Y0243960D01*
X0182571Y0243466D01*
X0182940Y0242981D01*
X0183320Y0242504D01*
X0183711Y0242037D01*
X0184114Y0241580D01*
X0184528Y0241132D01*
X0199488Y0243494D02*
X0199153Y0243740D01*
X0198823Y0243995D01*
X0198501Y0244257D01*
X0198184Y0244527D01*
X0197875Y0244805D01*
X0197572Y0245090D01*
X0197276Y0245382D01*
X0196987Y0245682D01*
X0196706Y0245988D01*
X0196432Y0246301D01*
X0196166Y0246621D01*
X0195908Y0246947D01*
X0195658Y0247279D01*
X0195415Y0247617D01*
X0195182Y0247961D01*
X0194956Y0248311D01*
X0194739Y0248666D01*
X0194531Y0249026D01*
X0194332Y0249391D01*
X0194141Y0249761D01*
X0193960Y0250135D01*
X0193788Y0250513D01*
X0193625Y0250896D01*
X0193471Y0251283D01*
X0193327Y0251673D01*
X0193192Y0252066D01*
X0193067Y0252463D01*
X0192951Y0252862D01*
X0192845Y0253265D01*
X0192749Y0253669D01*
X0192663Y0254076D01*
X0192587Y0254485D01*
X0192521Y0254896D01*
X0192465Y0255308D01*
X0192418Y0255721D01*
X0192382Y0256136D01*
X0192356Y0256551D01*
X0192340Y0256966D01*
X0192334Y0257382D01*
X0192338Y0257798D01*
X0192352Y0258214D01*
X0192377Y0258629D01*
X0192411Y0259044D01*
X0192456Y0259457D01*
X0192510Y0259870D01*
X0192575Y0260280D01*
X0192649Y0260690D01*
X0192733Y0261097D01*
X0192828Y0261502D01*
X0192932Y0261905D01*
X0193046Y0262305D01*
X0193169Y0262702D01*
X0193302Y0263096D01*
X0193445Y0263487D01*
X0193597Y0263874D01*
X0193758Y0264257D01*
X0193929Y0264637D01*
X0194109Y0265012D01*
X0194297Y0265382D01*
X0194495Y0265748D01*
X0194702Y0266109D01*
X0194917Y0266465D01*
X0195141Y0266816D01*
X0195374Y0267161D01*
X0195614Y0267500D01*
X0195863Y0267833D01*
X0196120Y0268160D01*
X0196385Y0268481D01*
X0196657Y0268795D01*
X0196937Y0269103D01*
X0197224Y0269404D01*
X0197519Y0269697D01*
X0197821Y0269984D01*
X0198129Y0270263D01*
X0198444Y0270534D01*
X0198766Y0270798D01*
X0199094Y0271054D01*
X0203031Y0266722D02*
X0202828Y0266576D01*
X0202629Y0266426D01*
X0202434Y0266270D01*
X0202243Y0266110D01*
X0202055Y0265945D01*
X0201872Y0265776D01*
X0201693Y0265602D01*
X0201518Y0265424D01*
X0201347Y0265242D01*
X0201181Y0265055D01*
X0201020Y0264865D01*
X0200863Y0264671D01*
X0200711Y0264473D01*
X0200564Y0264271D01*
X0200421Y0264066D01*
X0200284Y0263858D01*
X0200152Y0263646D01*
X0200025Y0263431D01*
X0199903Y0263213D01*
X0199787Y0262992D01*
X0199676Y0262769D01*
X0199570Y0262543D01*
X0199470Y0262314D01*
X0199376Y0262083D01*
X0199287Y0261850D01*
X0199204Y0261614D01*
X0199126Y0261377D01*
X0199055Y0261138D01*
X0198989Y0260897D01*
X0198929Y0260655D01*
X0198875Y0260411D01*
X0198827Y0260166D01*
X0198785Y0259920D01*
X0198749Y0259673D01*
X0198719Y0259425D01*
X0198695Y0259177D01*
X0198677Y0258928D01*
X0198665Y0258678D01*
X0198659Y0258429D01*
X0198659Y0258179D01*
X0198665Y0257930D01*
X0198677Y0257680D01*
X0198696Y0257432D01*
X0198720Y0257183D01*
X0198750Y0256935D01*
X0198787Y0256688D01*
X0198829Y0256442D01*
X0198877Y0256197D01*
X0198931Y0255954D01*
X0198992Y0255712D01*
X0199058Y0255471D01*
X0199129Y0255232D01*
X0199207Y0254995D01*
X0199290Y0254759D01*
X0199379Y0254526D01*
X0199474Y0254295D01*
X0199574Y0254067D01*
X0199680Y0253840D01*
X0199791Y0253617D01*
X0199908Y0253396D01*
X0200030Y0253178D01*
X0200157Y0252964D01*
X0200289Y0252752D01*
X0200427Y0252544D01*
X0200569Y0252339D01*
X0200717Y0252137D01*
X0200869Y0251940D01*
X0201026Y0251746D01*
X0201188Y0251555D01*
X0201354Y0251369D01*
X0201525Y0251187D01*
X0201700Y0251009D01*
X0201879Y0250836D01*
X0202063Y0250666D01*
X0202250Y0250502D01*
X0202442Y0250342D01*
X0202637Y0250186D01*
D13*
X0249882Y0225384D02*
X0249882Y0213573D01*
X0261693Y0213573D01*
X0261693Y0225384D01*
X0249882Y0225384D01*
X0258332Y0215541D02*
X0258334Y0215615D01*
X0258340Y0215689D01*
X0258350Y0215762D01*
X0258363Y0215835D01*
X0258381Y0215907D01*
X0258402Y0215978D01*
X0258428Y0216048D01*
X0258456Y0216116D01*
X0258489Y0216183D01*
X0258525Y0216248D01*
X0258564Y0216310D01*
X0258607Y0216371D01*
X0258652Y0216429D01*
X0258701Y0216485D01*
X0258753Y0216538D01*
X0258807Y0216589D01*
X0258864Y0216636D01*
X0258924Y0216680D01*
X0258986Y0216721D01*
X0259050Y0216759D01*
X0259115Y0216793D01*
X0259183Y0216823D01*
X0259252Y0216850D01*
X0259322Y0216874D01*
X0259394Y0216893D01*
X0259466Y0216909D01*
X0259539Y0216921D01*
X0259613Y0216929D01*
X0259687Y0216933D01*
X0259761Y0216933D01*
X0259835Y0216929D01*
X0259909Y0216921D01*
X0259982Y0216909D01*
X0260054Y0216893D01*
X0260126Y0216874D01*
X0260196Y0216850D01*
X0260265Y0216823D01*
X0260333Y0216793D01*
X0260398Y0216759D01*
X0260462Y0216721D01*
X0260524Y0216680D01*
X0260584Y0216636D01*
X0260641Y0216589D01*
X0260695Y0216538D01*
X0260747Y0216485D01*
X0260796Y0216429D01*
X0260841Y0216371D01*
X0260884Y0216310D01*
X0260923Y0216248D01*
X0260959Y0216183D01*
X0260992Y0216116D01*
X0261020Y0216048D01*
X0261046Y0215978D01*
X0261067Y0215907D01*
X0261085Y0215835D01*
X0261098Y0215762D01*
X0261108Y0215689D01*
X0261114Y0215615D01*
X0261116Y0215541D01*
X0261114Y0215467D01*
X0261108Y0215393D01*
X0261098Y0215320D01*
X0261085Y0215247D01*
X0261067Y0215175D01*
X0261046Y0215104D01*
X0261020Y0215034D01*
X0260992Y0214966D01*
X0260959Y0214899D01*
X0260923Y0214834D01*
X0260884Y0214772D01*
X0260841Y0214711D01*
X0260796Y0214653D01*
X0260747Y0214597D01*
X0260695Y0214544D01*
X0260641Y0214493D01*
X0260584Y0214446D01*
X0260524Y0214402D01*
X0260462Y0214361D01*
X0260398Y0214323D01*
X0260333Y0214289D01*
X0260265Y0214259D01*
X0260196Y0214232D01*
X0260126Y0214208D01*
X0260054Y0214189D01*
X0259982Y0214173D01*
X0259909Y0214161D01*
X0259835Y0214153D01*
X0259761Y0214149D01*
X0259687Y0214149D01*
X0259613Y0214153D01*
X0259539Y0214161D01*
X0259466Y0214173D01*
X0259394Y0214189D01*
X0259322Y0214208D01*
X0259252Y0214232D01*
X0259183Y0214259D01*
X0259115Y0214289D01*
X0259050Y0214323D01*
X0258986Y0214361D01*
X0258924Y0214402D01*
X0258864Y0214446D01*
X0258807Y0214493D01*
X0258753Y0214544D01*
X0258701Y0214597D01*
X0258652Y0214653D01*
X0258607Y0214711D01*
X0258564Y0214772D01*
X0258525Y0214834D01*
X0258489Y0214899D01*
X0258456Y0214966D01*
X0258428Y0215034D01*
X0258402Y0215104D01*
X0258381Y0215175D01*
X0258363Y0215247D01*
X0258350Y0215320D01*
X0258340Y0215393D01*
X0258334Y0215467D01*
X0258332Y0215541D01*
X0267008Y0228179D02*
X0007008Y0228179D01*
X0007008Y0298179D01*
X0267008Y0298179D01*
X0267008Y0228179D01*
X0270754Y0234752D02*
X0272255Y0236253D01*
X0273756Y0234752D01*
X0273756Y0239256D01*
X0270754Y0239256D02*
X0270754Y0234752D01*
X0297825Y0230846D02*
X0297825Y0220846D01*
X0299075Y0219596D01*
X0310325Y0219596D01*
X0310325Y0232096D01*
X0299075Y0232096D01*
X0297825Y0230846D01*
X0304075Y0228346D02*
X0304075Y0223346D01*
X0299075Y0225846D02*
X0299077Y0225987D01*
X0299083Y0226128D01*
X0299093Y0226268D01*
X0299107Y0226408D01*
X0299125Y0226548D01*
X0299146Y0226687D01*
X0299172Y0226826D01*
X0299201Y0226964D01*
X0299235Y0227100D01*
X0299272Y0227236D01*
X0299313Y0227371D01*
X0299358Y0227505D01*
X0299407Y0227637D01*
X0299459Y0227768D01*
X0299515Y0227897D01*
X0299575Y0228024D01*
X0299638Y0228150D01*
X0299704Y0228274D01*
X0299775Y0228397D01*
X0299848Y0228517D01*
X0299925Y0228635D01*
X0300005Y0228751D01*
X0300089Y0228864D01*
X0300175Y0228975D01*
X0300265Y0229084D01*
X0300358Y0229190D01*
X0300453Y0229293D01*
X0300552Y0229394D01*
X0300653Y0229492D01*
X0300757Y0229587D01*
X0300864Y0229679D01*
X0300973Y0229768D01*
X0301085Y0229853D01*
X0301199Y0229936D01*
X0301315Y0230016D01*
X0301434Y0230092D01*
X0301555Y0230164D01*
X0301677Y0230234D01*
X0301802Y0230299D01*
X0301928Y0230362D01*
X0302056Y0230420D01*
X0302186Y0230475D01*
X0302317Y0230527D01*
X0302450Y0230574D01*
X0302584Y0230618D01*
X0302719Y0230659D01*
X0302855Y0230695D01*
X0302992Y0230727D01*
X0303130Y0230756D01*
X0303268Y0230781D01*
X0303408Y0230801D01*
X0303548Y0230818D01*
X0303688Y0230831D01*
X0303829Y0230840D01*
X0303969Y0230845D01*
X0304110Y0230846D01*
X0304251Y0230843D01*
X0304392Y0230836D01*
X0304532Y0230825D01*
X0304672Y0230810D01*
X0304812Y0230791D01*
X0304951Y0230769D01*
X0305089Y0230742D01*
X0305227Y0230712D01*
X0305363Y0230677D01*
X0305499Y0230639D01*
X0305633Y0230597D01*
X0305767Y0230551D01*
X0305899Y0230502D01*
X0306029Y0230448D01*
X0306158Y0230391D01*
X0306285Y0230331D01*
X0306411Y0230267D01*
X0306534Y0230199D01*
X0306656Y0230128D01*
X0306776Y0230054D01*
X0306893Y0229976D01*
X0307008Y0229895D01*
X0307121Y0229811D01*
X0307232Y0229724D01*
X0307340Y0229633D01*
X0307445Y0229540D01*
X0307548Y0229443D01*
X0307648Y0229344D01*
X0307745Y0229242D01*
X0307839Y0229137D01*
X0307930Y0229030D01*
X0308018Y0228920D01*
X0308103Y0228808D01*
X0308185Y0228693D01*
X0308264Y0228576D01*
X0308339Y0228457D01*
X0308411Y0228336D01*
X0308479Y0228213D01*
X0308544Y0228088D01*
X0308606Y0227961D01*
X0308663Y0227832D01*
X0308718Y0227702D01*
X0308768Y0227571D01*
X0308815Y0227438D01*
X0308858Y0227304D01*
X0308897Y0227168D01*
X0308932Y0227032D01*
X0308964Y0226895D01*
X0308991Y0226757D01*
X0309015Y0226618D01*
X0309035Y0226478D01*
X0309051Y0226338D01*
X0309063Y0226198D01*
X0309071Y0226057D01*
X0309075Y0225916D01*
X0309075Y0225776D01*
X0309071Y0225635D01*
X0309063Y0225494D01*
X0309051Y0225354D01*
X0309035Y0225214D01*
X0309015Y0225074D01*
X0308991Y0224935D01*
X0308964Y0224797D01*
X0308932Y0224660D01*
X0308897Y0224524D01*
X0308858Y0224388D01*
X0308815Y0224254D01*
X0308768Y0224121D01*
X0308718Y0223990D01*
X0308663Y0223860D01*
X0308606Y0223731D01*
X0308544Y0223604D01*
X0308479Y0223479D01*
X0308411Y0223356D01*
X0308339Y0223235D01*
X0308264Y0223116D01*
X0308185Y0222999D01*
X0308103Y0222884D01*
X0308018Y0222772D01*
X0307930Y0222662D01*
X0307839Y0222555D01*
X0307745Y0222450D01*
X0307648Y0222348D01*
X0307548Y0222249D01*
X0307445Y0222152D01*
X0307340Y0222059D01*
X0307232Y0221968D01*
X0307121Y0221881D01*
X0307008Y0221797D01*
X0306893Y0221716D01*
X0306776Y0221638D01*
X0306656Y0221564D01*
X0306534Y0221493D01*
X0306411Y0221425D01*
X0306285Y0221361D01*
X0306158Y0221301D01*
X0306029Y0221244D01*
X0305899Y0221190D01*
X0305767Y0221141D01*
X0305633Y0221095D01*
X0305499Y0221053D01*
X0305363Y0221015D01*
X0305227Y0220980D01*
X0305089Y0220950D01*
X0304951Y0220923D01*
X0304812Y0220901D01*
X0304672Y0220882D01*
X0304532Y0220867D01*
X0304392Y0220856D01*
X0304251Y0220849D01*
X0304110Y0220846D01*
X0303969Y0220847D01*
X0303829Y0220852D01*
X0303688Y0220861D01*
X0303548Y0220874D01*
X0303408Y0220891D01*
X0303268Y0220911D01*
X0303130Y0220936D01*
X0302992Y0220965D01*
X0302855Y0220997D01*
X0302719Y0221033D01*
X0302584Y0221074D01*
X0302450Y0221118D01*
X0302317Y0221165D01*
X0302186Y0221217D01*
X0302056Y0221272D01*
X0301928Y0221330D01*
X0301802Y0221393D01*
X0301677Y0221458D01*
X0301555Y0221528D01*
X0301434Y0221600D01*
X0301315Y0221676D01*
X0301199Y0221756D01*
X0301085Y0221839D01*
X0300973Y0221924D01*
X0300864Y0222013D01*
X0300757Y0222105D01*
X0300653Y0222200D01*
X0300552Y0222298D01*
X0300453Y0222399D01*
X0300358Y0222502D01*
X0300265Y0222608D01*
X0300175Y0222717D01*
X0300089Y0222828D01*
X0300005Y0222941D01*
X0299925Y0223057D01*
X0299848Y0223175D01*
X0299775Y0223295D01*
X0299704Y0223418D01*
X0299638Y0223542D01*
X0299575Y0223668D01*
X0299515Y0223795D01*
X0299459Y0223924D01*
X0299407Y0224055D01*
X0299358Y0224187D01*
X0299313Y0224321D01*
X0299272Y0224456D01*
X0299235Y0224592D01*
X0299201Y0224728D01*
X0299172Y0224866D01*
X0299146Y0225005D01*
X0299125Y0225144D01*
X0299107Y0225284D01*
X0299093Y0225424D01*
X0299083Y0225564D01*
X0299077Y0225705D01*
X0299075Y0225846D01*
X0301575Y0225846D02*
X0306575Y0225846D01*
X0321654Y0252274D02*
X0331654Y0252274D01*
X0331654Y0262274D01*
X0321654Y0262274D01*
X0321654Y0252274D01*
X0349312Y0148494D02*
X0349314Y0148520D01*
X0349320Y0148546D01*
X0349329Y0148570D01*
X0349343Y0148593D01*
X0349359Y0148614D01*
X0349378Y0148632D01*
X0349400Y0148646D01*
X0349424Y0148658D01*
X0349449Y0148666D01*
X0349475Y0148670D01*
X0349501Y0148670D01*
X0349527Y0148666D01*
X0349552Y0148658D01*
X0349576Y0148646D01*
X0349598Y0148632D01*
X0349617Y0148614D01*
X0349633Y0148593D01*
X0349647Y0148570D01*
X0349656Y0148546D01*
X0349662Y0148520D01*
X0349664Y0148494D01*
X0349662Y0148468D01*
X0349656Y0148442D01*
X0349647Y0148418D01*
X0349633Y0148395D01*
X0349617Y0148374D01*
X0349598Y0148356D01*
X0349576Y0148342D01*
X0349552Y0148330D01*
X0349527Y0148322D01*
X0349501Y0148318D01*
X0349475Y0148318D01*
X0349449Y0148322D01*
X0349424Y0148330D01*
X0349400Y0148342D01*
X0349378Y0148356D01*
X0349359Y0148374D01*
X0349343Y0148395D01*
X0349329Y0148418D01*
X0349320Y0148442D01*
X0349314Y0148468D01*
X0349312Y0148494D01*
X0372785Y0148794D02*
X0372785Y0147292D01*
X0373535Y0146542D01*
X0373535Y0144940D02*
X0372785Y0144190D01*
X0372785Y0142688D01*
X0373535Y0141938D01*
X0376538Y0141938D01*
X0377289Y0142688D01*
X0377289Y0144190D01*
X0376538Y0144940D01*
X0377289Y0146542D02*
X0374286Y0149544D01*
X0373535Y0149544D01*
X0372785Y0148794D01*
X0377289Y0149544D02*
X0377289Y0146542D01*
X0379339Y0149396D02*
X0380339Y0150396D01*
X0391839Y0150896D01*
X0380739Y0148596D02*
X0380741Y0148659D01*
X0380747Y0148721D01*
X0380757Y0148783D01*
X0380770Y0148845D01*
X0380788Y0148905D01*
X0380809Y0148964D01*
X0380834Y0149022D01*
X0380863Y0149078D01*
X0380895Y0149132D01*
X0380930Y0149184D01*
X0380968Y0149233D01*
X0381010Y0149281D01*
X0381054Y0149325D01*
X0381102Y0149367D01*
X0381151Y0149405D01*
X0381203Y0149440D01*
X0381257Y0149472D01*
X0381313Y0149501D01*
X0381371Y0149526D01*
X0381430Y0149547D01*
X0381490Y0149565D01*
X0381552Y0149578D01*
X0381614Y0149588D01*
X0381676Y0149594D01*
X0381739Y0149596D01*
X0381802Y0149594D01*
X0381864Y0149588D01*
X0381926Y0149578D01*
X0381988Y0149565D01*
X0382048Y0149547D01*
X0382107Y0149526D01*
X0382165Y0149501D01*
X0382221Y0149472D01*
X0382275Y0149440D01*
X0382327Y0149405D01*
X0382376Y0149367D01*
X0382424Y0149325D01*
X0382468Y0149281D01*
X0382510Y0149233D01*
X0382548Y0149184D01*
X0382583Y0149132D01*
X0382615Y0149078D01*
X0382644Y0149022D01*
X0382669Y0148964D01*
X0382690Y0148905D01*
X0382708Y0148845D01*
X0382721Y0148783D01*
X0382731Y0148721D01*
X0382737Y0148659D01*
X0382739Y0148596D01*
X0382737Y0148533D01*
X0382731Y0148471D01*
X0382721Y0148409D01*
X0382708Y0148347D01*
X0382690Y0148287D01*
X0382669Y0148228D01*
X0382644Y0148170D01*
X0382615Y0148114D01*
X0382583Y0148060D01*
X0382548Y0148008D01*
X0382510Y0147959D01*
X0382468Y0147911D01*
X0382424Y0147867D01*
X0382376Y0147825D01*
X0382327Y0147787D01*
X0382275Y0147752D01*
X0382221Y0147720D01*
X0382165Y0147691D01*
X0382107Y0147666D01*
X0382048Y0147645D01*
X0381988Y0147627D01*
X0381926Y0147614D01*
X0381864Y0147604D01*
X0381802Y0147598D01*
X0381739Y0147596D01*
X0381676Y0147598D01*
X0381614Y0147604D01*
X0381552Y0147614D01*
X0381490Y0147627D01*
X0381430Y0147645D01*
X0381371Y0147666D01*
X0381313Y0147691D01*
X0381257Y0147720D01*
X0381203Y0147752D01*
X0381151Y0147787D01*
X0381102Y0147825D01*
X0381054Y0147867D01*
X0381010Y0147911D01*
X0380968Y0147959D01*
X0380930Y0148008D01*
X0380895Y0148060D01*
X0380863Y0148114D01*
X0380834Y0148170D01*
X0380809Y0148228D01*
X0380788Y0148287D01*
X0380770Y0148347D01*
X0380757Y0148409D01*
X0380747Y0148471D01*
X0380741Y0148533D01*
X0380739Y0148596D01*
X0379339Y0149396D02*
X0379339Y0112396D01*
X0380339Y0111396D01*
X0391839Y0110896D01*
X0377289Y0138869D02*
X0377289Y0140370D01*
X0377289Y0139619D02*
X0372785Y0139619D01*
X0372785Y0138869D02*
X0372785Y0140370D01*
X0382598Y0080659D02*
X0352598Y0080659D01*
X0352598Y0060659D01*
X0382598Y0060659D01*
X0382598Y0080659D01*
X0290209Y0115416D02*
X0278609Y0115416D01*
X0278609Y0118816D01*
X0290209Y0118816D01*
X0290209Y0115416D01*
X0195493Y0185226D02*
X0195495Y0185252D01*
X0195501Y0185278D01*
X0195510Y0185302D01*
X0195524Y0185325D01*
X0195540Y0185346D01*
X0195559Y0185364D01*
X0195581Y0185378D01*
X0195605Y0185390D01*
X0195630Y0185398D01*
X0195656Y0185402D01*
X0195682Y0185402D01*
X0195708Y0185398D01*
X0195733Y0185390D01*
X0195757Y0185378D01*
X0195779Y0185364D01*
X0195798Y0185346D01*
X0195814Y0185325D01*
X0195828Y0185302D01*
X0195837Y0185278D01*
X0195843Y0185252D01*
X0195845Y0185226D01*
X0195843Y0185200D01*
X0195837Y0185174D01*
X0195828Y0185150D01*
X0195814Y0185127D01*
X0195798Y0185106D01*
X0195779Y0185088D01*
X0195757Y0185074D01*
X0195733Y0185062D01*
X0195708Y0185054D01*
X0195682Y0185050D01*
X0195656Y0185050D01*
X0195630Y0185054D01*
X0195605Y0185062D01*
X0195581Y0185074D01*
X0195559Y0185088D01*
X0195540Y0185106D01*
X0195524Y0185127D01*
X0195510Y0185150D01*
X0195501Y0185174D01*
X0195495Y0185200D01*
X0195493Y0185226D01*
X0189453Y0161697D02*
X0187952Y0161697D01*
X0187201Y0160946D01*
X0187201Y0157944D01*
X0187952Y0157193D01*
X0189453Y0157193D01*
X0190204Y0157944D01*
X0190204Y0160946D02*
X0189453Y0161697D01*
X0185600Y0160195D02*
X0185600Y0157193D01*
X0185600Y0159445D02*
X0182597Y0159445D01*
X0182597Y0160195D02*
X0184098Y0161697D01*
X0185600Y0160195D01*
X0182597Y0160195D02*
X0182597Y0157193D01*
X0180996Y0157944D02*
X0180996Y0160946D01*
X0180245Y0161697D01*
X0177993Y0161697D01*
X0177993Y0157193D01*
X0180245Y0157193D01*
X0180996Y0157944D01*
X0176392Y0156442D02*
X0173389Y0156442D01*
X0171788Y0158694D02*
X0171788Y0161697D01*
X0168785Y0161697D02*
X0168785Y0158694D01*
X0170287Y0157193D01*
X0171788Y0158694D01*
X0119785Y0170778D02*
X0119787Y0170804D01*
X0119793Y0170830D01*
X0119802Y0170854D01*
X0119816Y0170877D01*
X0119832Y0170898D01*
X0119851Y0170916D01*
X0119873Y0170930D01*
X0119897Y0170942D01*
X0119922Y0170950D01*
X0119948Y0170954D01*
X0119974Y0170954D01*
X0120000Y0170950D01*
X0120025Y0170942D01*
X0120049Y0170930D01*
X0120071Y0170916D01*
X0120090Y0170898D01*
X0120106Y0170877D01*
X0120120Y0170854D01*
X0120129Y0170830D01*
X0120135Y0170804D01*
X0120137Y0170778D01*
X0120135Y0170752D01*
X0120129Y0170726D01*
X0120120Y0170702D01*
X0120106Y0170679D01*
X0120090Y0170658D01*
X0120071Y0170640D01*
X0120049Y0170626D01*
X0120025Y0170614D01*
X0120000Y0170606D01*
X0119974Y0170602D01*
X0119948Y0170602D01*
X0119922Y0170606D01*
X0119897Y0170614D01*
X0119873Y0170626D01*
X0119851Y0170640D01*
X0119832Y0170658D01*
X0119816Y0170679D01*
X0119802Y0170702D01*
X0119793Y0170726D01*
X0119787Y0170752D01*
X0119785Y0170778D01*
X0070512Y0133258D02*
X0070512Y0093258D01*
X0010512Y0093258D01*
X0010512Y0133258D01*
X0070512Y0133258D01*
X0082107Y0124203D02*
X0082109Y0124229D01*
X0082115Y0124255D01*
X0082124Y0124279D01*
X0082138Y0124302D01*
X0082154Y0124323D01*
X0082173Y0124341D01*
X0082195Y0124355D01*
X0082219Y0124367D01*
X0082244Y0124375D01*
X0082270Y0124379D01*
X0082296Y0124379D01*
X0082322Y0124375D01*
X0082347Y0124367D01*
X0082371Y0124355D01*
X0082393Y0124341D01*
X0082412Y0124323D01*
X0082428Y0124302D01*
X0082442Y0124279D01*
X0082451Y0124255D01*
X0082457Y0124229D01*
X0082459Y0124203D01*
X0082457Y0124177D01*
X0082451Y0124151D01*
X0082442Y0124127D01*
X0082428Y0124104D01*
X0082412Y0124083D01*
X0082393Y0124065D01*
X0082371Y0124051D01*
X0082347Y0124039D01*
X0082322Y0124031D01*
X0082296Y0124027D01*
X0082270Y0124027D01*
X0082244Y0124031D01*
X0082219Y0124039D01*
X0082195Y0124051D01*
X0082173Y0124065D01*
X0082154Y0124083D01*
X0082138Y0124104D01*
X0082124Y0124127D01*
X0082115Y0124151D01*
X0082109Y0124177D01*
X0082107Y0124203D01*
X0031365Y0136144D02*
X0030615Y0135394D01*
X0029113Y0135394D01*
X0028363Y0136144D01*
X0028363Y0137646D02*
X0029864Y0138396D01*
X0030615Y0138396D01*
X0031365Y0137646D01*
X0031365Y0136144D01*
X0028363Y0137646D02*
X0028363Y0139898D01*
X0031365Y0139898D01*
X0026761Y0139147D02*
X0026761Y0137646D01*
X0026011Y0136895D01*
X0023759Y0136895D01*
X0023759Y0135394D02*
X0023759Y0139898D01*
X0026011Y0139898D01*
X0026761Y0139147D01*
X0022157Y0139898D02*
X0020656Y0139898D01*
X0021407Y0139898D02*
X0021407Y0136144D01*
X0020656Y0135394D01*
X0019905Y0135394D01*
X0019155Y0136144D01*
X0024347Y0173472D02*
X0023596Y0174223D01*
X0024347Y0173472D02*
X0025098Y0173472D01*
X0025848Y0174223D01*
X0025848Y0177976D01*
X0025098Y0177976D02*
X0026599Y0177976D01*
X0028200Y0177976D02*
X0030452Y0177976D01*
X0031203Y0177226D01*
X0031203Y0175724D01*
X0030452Y0174974D01*
X0028200Y0174974D01*
X0028200Y0173472D02*
X0028200Y0177976D01*
X0028550Y0182012D02*
X0028550Y0183513D01*
X0028550Y0182762D02*
X0024046Y0182762D01*
X0024046Y0182012D02*
X0024046Y0183513D01*
X0024797Y0185081D02*
X0024046Y0185832D01*
X0024046Y0187333D01*
X0024797Y0188084D01*
X0024797Y0189685D02*
X0024046Y0190436D01*
X0024046Y0191937D01*
X0024797Y0192688D01*
X0025547Y0192688D01*
X0026298Y0191937D01*
X0027049Y0192688D01*
X0027799Y0192688D01*
X0028550Y0191937D01*
X0028550Y0190436D01*
X0027799Y0189685D01*
X0027799Y0188084D02*
X0028550Y0187333D01*
X0028550Y0185832D01*
X0027799Y0185081D01*
X0024797Y0185081D01*
X0022000Y0183262D02*
X0021000Y0182262D01*
X0009500Y0181762D01*
X0018600Y0184062D02*
X0018602Y0184125D01*
X0018608Y0184187D01*
X0018618Y0184249D01*
X0018631Y0184311D01*
X0018649Y0184371D01*
X0018670Y0184430D01*
X0018695Y0184488D01*
X0018724Y0184544D01*
X0018756Y0184598D01*
X0018791Y0184650D01*
X0018829Y0184699D01*
X0018871Y0184747D01*
X0018915Y0184791D01*
X0018963Y0184833D01*
X0019012Y0184871D01*
X0019064Y0184906D01*
X0019118Y0184938D01*
X0019174Y0184967D01*
X0019232Y0184992D01*
X0019291Y0185013D01*
X0019351Y0185031D01*
X0019413Y0185044D01*
X0019475Y0185054D01*
X0019537Y0185060D01*
X0019600Y0185062D01*
X0019663Y0185060D01*
X0019725Y0185054D01*
X0019787Y0185044D01*
X0019849Y0185031D01*
X0019909Y0185013D01*
X0019968Y0184992D01*
X0020026Y0184967D01*
X0020082Y0184938D01*
X0020136Y0184906D01*
X0020188Y0184871D01*
X0020237Y0184833D01*
X0020285Y0184791D01*
X0020329Y0184747D01*
X0020371Y0184699D01*
X0020409Y0184650D01*
X0020444Y0184598D01*
X0020476Y0184544D01*
X0020505Y0184488D01*
X0020530Y0184430D01*
X0020551Y0184371D01*
X0020569Y0184311D01*
X0020582Y0184249D01*
X0020592Y0184187D01*
X0020598Y0184125D01*
X0020600Y0184062D01*
X0020598Y0183999D01*
X0020592Y0183937D01*
X0020582Y0183875D01*
X0020569Y0183813D01*
X0020551Y0183753D01*
X0020530Y0183694D01*
X0020505Y0183636D01*
X0020476Y0183580D01*
X0020444Y0183526D01*
X0020409Y0183474D01*
X0020371Y0183425D01*
X0020329Y0183377D01*
X0020285Y0183333D01*
X0020237Y0183291D01*
X0020188Y0183253D01*
X0020136Y0183218D01*
X0020082Y0183186D01*
X0020026Y0183157D01*
X0019968Y0183132D01*
X0019909Y0183111D01*
X0019849Y0183093D01*
X0019787Y0183080D01*
X0019725Y0183070D01*
X0019663Y0183064D01*
X0019600Y0183062D01*
X0019537Y0183064D01*
X0019475Y0183070D01*
X0019413Y0183080D01*
X0019351Y0183093D01*
X0019291Y0183111D01*
X0019232Y0183132D01*
X0019174Y0183157D01*
X0019118Y0183186D01*
X0019064Y0183218D01*
X0019012Y0183253D01*
X0018963Y0183291D01*
X0018915Y0183333D01*
X0018871Y0183377D01*
X0018829Y0183425D01*
X0018791Y0183474D01*
X0018756Y0183526D01*
X0018724Y0183580D01*
X0018695Y0183636D01*
X0018670Y0183694D01*
X0018649Y0183753D01*
X0018631Y0183813D01*
X0018618Y0183875D01*
X0018608Y0183937D01*
X0018602Y0183999D01*
X0018600Y0184062D01*
X0022000Y0183262D02*
X0022000Y0220262D01*
X0021000Y0221262D01*
X0009500Y0221762D01*
X0026298Y0191937D02*
X0026298Y0191186D01*
X0035056Y0177976D02*
X0032804Y0175724D01*
X0035807Y0175724D01*
X0035056Y0173472D02*
X0035056Y0177976D01*
X0138470Y0103072D02*
X0139221Y0103823D01*
X0140722Y0103823D01*
X0141473Y0103072D01*
X0141473Y0102321D01*
X0140722Y0101571D01*
X0141473Y0100820D01*
X0141473Y0100070D01*
X0140722Y0099319D01*
X0139221Y0099319D01*
X0138470Y0100070D01*
X0139972Y0101571D02*
X0140722Y0101571D01*
X0143074Y0100820D02*
X0144576Y0099319D01*
X0146077Y0100820D01*
X0146077Y0103823D01*
X0147678Y0103072D02*
X0148429Y0103823D01*
X0149930Y0103823D01*
X0150681Y0103072D01*
X0150681Y0102321D01*
X0149930Y0101571D01*
X0150681Y0100820D01*
X0150681Y0100070D01*
X0149930Y0099319D01*
X0148429Y0099319D01*
X0147678Y0100070D01*
X0149180Y0101571D02*
X0149930Y0101571D01*
X0143074Y0100820D02*
X0143074Y0103823D01*
X0068976Y0076250D02*
X0068976Y0011250D01*
X0053976Y0011250D01*
X0053976Y0006250D01*
X0048976Y0011250D01*
X0053976Y0011250D01*
X0048976Y0011250D02*
X0038976Y0011250D01*
X0048976Y0001250D01*
X0038976Y0001250D01*
X0033976Y0006250D01*
X0033976Y0011250D01*
X0038976Y0011250D01*
X0033976Y0011250D02*
X0018976Y0011250D01*
X0018976Y0076250D01*
X0068976Y0076250D01*
X0053976Y0006250D02*
X0053976Y0001250D01*
X0048976Y0001250D01*
X0038976Y0001250D02*
X0033976Y0001250D01*
X0033976Y0006250D01*
X0093219Y0273386D02*
X0093219Y0277890D01*
X0096221Y0277890D01*
X0097822Y0277890D02*
X0100074Y0277890D01*
X0100825Y0277139D01*
X0100825Y0275638D01*
X0100074Y0274887D01*
X0097822Y0274887D01*
X0097822Y0273386D02*
X0097822Y0277890D01*
X0094720Y0275638D02*
X0093219Y0275638D01*
X0102426Y0277139D02*
X0102426Y0274136D01*
X0103177Y0273386D01*
X0104678Y0273386D01*
X0105429Y0274136D01*
X0105429Y0275638D01*
X0103928Y0275638D01*
X0105429Y0277139D02*
X0104678Y0277890D01*
X0103177Y0277890D01*
X0102426Y0277139D01*
X0107030Y0276388D02*
X0108532Y0277890D01*
X0110033Y0276388D01*
X0110033Y0273386D01*
X0110033Y0275638D02*
X0107030Y0275638D01*
X0107030Y0276388D02*
X0107030Y0273386D01*
D14*
X0277621Y0275624D02*
X0277621Y0239711D01*
X0293796Y0239711D01*
X0293796Y0275624D01*
X0277621Y0275624D01*
D15*
X0149876Y0208645D02*
X0149876Y0191729D01*
X0130991Y0191729D01*
X0130991Y0208645D01*
X0149876Y0208645D01*
X0044364Y0258061D02*
X0042402Y0256099D01*
X0031378Y0256099D02*
X0029416Y0258061D01*
X0029416Y0269085D02*
X0031378Y0271047D01*
X0042402Y0271047D02*
X0044364Y0269085D01*
D16*
X0132854Y0193986D03*
D17*
X0006500Y0201762D03*
X0394839Y0130896D03*
D18*
X0392339Y0148146D03*
X0392339Y0113646D03*
X0009000Y0184512D03*
X0009000Y0219012D03*
D19*
X0009000Y0206762D03*
X0009000Y0196762D03*
X0392339Y0135896D03*
X0392339Y0125896D03*
M02*
